<svg width="400" height="400" viewBox="0 0 400 400" fill="none" xmlns="http://www.w3.org/2000/svg">
<mask id="mask0_2489_28590" style="mask-type:alpha" maskUnits="userSpaceOnUse" x="17" y="8" width="367" height="353">
<path d="M383.092 134.87C383.281 134.991 383.265 135.271 383.065 135.371C381.496 136.152 379.946 136.973 378.34 137.685C366.014 143.158 354.218 149.532 344.195 158.69C340.769 161.82 337.671 165.373 334.77 169.01C332.018 172.457 331.098 176.678 331.14 181.06C331.148 181.736 331.246 182.412 331.358 183.154C331.472 183.908 332.119 184.476 332.882 184.476H346.209C347.045 184.476 347.727 185.156 347.678 185.99C347.37 191.322 345.48 195.92 342.237 199.776C337.844 204.992 336.053 211.193 333.982 217.418C330.961 226.492 330.758 235.847 331.474 245.13C332.221 254.807 328.639 262.522 322.861 269.719C318.324 275.371 313.93 281.142 309.417 286.818C304.791 292.637 303.066 299.208 303.562 306.595C304.2 316.063 306.421 325.191 308.492 334.409C310.182 341.933 310.737 349.708 311.758 357.376C311.787 357.592 311.79 357.811 311.778 358.061C311.726 359.121 310.558 359.797 309.573 359.403C308.087 358.809 306.734 358.279 305.585 357.459C299.825 353.351 296.279 347.496 293.378 341.206C291.979 338.17 290.622 335.114 289.263 332.095C289.1 331.733 288.797 331.449 288.427 331.303C284.532 329.76 283.38 328.775 282.269 326.142C282.029 325.573 281.488 325.181 280.87 325.175C274.797 325.112 268.756 325.722 262.94 327.737C252.517 331.344 242.077 334.916 231.803 338.904C220.354 343.352 208.505 344.253 196.578 342.816C185.158 341.438 173.87 338.958 162.516 337.032C158.708 336.388 154.852 336.007 151.025 335.428C150.076 335.285 149.133 334.916 148.261 334.492C141.385 331.142 134.591 327.612 127.649 324.404C120.122 320.928 114.307 323.409 111.52 331.124C110.374 334.296 109.693 337.629 108.583 340.812C106.887 345.672 105.114 350.519 103.162 355.277C101.818 358.559 99.2952 360.285 95.5903 360.844C94.6768 360.982 93.9229 360.191 93.9984 359.27C94.2483 356.224 94.4161 353.28 94.9127 350.394C95.9753 344.235 97.7661 338.177 98.4168 331.982C99.0615 325.794 98.7451 319.497 98.6735 313.255C98.6615 312.349 97.8258 311.299 97.1154 310.572C92.0235 305.397 86.9316 300.221 81.7144 295.177C76.1927 289.835 70.8262 284.314 67.1371 277.565C63.7823 271.43 58.5411 270.553 52.7329 271.686C43.3848 273.511 34.1501 275.884 24.8677 278.042C22.5478 278.582 20.2436 279.185 17.9356 279.763C17.6492 279.834 17.3511 279.701 17.2136 279.439V279.439C17.0859 279.196 17.1268 278.899 17.3149 278.7C18.4226 277.525 19.4571 276.418 20.701 275.383C27.727 269.54 34.9142 263.882 41.8566 257.943C45.9994 254.396 49.8616 250.508 53.694 246.621C54.464 245.84 54.9475 244.343 54.8699 243.222C52.9478 215.45 59.4067 189.389 70.9515 164.378C75.8045 153.86 80.8437 143.427 85.9319 132.69C86.1939 132.137 86.7673 131.815 87.3763 131.758C91.5415 131.369 92.2182 127.046 93.9159 123.882C95.0275 121.81 95.8551 119.586 96.7642 117.26C97.1499 116.273 98.407 116.002 99.1754 116.732C99.7264 117.255 100.264 117.766 100.829 118.304C101.421 118.867 102.354 118.859 102.957 118.309C104.394 116.997 105.862 115.771 106.917 114.259C111.239 108.082 115.489 101.846 119.423 95.4244C121.238 92.4611 123.256 90.6009 126.73 89.6291C138.306 86.3909 149.772 82.7775 161.192 79.3229C161.552 79.2138 161.911 79.0039 162.073 78.6638C162.093 78.6218 162.106 78.5809 162.11 78.5393C162.958 71.7066 163.513 71.1342 170.426 70.0014C177.786 68.797 182.424 64.8619 183.666 57.421C184.902 49.998 185.266 42.426 185.988 34.9136C186.591 28.5876 187.039 22.2438 187.785 15.9357C188.229 12.1729 189.241 10.3068 191.645 8.76379C192.359 8.30562 193.293 8.62945 193.68 9.38411C194.967 11.8897 196.382 14.3509 197.234 16.9911C199.64 24.4498 201.55 32.0636 203.89 39.5462C205.902 45.9735 208.021 52.3829 210.457 58.6612C213.716 67.0739 220.384 70.6393 229.135 70.7884C232.52 70.848 235.904 70.9672 239.283 70.8182C243.42 70.6393 247.264 71.5456 250.577 73.9186C259.537 80.3459 268.581 86.6718 277.201 93.5343C283.662 98.6819 289.568 104.529 295.994 110.371C296.379 110.721 296.916 110.835 297.428 110.749C300.534 110.232 303.294 111.812 306.077 113.715C306.691 114.134 306.898 114.942 306.572 115.609C305.713 117.373 304.86 119.12 303.967 120.954C303.579 121.752 303.962 122.708 304.77 123.075C311.172 125.98 315.693 131.059 320.712 135.497C322.497 137.071 324.413 138.508 326.305 139.956C329.869 142.687 333.814 143.253 338.148 142.162C346.529 140.052 354.904 137.911 363.345 136.081C369.892 134.66 376.089 133.875 382.977 134.827C383.018 134.833 383.058 134.847 383.092 134.87V134.87ZM205.994 316.949C205.996 316.947 205.999 316.946 206.002 316.946C212.859 316.946 219.717 317.023 226.574 316.898C228.407 316.862 230.424 316.594 232.03 315.783C240.626 311.448 249.276 307.197 257.591 302.368C266.169 297.389 266.891 294.915 264.348 285.214C262.056 276.48 257.824 268.58 253.347 260.853C248.052 251.707 243.921 242.34 243.659 231.513C243.521 225.831 241.886 220.381 239.181 215.283C236.788 210.77 233.081 208.635 228.084 208.57C214.265 208.391 200.732 210.043 187.57 214.496C153.544 226.021 132.818 254.008 132.245 288.953C132.108 297.383 135.761 303.107 143.134 306.446C148.273 308.777 153.628 310.715 159.024 312.373C174.334 317.076 190.14 317.512 205.987 316.952C205.99 316.952 205.993 316.95 205.994 316.949V316.949ZM84.579 226.941C84.5794 226.94 84.5803 226.939 84.5812 226.939C85.9713 226.826 86.9499 226.82 87.8987 226.665C99.9808 224.692 111.239 220.274 122.115 214.872C125.56 213.161 128.783 210.943 131.911 208.683C133.105 207.819 134.114 206.31 134.568 204.891C143.683 176.565 152.709 148.208 161.74 119.858C161.834 119.562 161.907 119.261 161.974 118.95C162.148 118.14 161.621 117.324 160.798 117.237C157.521 116.891 154.672 117.972 151.944 119.583C141.385 125.826 131.559 133.076 122.623 141.465C109.526 153.753 98.4526 167.508 91.8863 184.482C86.6584 197.995 84.7478 212.044 84.5739 226.94C84.5738 226.942 84.5777 226.943 84.579 226.941V226.941ZM305.815 180.455C305.816 180.456 305.816 180.458 305.814 180.458C304.855 180.458 303.966 180.327 303.126 180.482C298.834 181.245 294.506 181.883 290.28 182.938C281.194 185.21 272.455 188.447 264.307 193.14C259.746 195.769 258.928 197.498 259.842 202.631C260.17 204.486 260.504 206.358 261.095 208.141C264.754 219.248 268.139 230.463 272.3 241.38C275.929 250.902 280.394 260.113 284.65 269.385C285.189 270.554 286.085 271.558 287.081 272.683C287.792 273.486 289.113 273.371 289.628 272.43C294.273 263.941 297.755 255.771 299.95 247.056C305.358 225.598 306.224 203.723 306.033 181.746C306.033 181.377 305.914 181.003 305.813 180.457C305.813 180.455 305.814 180.454 305.815 180.455V180.455ZM164.468 194.088C164.468 194.091 164.471 194.094 164.474 194.094C165.098 194.178 165.568 194.296 166.038 194.296C175.697 194.302 185.29 193.634 194.685 191.196C201.073 189.538 207.132 187.136 212.63 183.415C216.916 180.512 218.891 176.529 218.133 171.425C217.638 168.104 217.059 164.729 215.978 161.569C210.666 146.086 202.261 132.116 194.106 118.033C192.859 115.875 190.698 115.94 189.361 118.033C188.674 119.112 188.113 120.305 187.689 121.515C185.684 127.221 183.636 132.915 181.798 138.674C176.115 156.525 170.521 174.412 164.904 192.281C164.731 192.823 164.636 193.396 164.468 194.087C164.468 194.087 164.468 194.088 164.468 194.088V194.088ZM224.377 112.862C224.377 112.861 224.375 112.86 224.374 112.861L223.669 113.599C223.565 113.708 223.529 113.866 223.576 114.01C227.709 126.739 231.663 139.533 236.065 152.173C237.713 156.907 240.25 161.367 242.691 165.779C244.918 169.809 248.458 171.288 253.204 170.859C264.929 169.805 274.521 163.688 284.428 158.75C284.88 158.525 285.196 158.091 285.241 157.589C285.615 153.382 284.421 149.924 282 146.873C280.335 144.78 278.657 142.633 276.669 140.869C263.537 129.189 248.655 120.382 232.114 114.45C229.661 113.568 226.963 113.377 224.379 112.864C224.378 112.864 224.377 112.863 224.377 112.862V112.862ZM105.935 281.417C106.307 281.253 106.568 280.916 106.679 280.526C109.284 271.391 111.892 262.362 114.397 253.299C114.719 252.137 114.812 250.913 114.928 249.561C115.008 248.62 114.237 247.806 113.295 247.879C105.503 248.486 98.4147 249.975 92.4951 255.046C90.2387 256.977 88.3643 259.511 88.9195 262.546C90.2745 269.987 93.4562 276.486 100.094 280.767C101.889 281.924 103.781 282.365 105.935 281.417Z" fill="white"/>
</mask>
<g mask="url(#mask0_2489_28590)">
<path d="M153.917 295.638C153.585 300.237 152.365 305.003 153.086 309.38C154.914 320.463 146.658 319.576 140.507 320.186C133.802 320.851 128.206 327.556 120.78 323.732C121.113 323.289 121.39 322.901 121.722 322.458C130.422 316.473 135.132 305.612 146.658 302.675C148.874 302.177 148.764 295.527 153.917 295.638Z" fill="#FEDAA5"/>
<path d="M13.5596 187.47C13.5596 125.345 13.5596 63.2205 13.5068 1.09583C13.5068 -0.697245 13.876 -1.06641 15.6691 -1.06641C140.077 -1.01367 264.537 -1.01367 388.944 -1.06641C390.737 -1.06641 391.107 -0.697245 391.107 1.09583C391.054 125.503 391.054 249.964 391.107 374.371C391.107 376.164 390.737 376.533 388.944 376.533C264.537 376.481 140.077 376.481 15.6691 376.533C13.876 376.533 13.5068 376.164 13.5068 374.371C13.5596 312.036 13.5596 249.753 13.5596 187.47ZM16.9875 204.609C16.9875 258.665 16.9348 312.721 16.9348 366.724C17.9895 368.781 14.1397 373.158 19.2025 373.158C129.74 373.264 240.278 373.264 350.815 373.211C351.765 373.211 353.61 371.892 353.505 371.576C351.554 362.98 356.933 363.56 362.576 363.824C368.693 364.14 374.864 363.771 381.034 363.929C383.249 363.982 383.776 363.349 383.776 361.134C383.671 336.137 383.723 311.192 383.723 286.194C383.671 192.533 383.671 98.871 383.618 5.20935C383.196 4.84018 382.827 4.20733 382.405 4.20733C371.066 4.20733 359.781 4.20733 348.442 4.36555C347.862 4.36555 346.754 6.15862 346.754 7.05515C346.649 38.8558 346.755 70.6037 347.176 102.352C347.282 109.946 343.116 112.952 337.156 114.745C335.152 115.272 333.359 115.536 331.355 116.063C323.708 116.063 315.798 113.69 312.581 125.081C310.524 132.201 303.879 138.002 299.291 144.383C297.129 145.965 295.177 147.97 292.804 149.077C281.887 154.351 271.551 146.124 259.896 147.759C247.028 149.552 238.574 153.084 238.152 166.638C238.152 167.271 244.701 180.277 232.577 172.821C232.05 172.505 231.312 172.809 230.627 172.809C221.82 166.955 211.272 172.967 202.254 168.537C201.885 167.851 201.516 167.166 201.094 166.48C201.147 162.947 201.463 159.414 201.147 155.933C200.672 151.028 201.357 148.233 207.475 149.288C211.114 149.921 217.02 151.134 218.339 147.126C223.138 132.623 230.363 119.386 236.586 105.621C240.172 97.658 231.892 90.0111 230.89 81.8895C229.888 74.0844 223.454 67.4395 225.933 59.107C229.414 47.6102 237.694 38.9613 244.391 29.3631C245.077 28.6775 245.762 27.9919 246.501 27.2536C252.249 18.7101 258.947 11.3269 269.283 8.26811C270.865 7.42431 274.346 8.9537 273.819 5.63124C273.397 2.78342 270.391 4.26007 268.703 4.26007C187.909 4.31281 107.116 4.47102 26.2693 3.99638C16.8293 3.94365 15.3526 7.21336 16.882 14.8603C16.882 75.9829 16.882 137.158 16.882 198.281C16.9348 200.39 16.9875 202.5 16.9875 204.609ZM296.548 50.2471C296.443 50.2471 296.338 50.2471 296.179 50.2471C296.179 36.3771 296.179 22.5072 296.179 8.63728C296.179 7.10789 296.865 5.15661 293.964 5.20935C291.064 5.26208 291.908 7.31884 291.908 8.74275C291.697 35.797 291.538 62.8513 291.327 89.9056C291.327 92.9116 292.593 94.8629 295.336 95.9177C295.546 96.0231 296.496 95.1266 296.496 94.7575C296.548 79.8855 296.548 65.0663 296.548 50.2471Z" fill="#FCE8EC"/>
<path d="M383.522 5.31445C383.575 98.9761 383.575 192.638 383.628 286.299C383.628 311.297 383.628 336.242 383.681 361.239C383.681 363.401 383.153 364.087 380.938 364.034C374.768 363.876 368.65 364.192 362.48 363.929C356.784 363.665 351.405 363.085 353.409 371.681C353.515 372.05 351.669 373.316 350.72 373.316C240.182 373.369 129.645 373.369 19.1069 373.263C14.0442 373.263 17.8412 368.886 16.8392 366.829C17.4193 366.249 17.9995 365.669 18.5268 365.089C24.2752 358.708 30.0236 352.326 35.7192 345.945C56.1286 345.629 76.5907 345.523 97.0001 344.574C99.3733 344.469 99.9006 352.116 102.801 345.682C103.803 343.467 105.649 341.674 107.073 339.67C106.756 341.146 105.702 343.045 106.229 344.047C107.811 346.947 109.024 343.678 109.815 343.097C114.931 338.984 119.308 343.625 123.58 344.68C126.375 345.365 128.221 350.217 130.33 353.276C132.176 355.965 133.758 358.866 135.446 361.661C135.551 359.341 135.762 357.02 135.815 354.752C135.868 352.643 135.604 350.533 135.868 348.424C136.711 341.779 135.287 335.556 143.778 330.546C150.581 326.538 160.76 321.264 158.914 309.082C158.123 303.914 158.914 298.534 159.019 293.208C164.293 289.411 169.619 285.561 174.893 281.764C182.329 275.383 190.925 271.269 200.207 268.421C200.471 268.421 200.735 268.421 200.998 268.421C201.42 268.263 201.895 268.052 202.317 267.894C212.759 268.949 211.546 260.352 213.392 254.393C226.84 249.278 242.133 259.14 255.054 249.119C258.64 246.324 263.439 244.848 266.34 241.631C271.192 236.251 276.254 232.191 283.69 230.925C287.804 230.239 294.449 232.929 295.609 227.655C296.822 222.171 294.66 216 293.974 210.094C296.506 206.929 298.984 203.818 301.516 200.654C303.625 194.114 307.897 199.124 311.061 199.019C321.661 198.544 323.349 188.841 328.306 182.723C337.43 171.437 342.915 157.989 347.397 144.488C351.669 131.779 347.661 118.331 347.661 105.146C347.714 72.8183 347.661 40.543 347.714 8.21501C347.714 7.37121 348.136 6.47467 348.346 5.63088C348.979 5.9473 349.612 6.21099 350.192 6.52741C349.77 6.68563 349.296 6.84384 348.874 7.00205C349.032 7.16026 349.138 7.31847 349.296 7.52942C349.559 7.213 349.876 6.89658 350.14 6.52741C361.373 6.00004 372.447 5.63088 383.522 5.31445Z" fill="#F18928" stroke="#F18928" stroke-width="0.755388"/>
<path d="M16.7871 198.281C16.7871 137.159 16.7871 75.9834 16.7871 14.8608C17.0508 14.8608 17.3672 14.808 17.6309 14.808C49.6952 14.808 81.7596 15.1244 113.824 14.5971C122.578 14.4389 128.643 16.8648 134.497 23.246C140.087 29.2581 147.154 33.899 153.588 39.12C159.284 44.13 156.647 51.5132 156.488 56.8397C156.067 72.1863 156.067 87.7966 151.109 102.774C149.896 106.518 150.055 110.79 148.789 114.534C146.152 122.445 150.898 131.252 144.834 138.952C139.982 145.122 136.554 152.453 132.493 159.256C128.907 165.004 123.686 169.856 123 177.134C122.631 177.239 122.262 177.292 121.893 177.397C114.088 175.868 104.753 184.359 98.3719 173.653C98.3719 173.653 97.95 173.811 97.8972 173.917C95.9987 179.876 89.7757 180.087 85.7149 181.142C67.7842 185.835 49.2206 185.624 30.9207 184.306C19.1076 183.462 15.3632 187.154 17.5254 198.229C17.3145 198.281 17.0508 198.281 16.7871 198.281Z" fill="#80C9C1" stroke="#80C9C1" stroke-width="0.755388"/>
<path d="M132.545 159.203C136.606 152.4 140.034 145.069 144.885 138.899C150.95 131.199 146.204 122.392 148.841 114.481C150.106 110.737 149.896 106.518 151.161 102.721C156.066 87.7962 156.066 72.1332 156.54 56.7867C156.699 51.4074 159.283 44.0769 153.64 39.0669C161.34 42.6003 171.676 38.2231 177.319 48.8233C182.065 57.7359 189.027 46.5556 195.091 48.6651C196.199 45.0789 199.258 42.6003 199.363 38.1176C199.469 34.5842 200.471 26.8318 204.742 27.9393C217.98 31.42 231.217 27.1482 244.243 29.5214C237.545 39.1196 229.213 47.7686 225.785 59.2653C223.306 67.5451 229.74 74.2427 230.742 82.0479C231.744 90.1694 240.024 97.8163 236.438 105.78C230.215 119.544 222.99 132.834 218.19 147.284C216.872 151.292 210.965 150.079 207.327 149.446C201.156 148.391 200.523 151.134 200.998 156.091C201.314 159.572 200.998 163.105 200.945 166.639C193.509 166.269 186.073 166.111 178.69 165.426C176.475 165.215 174.366 163.738 172.203 162.842C173.258 160.732 172.256 157.41 175.842 156.724C176.211 156.671 176.844 155.353 176.686 155.089C174.629 152.241 172.467 149.499 170.252 146.809C170.199 146.757 168.934 147.442 168.459 147.97C158.861 159.044 147.892 166.164 132.545 159.203Z" fill="#95C7DB" stroke="#95C7DB" stroke-width="0.755388"/>
<path d="M244.296 29.5217C231.27 27.2013 218.032 31.4203 204.795 27.9396C200.471 26.8321 199.522 34.5845 199.416 38.1179C199.258 42.6006 196.252 45.0792 195.144 48.6654C189.08 46.5559 182.118 57.7362 177.372 48.8236C171.729 38.2234 161.392 42.6006 153.693 39.0672C147.259 33.8462 140.139 29.2053 134.602 23.1932C128.748 16.812 122.63 14.3861 113.929 14.5443C81.759 15.1244 49.6947 14.808 17.6303 14.808C19.3179 11.8547 13.9387 5.47346 20.7418 5.42072C100.323 5.15704 179.956 5.20977 259.537 5.42072C262.754 5.42072 265.918 7.37201 269.135 8.42676C258.798 11.4328 252.101 18.8688 246.352 27.4122C245.667 28.0978 244.981 28.7834 244.296 29.5217Z" fill="#87ADD4" stroke="#87ADD4" stroke-width="0.755388"/>
<path d="M234.696 227.708C235.224 222.276 237.861 219.587 243.609 219.165C249.621 218.743 245.824 213.047 247.406 209.989C251.045 202.869 253.524 195.011 253.154 186.679C255.475 185.835 257.953 185.307 260.01 184.042C267.183 179.612 272.298 172.914 281.527 170.383C286.59 168.959 291.758 169.328 296.505 167.693C305.206 164.687 304.784 155.247 308.634 148.76C313.38 144.963 315.543 139.742 318.285 134.469C320.816 129.669 316.967 120.493 326.618 120.019C329.465 119.86 330.52 118.436 330.995 116.01C332.999 115.483 335.046 114.996 337.05 114.469C341.796 137.779 331.944 156.776 314.857 169.803C303.044 178.768 303.413 189.263 301.515 200.549C298.983 203.713 296.505 206.824 293.973 209.989C291.284 215.104 286.484 212.52 282.582 212.995C279.101 213.416 275.621 212.414 272.404 215.104C261.592 224.228 249.041 228.816 234.696 227.708Z" fill="#FEDAA5" stroke="#FEDAA5" stroke-width="0.755388"/>
<path d="M308.795 148.673C304.945 155.16 305.293 164.632 296.591 167.691C291.844 169.326 286.654 168.943 281.591 170.367C272.362 172.899 267.233 179.614 260.061 184.044C258.004 185.31 255.431 185.847 253.164 186.691C245.622 182.103 238.084 177.375 230.49 172.787C231.176 172.787 232.072 172.47 232.547 172.787C244.255 180.012 237.979 167.249 237.979 166.617C238.401 153.063 246.944 149.53 259.759 147.737C271.414 146.102 281.698 154.329 292.668 149.055C295.041 147.895 296.992 145.943 299.154 144.361C302.371 145.785 305.631 147.249 308.795 148.673Z" fill="#FFF1CF" stroke="#FFF1CF" stroke-width="0.755388" stroke-linejoin="bevel"/>
<path d="M213.373 254.263C211.471 260.286 212.739 268.844 202.279 267.788C202.053 267.167 201.102 267.831 200.958 268.369C200.694 268.369 200.297 268.181 200.033 268.181C198.448 238.015 199.743 207.826 194.777 177.872C195.2 173.171 198.158 170.423 202.173 168.469C211.207 172.959 221.773 166.937 230.596 172.748C238.15 177.344 245.553 182.079 253.161 186.675C253.53 195.022 251.199 202.702 247.554 209.887C245.969 212.951 249.773 218.656 243.75 219.079C237.992 219.449 235.35 222.196 234.822 227.637C227.584 236.513 220.452 245.388 213.373 254.263Z" fill="#A29EA1" stroke="#A29EA1" stroke-width="0.755388"/>
<path d="M16.7871 198.281C17.0508 198.281 17.3145 198.229 17.5782 198.229C49.9589 199.389 82.3397 200.918 114.668 197.227C105.28 209.198 95.9987 219.165 77.8043 217.583C58.1332 215.896 38.093 218.216 18.2638 218.849C17.7891 214.103 17.3672 209.356 16.8926 204.61C16.8398 202.5 16.7871 200.391 16.7871 198.281Z" fill="#797AAA" stroke="#797AAA" stroke-width="0.755388"/>
<path d="M301.516 200.548C303.414 189.263 303.045 178.768 314.858 169.802C331.945 156.776 341.807 137.791 337.008 114.481C342.967 112.688 346.87 110.104 346.764 102.51C346.342 70.7616 346.606 38.961 346.659 7.21305C346.659 6.26378 347.714 4.52345 348.346 4.52345C359.685 4.3125 370.971 4.3125 382.309 4.36524C382.731 4.36524 383.1 4.99808 383.522 5.36725C372.447 5.68367 361.373 6.05283 350.298 6.36926C349.665 6.05283 349.032 5.78915 348.452 5.47272C348.241 6.31652 347.819 7.21305 347.819 8.05685C347.766 40.3849 347.819 72.6602 347.766 104.988C347.714 118.12 351.774 131.621 347.503 144.33C342.967 157.831 337.535 171.279 328.412 182.565C323.454 188.682 321.767 198.439 311.167 198.861C307.897 199.019 303.625 194.009 301.516 200.548Z" fill="#F8B570"/>
<path d="M202.328 168.411C198.373 170.362 195.248 173.336 194.774 178.03C192.664 179.454 190.502 180.931 188.392 182.355C177.845 182.038 167.35 181.669 156.803 181.352C154.693 181.036 152.584 180.667 150.474 180.35C141.773 175.34 132.227 177.819 123.051 177.081C123.736 169.803 128.957 164.951 132.544 159.203C147.89 166.111 158.807 158.992 168.51 147.917C168.985 147.39 170.251 146.704 170.303 146.757C172.518 149.446 174.681 152.189 176.737 155.037C176.896 155.3 176.316 156.566 175.894 156.671C172.308 157.357 173.362 160.679 172.255 162.789C174.417 163.685 176.526 165.162 178.741 165.373C186.125 166.006 193.77 166.105 201.206 166.474C201.575 167.16 201.959 167.725 202.328 168.411Z" fill="#87ADD4"/>
<path d="M296.646 50.1859C296.646 65.0667 296.567 80.3561 296.514 95.2369C296.514 95.6605 295.561 96.5079 295.349 96.4019C292.648 95.3428 291.324 93.4364 291.324 90.3649C291.536 63.1981 291.625 36.0056 291.837 8.83886C291.837 7.40903 291.038 5.23364 293.951 5.18068C296.811 5.12772 296.264 7.09502 296.317 8.63076C296.317 22.5583 296.275 36.2054 296.275 50.1329C296.381 50.1859 296.487 50.1859 296.646 50.1859Z" fill="#DDC4E0"/>
<path d="M308.635 148.813C305.471 147.389 302.201 145.702 299.037 144.278C303.625 137.897 310.165 132.148 312.221 125.029C315.491 113.69 323.849 115.947 331.443 115.894C330.968 118.32 329.572 119.913 326.724 120.019C317.073 120.493 321.081 129.722 318.55 134.521C315.86 139.848 313.382 145.016 308.635 148.813Z" fill="#F8C9D1" stroke="#F8C9D1" stroke-width="0.755388"/>
<path d="M269.135 8.42591C265.918 7.37116 262.753 5.41987 259.536 5.41987C179.956 5.26166 100.322 5.15619 20.7414 5.41987C13.9383 5.41987 19.2648 11.8011 17.6299 14.8071C17.3662 14.8071 17.0498 14.8599 16.7861 14.8599C15.204 7.21295 16.6807 3.94323 26.1206 3.99597C106.914 4.4706 187.761 4.25965 268.554 4.36513C270.295 4.36513 273.248 2.88848 273.67 5.7363C274.25 9.1115 270.769 7.58211 269.135 8.42591Z" fill="#95C7DB" stroke="#95C7DB" stroke-width="0.755388"/>
<path d="M16.8398 204.609C17.3145 209.356 17.7364 214.102 18.211 218.848C18.0001 222.065 17.5782 225.282 17.5782 228.499C17.5254 273.01 17.5254 317.52 17.5782 362.031C17.5782 363.033 18.1583 364.035 18.4747 365.037C17.8946 365.617 17.3145 366.197 16.7871 366.777C16.7871 312.721 16.8398 258.665 16.8398 204.609Z" fill="#9B8BC1"/>
<path d="M244.297 29.5216C244.982 28.836 245.668 28.1504 246.406 27.4121C245.668 28.0977 244.982 28.7833 244.297 29.5216Z" fill="#95C7DB"/>
<path d="M18.4732 365.037C18.1568 364.035 17.5767 363.033 17.5767 362.031C17.5239 317.521 17.5239 273.011 17.5767 228.5C17.5767 225.283 17.9986 222.066 18.2095 218.849C38.0915 218.269 58.079 215.896 77.75 217.584C95.9444 219.166 105.226 209.198 114.613 197.227C114.877 197.174 115.194 197.121 115.457 197.016C119.149 195.645 120.889 197.754 124.106 199.653C136.605 206.931 150.211 203.186 162.183 197.385C170.199 193.535 175.683 195.803 178.478 201.762C185.756 217.531 182.592 234.881 184.491 251.494C186.653 270.163 175.367 265.68 165.716 265.733C159.282 265.785 152.901 265.838 146.467 265.68C145.096 265.627 143.514 265.047 142.459 264.151C135.339 258.455 126.954 265.364 119.676 261.777C111.871 257.928 106.65 267.631 99.4778 265.522C97.2629 264.889 95.628 260.617 93.7295 260.67C82.3382 260.881 70.8414 260.934 61.1905 268.844C57.0242 272.272 50.0102 273.011 49.6937 279.866C49.1664 290.467 49.2718 301.12 49.3246 311.72C49.3773 321.476 49.4828 321.476 55.073 323.48C55.3894 323.586 55.4683 324.386 55.6265 324.861C48.9816 331.875 42.3632 338.88 35.7183 345.841C29.97 352.275 24.2216 358.656 18.4732 365.037Z" fill="#6E5EA6" stroke="#6E5EA6" stroke-width="0.755388"/>
<path d="M55.6001 324.903C55.4419 324.429 55.3892 323.638 55.0727 323.532C49.4826 321.528 49.3771 321.581 49.3244 311.772C49.2716 301.172 49.2189 290.519 49.6935 279.918C50.01 273.063 57.024 272.324 61.1903 268.896C70.8412 260.986 82.338 260.88 93.7293 260.722C95.5751 260.669 97.2627 264.941 99.4776 265.574C106.65 267.683 111.871 257.98 119.676 261.83C126.901 265.416 135.339 258.507 142.459 264.203C143.513 265.046 145.095 265.679 146.467 265.732C152.901 265.89 159.282 265.838 165.716 265.785C175.367 265.732 186.6 270.215 184.49 251.546C182.592 234.933 185.756 217.583 178.478 201.814C175.736 195.855 170.198 193.587 162.182 197.437C150.211 203.238 136.605 206.983 124.106 199.705C120.889 197.806 119.149 195.697 115.457 197.068C117.619 190.529 119.775 183.889 121.937 177.35C122.306 177.244 122.687 177.186 123.056 177.08C132.232 177.818 141.769 175.327 150.471 180.337C152.581 180.653 154.705 181.028 156.814 181.344C158.238 183.77 185.77 184.584 188.364 182.366C190.473 180.942 192.671 179.417 194.781 177.993C199.738 207.895 198.518 238.309 200.101 268.422C190.819 271.217 182.17 275.33 174.787 281.764C165.927 281.395 156.856 281.922 148.207 280.393C135.866 278.231 126.374 283.557 116.828 289.622C112.873 292.101 108.548 292.734 104.382 291.521C90.0904 287.46 77.0642 296.162 77.8026 310.612C78.3299 320.315 77.0642 326.064 65.462 322.794C63.0888 322.108 60.1883 323.216 57.5514 323.479C56.9186 323.901 56.233 324.376 55.6001 324.903Z" fill="#797AAA" stroke="#797AAA" stroke-width="0.755388"/>
<path d="M57.6045 323.426C60.2414 323.162 63.1419 322.054 65.5151 322.74C77.1701 326.01 78.383 320.314 77.8557 310.558C77.1173 296.108 90.0907 287.406 104.435 291.467C108.602 292.68 112.926 292.047 116.881 289.568C126.427 283.556 135.92 278.177 148.26 280.339C156.909 281.869 165.98 281.341 174.84 281.71C169.566 285.507 164.24 289.357 158.966 293.154C157.12 294.262 155.327 295.369 153.481 296.424C148.629 296.319 148.682 302.647 146.52 303.174C135.55 305.97 131.068 316.306 122.788 322.002C121.944 320.472 121.364 320.05 119.36 321.158C116.248 322.846 112.662 324.375 109.182 324.533C93.255 325.219 77.381 325.43 61.4543 325.588C60.1359 325.641 58.8702 324.164 57.6045 323.426Z" fill="#A29EA1" stroke="#A29EA1" stroke-width="0.755388"/>
<path d="M234.698 227.708C249.043 228.868 261.595 224.227 272.458 215.104C275.675 212.414 279.156 213.416 282.637 212.994C286.539 212.52 291.338 215.104 294.028 209.988C294.714 215.895 296.823 222.065 295.663 227.55C294.503 232.876 287.858 230.134 283.744 230.82C276.308 232.085 271.246 236.093 266.394 241.525C263.44 244.795 258.641 246.272 255.108 249.014C242.187 259.087 226.893 249.172 213.445 254.288C220.459 245.428 227.579 236.568 234.698 227.708Z" fill="#F8B570"/>
<path d="M57.6051 323.428C58.9006 324.194 60.1832 325.635 61.4489 325.582C77.3756 325.371 93.3023 325.165 109.176 324.532C112.657 324.374 116.233 322.861 119.345 321.12C121.349 320.013 122.008 320.444 122.852 321.973C122.535 322.395 122.208 322.848 121.892 323.27C116.935 328.702 112.03 334.186 107.073 339.618C105.596 341.622 103.803 343.415 102.801 345.63C99.9005 352.064 99.4259 344.417 96.9999 344.523C76.5906 345.525 56.0891 345.56 35.6797 345.876C42.3246 338.862 48.937 331.86 55.5819 324.898C56.2147 324.371 56.9195 323.903 57.6051 323.428Z" fill="#B59259" stroke="#B59259" stroke-width="0.755388"/>
<path d="M107.073 339.563C112.03 334.131 116.935 328.647 121.892 323.215C128.959 326.853 134.285 320.472 140.667 319.839C146.52 319.259 154.378 320.103 152.638 309.556C151.952 305.337 153.113 300.854 153.429 296.477C155.275 295.369 157.068 294.262 158.914 293.207C158.861 298.481 158.017 303.913 158.808 309.081C160.654 321.263 150.476 326.537 143.673 330.545C135.182 335.555 136.606 341.778 135.762 348.423C135.498 350.48 135.762 352.642 135.709 354.752C135.657 357.072 135.446 359.392 135.34 361.66C133.653 358.865 132.07 355.965 130.225 353.275C128.115 350.163 126.269 345.364 123.474 344.679C119.202 343.624 114.825 339.036 109.71 343.097C108.971 343.677 107.758 346.946 106.124 344.046C105.702 342.991 106.756 341.093 107.073 339.563Z" fill="#F8B570"/>
<path d="M121.944 177.344C119.782 183.883 117.673 190.476 115.51 197.015C115.247 197.068 114.93 197.12 114.666 197.226C82.3385 200.97 49.9577 199.388 17.5769 198.228C15.4147 187.206 19.2118 183.514 30.9722 184.305C49.2721 185.571 67.8357 185.782 85.7664 181.141C89.8272 180.086 96.0502 179.823 97.9487 173.916C98.0015 173.758 98.4234 173.652 98.4234 173.652C104.805 184.305 114.192 175.867 121.944 177.344Z" fill="#A29EA1" stroke="#A29EA1" stroke-width="0.755388"/>
<path d="M188.392 182.354C186.125 184.674 158.279 183.777 156.803 181.352C167.35 181.668 177.898 182.037 188.392 182.354Z" fill="#7D89C1" stroke="#7D89C1" stroke-width="0.755388"/>
<path d="M156.801 181.354C154.692 181.037 152.582 180.668 150.473 180.352C152.582 180.668 154.692 181.037 156.801 181.354Z" fill="#7D89C1"/>
</g>
</svg>
