<?xml version="1.0" encoding="utf-8" ?><svg xmlns="http://www.w3.org/2000/svg" xmlns:xlink="http://www.w3.org/1999/xlink" width="256" height="256" viewBox="0 0 256 256"><path fill="#5486B9" transform="scale(0.25 0.25)" d="M180.45 522.153C181.323 500.256 180.527 473.209 180.529 450.864L180.719 315.719L180.747 268.307C180.797 242.852 179.9 214.262 202.955 197.247C211.619 190.785 222.202 187.422 233.007 187.697C241.584 187.913 254.538 189.967 263.407 191.116L315.154 197.817C375.439 205.4 435.666 213.426 495.833 221.894L826.888 268.738C892.241 277.89 958.966 285.577 1024 295.72L1024 306.654L1024 398.131L1024 408.956L1024 451.623L1024 789.226L1024 1024L781.005 1024L441.703 1024L193.417 1024L180.535 1024C180.533 1020.28 180.501 1016.56 180.437 1012.83C180.237 1012.62 179.957 1012.45 179.838 1012.18C178.982 1010.26 179.757 826.462 179.75 805.975L179.756 777.75C179.767 774.09 180.149 766.37 179.624 763.12C179.311 763.812 179.369 763.484 179.415 764.33C179.794 771.565 179.897 778.812 179.725 786.055C179.665 789.523 179.091 793.435 179.436 796.689C179.569 797.947 179.823 797.322 179.526 799.09L178.946 799.004C177.047 794.309 178.321 651.326 178.005 634.461C177.682 617.2 177.922 576.541 178.016 556.776C178.024 554.907 178.712 550.765 179.13 548.71C180.428 549.723 179.389 555.111 179.74 556.873C179.753 552.488 179.533 523.728 180.45 522.153Z"/><path fill="#6F9AC9" transform="scale(0.25 0.25)" d="M180.45 522.153C181.323 500.256 180.527 473.209 180.529 450.864L180.719 315.719L180.747 268.307C180.797 242.852 179.9 214.262 202.955 197.247C211.619 190.785 222.202 187.422 233.007 187.697C241.584 187.913 254.538 189.967 263.407 191.116L315.154 197.817C375.439 205.4 435.666 213.426 495.833 221.894L826.888 268.738C892.241 277.89 958.966 285.577 1024 295.72L1024 306.654L1024 398.131L1024 408.956C993.793 404.519 963.564 400.235 933.314 396.103C914.242 393.564 894.507 391.587 875.605 388.822L755.243 371.399C738.314 368.923 721.352 366.676 704.362 364.656C703.979 366.247 703.315 366.976 702.049 368.107C693.215 376.008 684.353 383.848 675.74 391.996C647.887 417.824 620.487 444.138 593.555 470.925C503.526 557.591 413.971 644.75 324.895 732.395L234.141 822.647C225 831.753 215.812 840.811 206.576 849.82C203.37 852.969 196.923 860.076 193.422 862.146L193.417 1024L180.535 1024C180.533 1020.28 180.501 1016.56 180.437 1012.83C180.237 1012.62 179.957 1012.45 179.838 1012.18C178.982 1010.26 179.757 826.462 179.75 805.975L179.756 777.75C179.767 774.09 180.149 766.37 179.624 763.12C179.311 763.812 179.369 763.484 179.415 764.33C179.794 771.565 179.897 778.812 179.725 786.055C179.665 789.523 179.091 793.435 179.436 796.689C179.569 797.947 179.823 797.322 179.526 799.09L178.946 799.004C177.047 794.309 178.321 651.326 178.005 634.461C177.682 617.2 177.922 576.541 178.016 556.776C178.024 554.907 178.712 550.765 179.13 548.71C180.428 549.723 179.389 555.111 179.74 556.873C179.753 552.488 179.533 523.728 180.45 522.153Z"/><path fill="#020000" transform="scale(0.25 0.25)" d="M180.45 522.153C181.323 500.256 180.527 473.209 180.529 450.864L180.719 315.719L180.747 268.307C180.797 242.852 179.9 214.262 202.955 197.247C211.619 190.785 222.202 187.422 233.007 187.697C241.584 187.913 254.538 189.967 263.407 191.116L315.154 197.817C375.439 205.4 435.666 213.426 495.833 221.894L826.888 268.738C892.241 277.89 958.966 285.577 1024 295.72L1024 306.654L1024 398.131L1024 408.956C993.793 404.519 963.564 400.235 933.314 396.103C914.242 393.564 894.507 391.587 875.605 388.822L755.243 371.399C738.314 368.923 721.352 366.676 704.362 364.656C669.236 361.016 630.236 354.283 595.006 349.35L329.524 312.705C294.557 308.219 256.343 301.895 221.243 297.997C207.446 296.464 193.421 314.017 193.581 326.734C192.972 334.715 193.196 342.273 193.227 350.04L193.326 385.294L193.328 504.55L193.422 862.146L193.417 1024L180.535 1024C180.533 1020.28 180.501 1016.56 180.437 1012.83C180.237 1012.62 179.957 1012.45 179.838 1012.18C178.982 1010.26 179.757 826.462 179.75 805.975L179.756 777.75C179.767 774.09 180.149 766.37 179.624 763.12C179.311 763.812 179.369 763.484 179.415 764.33C179.794 771.565 179.897 778.812 179.725 786.055C179.665 789.523 179.091 793.435 179.436 796.689C179.569 797.947 179.823 797.322 179.526 799.09L178.946 799.004C177.047 794.309 178.321 651.326 178.005 634.461C177.682 617.2 177.922 576.541 178.016 556.776C178.024 554.907 178.712 550.765 179.13 548.71C180.428 549.723 179.389 555.111 179.74 556.873C179.753 552.488 179.533 523.728 180.45 522.153Z"/><path fill="#192444" transform="scale(0.25 0.25)" d="M186.53 302.999C185.824 293.646 186.152 282.719 186.31 273.165C186.542 259.085 185.384 245.423 188.372 231.533C192.829 210.817 209.358 194.782 231.289 195.476C248.05 196.325 265.707 199.856 282.579 202.171C319.169 206.951 355.719 212.037 392.224 217.431L482.25 229.816L511.643 233.734C516.429 234.378 524.278 235.275 528.777 236.361L529.477 236.944C534.423 237.907 555.991 239.762 557.698 241.696C558.073 255.265 558.189 269.767 558.339 283.3C558.44 292.402 561.955 322.522 557.237 329.114C551.86 329.882 533.317 325.23 528.229 326.312C525.292 326.324 512.61 324.339 509.248 323.855C494.579 321.634 479.896 319.51 465.199 317.484C403.429 309.379 341.716 300.848 280.064 291.89L243.496 286.646C216.581 282.779 205.269 280.256 186.53 302.999Z"/><defs><linearGradient id="gradient_0" gradientUnits="userSpaceOnUse" x1="527.61945" y1="304.5705" x2="817.01068" y2="285.92688"><stop offset="0" stop-color="#2C2735"/><stop offset="1" stop-color="#FFC154"/></linearGradient></defs><path fill="url(#gradient_0)" transform="scale(0.25 0.25)" d="M528.777 236.361C551.434 238.211 578.71 243.994 601.674 247.224C630.621 251.011 659.531 255.079 688.399 259.427C697.064 260.744 708.258 262.089 716.668 263.67C728.992 265.078 741.51 267.279 753.825 268.962C755.122 269.139 765.313 270.582 765.839 270.791C782.9 272.78 800.583 275.585 817.578 278.185C814.232 279.243 811.534 277.698 808.639 277.766C802.965 277.9 795.405 291.989 802.69 295.218C806.793 297.036 809.515 296.796 813.714 299.843L813.61 300.17L813.079 300.266C823.64 309.708 829.844 323.123 818.945 335.426C815.717 339.139 811.086 341.335 806.169 341.486C802.576 341.577 798.592 340.914 795.023 340.451C781.887 338.749 768.639 336.973 755.457 335.713C752.219 337.407 729.337 332.779 724.468 332.061C723.053 331.852 721.269 328.825 718.931 328.707L718.309 329.071C717.635 333.512 721.924 338.03 720.638 342.276C719.871 344.808 718.748 349.025 718.657 351.55C721.943 355.247 753.358 357.141 753.952 358.409L753.109 358.764C722.438 355.144 688.066 349.406 657.309 344.808L528.229 326.312C533.317 325.23 551.86 329.882 557.237 329.114C561.955 322.522 558.44 292.402 558.339 283.3C558.189 269.767 558.073 255.265 557.698 241.696C555.991 239.762 534.423 237.907 529.477 236.944L528.777 236.361Z"/><path fill="#020000" transform="scale(0.25 0.25)" d="M716.891 290.112C719.112 289.077 722.715 287.036 725.04 286.982C737.584 286.687 751.174 289.843 763.609 291.397L788.363 294.489C797.669 295.624 804.607 295.757 813.079 300.266C823.64 309.708 829.844 323.123 818.945 335.426C815.717 339.139 811.086 341.335 806.169 341.486C802.576 341.577 798.592 340.914 795.023 340.451C781.887 338.749 768.639 336.973 755.457 335.713C747.435 334.565 734.746 334.063 727.537 331.706C708.586 325.511 703.342 304.383 716.891 290.112Z"/><defs><linearGradient id="gradient_1" gradientUnits="userSpaceOnUse" x1="763.9165" y1="326.87189" x2="766.25861" y2="316.33679"><stop offset="0" stop-color="#0C0715"/><stop offset="1" stop-color="#101336"/></linearGradient></defs><path fill="url(#gradient_1)" transform="scale(0.25 0.25)" d="M737.52 296.309C756.759 299.381 776.6 300.932 795.739 304.019C795.318 308.318 794.731 310.597 793.386 314.744C792.409 318.146 787.342 326.747 785.337 330.264C779.071 328.795 770.452 327.985 763.832 326.911C758.457 326.039 748.979 324.107 743.978 323.999C744.002 317.542 742.072 308.952 740.516 302.723C739.478 300.187 738.785 298.715 737.52 296.309Z"/><path fill="#5486B9" transform="scale(0.25 0.25)" d="M737.52 296.309C756.759 299.381 776.6 300.932 795.739 304.019C795.318 308.318 794.731 310.597 793.386 314.744C783.91 310.325 764.21 307.985 753.44 305.508C749.126 304.515 744.897 304.385 740.516 302.723C739.478 300.187 738.785 298.715 737.52 296.309Z"/><path fill="#020000" transform="scale(0.25 0.25)" d="M662.652 290.504C675.542 292.302 678.963 312.059 666.026 316.538C652.019 316.661 649.979 295.449 662.652 290.504Z"/><defs><linearGradient id="gradient_2" gradientUnits="userSpaceOnUse" x1="663.4704" y1="311.05951" x2="663.88623" y2="304.27838"><stop offset="0" stop-color="#2F2318"/><stop offset="1" stop-color="#4F3C2A"/></linearGradient></defs><path fill="url(#gradient_2)" transform="scale(0.25 0.25)" d="M657.463 297.896C661.161 289.579 667.101 291.133 670.448 298.451C672.052 318.446 654.895 315.344 657.463 297.896Z"/><path fill="#8B786D" transform="scale(0.25 0.25)" d="M657.463 297.896C661.161 289.579 667.101 291.133 670.448 298.451C666.774 298.966 661.108 298.532 657.463 297.896Z"/><path fill="#C29A6D" transform="scale(0.25 0.25)" d="M813.079 300.266L813.61 300.17L813.714 299.843C809.515 296.796 806.793 297.036 802.69 295.218C795.405 291.989 802.965 277.9 808.639 277.766C811.534 277.698 814.232 279.243 817.578 278.185C827.036 278.545 844.403 282.273 854.443 283.346C858.099 283.736 877.058 286.37 880.013 287.155L880.531 287.99C895.574 290.032 914.312 292.061 928.961 294.706C928.586 295.951 929.071 294.75 928.164 295.786C923.786 300.793 922.114 307.145 921.798 313.604C921.552 318.649 921.947 322.508 921.976 327.339C922.001 331.633 920.711 333.213 921.337 337.593C921.904 341.568 925.484 344.926 925.462 347.462L923.796 348.002C919.983 356.258 917.59 364.367 919.532 373.438C920.153 376.339 921.177 378.603 921.202 381.529C918.917 382.027 914.703 380.863 912.525 380.727C905.765 380.307 878.42 374.982 873.947 376.016C871.137 375.92 863.861 374.734 860.699 374.292L830.675 369.908C804.837 366.177 778.906 363.176 753.109 358.764L753.952 358.409C753.358 357.141 721.943 355.247 718.657 351.55C718.748 349.025 719.871 344.808 720.638 342.276C721.924 338.03 717.635 333.512 718.309 329.071L718.931 328.707C721.269 328.825 723.053 331.852 724.468 332.061C729.337 332.779 752.219 337.407 755.457 335.713C768.639 336.973 781.887 338.749 795.023 340.451C798.592 340.914 802.576 341.577 806.169 341.486C811.086 341.335 815.717 339.139 818.945 335.426C829.844 323.123 823.64 309.708 813.079 300.266Z"/><path fill="#020000" transform="scale(0.25 0.25)" d="M866.039 316.077C878.499 314.502 885.935 330.67 875.769 338.269C865.268 340.331 855.375 322.706 866.039 316.077Z"/><path fill="#774C2C" transform="scale(0.25 0.25)" d="M867.557 318.136C883.786 316.838 877.235 347.902 865.759 330.97C863.519 325.932 861.674 321.196 867.557 318.136Z"/><path fill="#C29A6D" transform="scale(0.25 0.25)" d="M867.557 318.136C869.139 320.095 868.639 327.931 867.26 330.239L865.759 330.97C863.519 325.932 861.674 321.196 867.557 318.136Z"/><defs><linearGradient id="gradient_3" gradientUnits="userSpaceOnUse" x1="1022.7411" y1="346.19974" x2="919.25525" y2="344.67499"><stop offset="0" stop-color="#3D3337"/><stop offset="1" stop-color="#9B7454"/></linearGradient></defs><path fill="url(#gradient_3)" transform="scale(0.25 0.25)" d="M880.013 287.155C889.901 287.82 907.039 290.761 917.367 292.182C939.018 295.043 960.651 298.035 982.266 301.156C995.242 302.964 1011.08 305.402 1024 306.654L1024 398.131C1013.94 396.139 998.455 394.431 988.045 392.921L918.177 382.436C903.804 380.357 888.145 378.697 873.947 376.016C878.42 374.982 905.765 380.307 912.525 380.727C914.703 380.863 918.917 382.027 921.202 381.529C921.177 378.603 920.153 376.339 919.532 373.438C917.59 364.367 919.983 356.258 923.796 348.002L925.462 347.462C925.484 344.926 921.904 341.568 921.337 337.593C920.711 333.213 922.001 331.633 921.976 327.339C921.947 322.508 921.552 318.649 921.798 313.604C922.114 307.145 923.786 300.793 928.164 295.786C929.071 294.75 928.586 295.951 928.961 294.706C914.312 292.061 895.574 290.032 880.531 287.99L880.013 287.155Z"/><path fill="#020000" transform="scale(0.25 0.25)" d="M926.993 326.551C940.019 325.075 946.651 342.969 935.752 349.633C924.225 350.662 916.868 334.523 926.993 326.551Z"/><path fill="#774C2C" transform="scale(0.25 0.25)" d="M928.218 328.394C942.894 328.613 940.157 353.925 928.323 344.906C923.933 339.571 922.127 333.166 928.218 328.394Z"/><path fill="#C29A6D" transform="scale(0.25 0.25)" d="M928.218 328.394C929.737 329.069 930.48 329.012 930.891 330.738C931.791 334.512 930.205 341.639 928.323 344.906C923.933 339.571 922.127 333.166 928.218 328.394Z"/><path fill="#37466F" transform="scale(0.25 0.25)" d="M180.437 1012.83C180.237 1012.62 179.957 1012.45 179.838 1012.18C178.982 1010.26 179.757 826.462 179.75 805.975L179.756 777.75C179.767 774.09 180.149 766.37 179.624 763.12C179.311 763.812 179.369 763.484 179.415 764.33C179.794 771.565 179.897 778.812 179.725 786.055C179.665 789.523 179.091 793.435 179.436 796.689C179.569 797.947 179.823 797.322 179.526 799.09L178.946 799.004C177.047 794.309 178.321 651.326 178.005 634.461C177.682 617.2 177.922 576.541 178.016 556.776C178.024 554.907 178.712 550.765 179.13 548.71C180.428 549.723 179.389 555.111 179.74 556.873C179.753 552.488 179.533 523.728 180.45 522.153C180.937 535.166 180.552 550.133 180.536 563.261L180.501 636.7L180.954 834.557L180.491 954.151L180.515 993.511C180.519 997.514 180.816 1009.24 180.437 1012.83Z"/><path fill="#4C7EB3" transform="scale(0.25 0.25)" d="M441.703 1024C446.382 1020.59 459.688 1007.5 464.155 1003.1C475.148 992.423 486.053 981.654 496.868 970.796L595.782 872.702L874.004 599.334L985.667 489.404C997.798 477.666 1011.69 462.474 1024 451.623L1024 789.226L1024 1024L781.005 1024L441.703 1024Z"/><path fill="#5486B9" transform="scale(0.25 0.25)" d="M781.005 1024C797.965 1006.73 816.152 990.273 833.487 973.487L949.036 861.68L1008.34 805.005C1013.49 800.165 1018.81 792.853 1024 789.226L1024 1024L781.005 1024Z"/><path fill="#37466F" fill-opacity="0.98431373" transform="scale(0.25 0.25)" d="M190.146 169.184C191.574 169.471 197.198 166.618 198.911 165.768C216.45 157.071 233.521 160.49 252.501 162.682C256.198 163.468 275.384 166.249 278.896 166.348C281.903 166.746 286.001 167.172 288.891 167.741C293.299 168.411 305.185 170.368 309.42 170.389C312.869 170.816 316.414 171.3 319.861 171.661C325.789 172.89 335.403 173.81 341.621 174.529C343.699 174.78 347.836 175.158 349.68 175.717C361.051 177.627 372.459 179.307 383.897 180.758C386.751 181.131 396.01 182.459 398.658 182.353C401.231 182.708 405.571 183.188 407.985 183.744C417.761 185.392 444.64 189.499 455.779 189.852C456.062 189.861 457.545 188.136 457.919 187.694L457.646 187.143L458.411 186.778L460.921 186.828L461.573 187.547L461.311 186.952L462.055 187.324C461.725 187.559 461.835 187.517 461.679 187.551L461.466 187.913L462.334 188.072L462.401 189.674C465.268 190.169 465.493 191.641 466.348 191.721C482.803 193.255 502.973 198.479 519.25 198.456C520.578 197.692 520.176 198.232 520.626 196.57C520.726 196.187 520.824 195.804 520.918 195.42C522.222 196.062 521.816 196.192 522.698 195.978C525.995 195.174 537.762 196.535 540.801 197.479L538.004 197.759L538.523 197.586L538.213 197.912C539.73 198.114 540.548 197.986 541.65 198.805C541.099 199.49 541.471 199.159 540.416 199.645C544.896 203.325 558.158 203.152 563.872 204.281C570.687 205.627 578.192 206.205 584.97 207.765C590.078 208.702 598.285 210.067 603.436 210.489C607.578 211.058 620.23 212.599 623.955 212.182C618.12 222.366 622.454 234.28 634.489 236.061C658.548 239.619 682.742 242.538 706.857 245.714C714.88 246.723 730.922 250.383 733.511 239.795C734.498 235.758 734.343 234.034 733.189 230.138L732.983 229.457C755.267 230.056 783.585 236.353 806.421 238.67C812.887 239.691 859.684 246.99 863.366 246.232C865.65 246.488 871.576 247.013 873.435 247.661C878.574 248.93 913.026 253.938 916.936 253.483C918.03 253.664 919.169 253.833 920.253 254.049C922.012 254.372 927.876 255.215 928.919 255.592C934.573 256.815 970.112 262.156 975.098 262.048L976.536 262.333C978.882 262.648 981.356 262.876 983.605 263.559C991.441 265.25 1001.76 266.413 1009.8 267.439C1014.38 268.043 1019.44 268.821 1024 269.186L1024 295.72C958.966 285.577 892.241 277.89 826.888 268.738L495.833 221.894C435.666 213.426 375.439 205.4 315.154 197.817L263.407 191.116C254.538 189.967 241.584 187.913 233.007 187.697C222.202 187.422 211.619 190.785 202.955 197.247C179.9 214.262 180.797 242.852 180.747 268.307L180.719 315.719L180.529 450.864C180.527 473.209 181.323 500.256 180.45 522.153C179.533 523.728 179.753 552.488 179.74 556.873C179.389 555.111 180.428 549.723 179.13 548.71C178.712 550.765 178.024 554.907 178.016 556.776C177.922 576.541 177.682 617.2 178.005 634.461C178.321 651.326 177.047 794.309 178.946 799.004L179.526 799.09C179.823 797.322 179.569 797.947 179.436 796.689C179.091 793.435 179.665 789.523 179.725 786.055C179.897 778.812 179.794 771.565 179.415 764.33C179.369 763.484 179.311 763.812 179.624 763.12C180.149 766.37 179.767 774.09 179.756 777.75L179.75 805.975C179.757 826.462 178.982 1010.26 179.838 1012.18C179.957 1012.45 180.237 1012.62 180.437 1012.83C180.501 1016.56 180.533 1020.28 180.535 1024L155.355 1024C157.059 1020.68 157.764 1023.34 157.86 1017.75C158.137 1001.53 158.088 985.312 158.107 969.096L158.064 877.38L157.936 621.174C158.328 617.362 158.168 610.927 158.188 606.915C158.728 600.975 158.428 586.092 158.373 579.188C158.243 562.965 158.717 545.513 158.125 529.405C158.616 484.144 157.967 437.894 157.947 392.523C158.155 346.769 157.993 301.015 157.462 255.264C157.406 248.117 157.885 240.761 157.799 233.816C160.357 214.6 164.006 199.651 176.165 183.853C178.479 180.848 184.263 175.83 185.203 173.166C186.235 171.822 188.756 170.125 190.146 169.184Z"/><defs><linearGradient id="gradient_4" gradientUnits="userSpaceOnUse" x1="50.912624" y1="752.21741" x2="60.478416" y2="1025.4265"><stop offset="0" stop-color="#9AB9D7" stop-opacity="0.39215687"/><stop offset="1" stop-color="#97B7D8" stop-opacity="0.81176472"/></linearGradient></defs><path fill="url(#gradient_4)" transform="scale(0.25 0.25)" d="M0 753.361C2.43136 769.828 0.50973 778.475 1.80554 792.265C3.85536 792.166 4.47814 789.629 5.98701 790.112C11.7252 791.949 14.7693 791.926 20.7464 791.276C22.8673 791.045 28.355 793.43 30.874 792.844C40.9669 791.004 44.3517 794.238 53.0275 798.168C56.0127 799.52 63.3296 798.162 66.76 798.336C72.2426 798.59 74.0664 800.565 80.2544 799.823C85.6517 799.176 100.853 793.498 104.813 797.053C106.23 798.325 107.436 800.081 108.292 801.737C108.585 798.505 108.91 769.9 108.765 770.13C110.324 776.617 110.924 799.493 111.372 807.337L108.804 807.933C109.002 814.456 110.194 821.38 110.403 827.678C110.764 838.522 111.567 850.929 111.414 861.674C111.707 868.359 111.991 885.706 113.25 891.347C113.67 886.354 112.95 881.469 114.202 876.793C115.348 879.092 115.034 886.143 115.047 888.961L115.08 888.466L115.222 888.738C115.319 885.563 115.522 873.294 116.006 870.894C116.43 884.089 116.13 898.361 116.113 911.669L116.04 983.865C116.031 995.766 115.561 1012.32 116.187 1024L0 1024L0 841.812L0 753.361Z"/><path fill="#020000" transform="scale(0.25 0.25)" d="M116.359 792.733L115.941 422.026L115.946 318.113C115.92 298.175 114.993 272.864 117.414 253.392C121.109 223.679 136.333 191.433 160.851 173.163C180.243 158.765 203.691 150.868 227.842 150.602C239.039 150.475 254.418 152.909 265.58 154.489L308.226 160.318L476.507 183.39L1024 259.392L1024 264.626C1020.15 264.352 1014.53 263.388 1010.58 262.833C1002.53 261.743 992.916 260.137 984.962 259.476C983.155 259.032 978.897 258.528 976.88 258.24C972.298 257.364 967.028 256.816 962.355 256.223C958.54 255.253 932.683 251.803 928.426 251.476L920.371 250.277C919.684 249.998 912.007 248.96 910.738 248.777C898.751 247.117 883.646 244.431 871.753 243.44L862.873 242.268C859.975 241.665 856.754 241.185 853.806 240.814C839.585 239.028 825.24 236.724 810.99 235.3C808.425 234.593 790.512 232.439 786.92 231.934L729.714 223.952C730.979 225.772 731.909 227.527 732.983 229.457L733.189 230.138C734.343 234.034 734.498 235.758 733.511 239.795C730.922 250.383 714.88 246.723 706.857 245.714C682.742 242.538 658.548 239.619 634.489 236.061C622.454 234.28 618.12 222.366 623.955 212.182C625.259 211.228 625.475 211.155 626.514 209.866C625.605 208.84 624.904 209.041 623.2 208.699C611.044 207.012 595.343 204.343 583.414 203.459C579.789 202.648 572.87 201.897 568.978 201.364L540.801 197.479C537.762 196.535 525.995 195.174 522.698 195.978C521.816 196.192 522.222 196.062 520.918 195.42C517.352 193.022 472.991 189.376 466.229 187.65C465.212 187.39 463.394 187.655 462.334 188.072L461.466 187.913L461.679 187.551C461.835 187.517 461.725 187.559 462.055 187.324L461.311 186.952L461.573 187.547L460.921 186.828L458.411 186.778C454.98 186.037 451.396 185.423 447.915 184.993C434.009 183.274 419.815 180.573 405.889 179.341C405.35 179.099 403.439 178.863 402.741 178.754C387.26 176.498 362.522 172.46 347.341 171.459C346.397 171.079 340.807 170.409 339.454 170.225C331.109 168.893 322.735 167.753 314.338 166.806L314.063 166.622C307.762 166.44 293.772 164.045 286.53 163.317C286.075 163.163 283.236 162.785 282.59 162.69C268.846 161.025 254.982 158.46 241.114 156.706C222.675 154.942 204.957 156.961 190.146 169.184C188.756 170.125 186.235 171.822 185.203 173.166C184.263 175.83 178.479 180.848 176.165 183.853C164.006 199.651 160.357 214.6 157.799 233.816C156.591 230.095 159.011 223.029 158.09 221.05L157.813 221.444L158.178 221.901C157.057 222.897 156.988 223.714 156.61 225.092L156.772 225.435L157.696 224.007C157.854 225.22 156.625 229.526 155.947 230.466C154.066 233.068 155.179 238.733 154.044 240.564L153.002 240.134C152.803 246.793 153.338 254.663 153.004 260.779C154.015 276.379 153.419 296.407 153.542 312.258C153.612 321.241 154.162 340.722 153.519 349.195C153.64 353.285 154.042 373.83 153.584 377.298C154.634 394.196 153.958 418.752 153.985 436.125L154.603 527.424C154.562 532.37 154.252 550.463 155.068 554.787C155.402 577.785 154.681 601.17 154.848 624.188C154.877 628.167 154.419 647.118 154.962 649.764C154.925 653.794 154.557 665.134 154.988 668.719C154.624 688.942 154.895 709.841 154.904 730.103L154.937 841.053L154.96 967.031C155.005 985.836 154.773 1005.24 155.145 1024L151.053 1024L144.976 1024L141.975 1024C141.987 1008.86 142.576 987.815 141.578 973.254C141.332 976.975 141.768 991.575 140.603 993.391L140.429 460.25L140.439 313.834L140.413 271.27C140.408 266.031 140.097 253.645 140.772 248.869L141.552 250.933C141.475 237.738 141.755 229.703 146.137 216.887C147.336 213.38 147.713 210.564 150.218 207.525L151.123 207.586L152.358 209.319L152.938 207.661C151.573 199.981 157.583 191.86 160.598 186.28C159.877 184.709 160.002 184.733 158.541 183.858C155.683 184.725 152.474 191.409 148.691 193.026C130.266 213.132 122.492 243.965 121.531 270.8C121.267 278.171 121.464 285.958 121.469 293.36L121.517 338.826L121.571 494.424L121.588 1024L116.187 1024C115.561 1012.32 116.031 995.766 116.04 983.865L116.113 911.669C116.13 898.361 116.43 884.089 116.006 870.894C116.238 868.47 116.199 865.202 116.179 862.717C115.994 839.459 116.869 815.968 116.359 792.733ZM698.291 227.398C703.313 226.248 712.782 226.762 718.214 227.124C719.618 227.217 722.544 229.253 725.518 229.711L726.053 229.296C724.94 227.286 721.789 225.488 719.942 223.347L720.392 222.665C716.246 221.643 707.439 220.61 703.015 219.974L670.502 215.286L648.11 211.948C642.556 211.123 639.946 209.76 634.666 212.008C632.389 213.307 629.167 214.816 630.399 217.735C632.054 218.792 633.494 218.656 635.488 218.784C654.556 221.513 679.664 226.052 698.291 227.398Z"/><defs><linearGradient id="gradient_5" gradientUnits="userSpaceOnUse" x1="142.13405" y1="617.2533" x2="148.86549" y2="617.24719"><stop offset="0" stop-color="#F9F9F8"/><stop offset="1" stop-color="#E7DAD5"/></linearGradient></defs><path fill="url(#gradient_5)" transform="scale(0.25 0.25)" d="M141.552 250.933C141.475 237.738 141.755 229.703 146.137 216.887C147.336 213.38 147.713 210.564 150.218 207.525L151.123 207.586L152.358 209.319C148.194 220.693 145.663 232.6 144.84 244.684C144.189 254.278 144.545 266.963 144.552 276.766L144.598 332.443L144.768 506.301L144.976 1024L141.975 1024C141.987 1008.86 142.576 987.815 141.578 973.254C141.332 976.975 141.768 991.575 140.603 993.391L140.429 460.25L140.439 313.834L140.413 271.27C140.408 266.031 140.097 253.645 140.772 248.869L141.552 250.933Z"/><path fill="#020000" transform="scale(0.25 0.25)" d="M140.603 993.391L140.429 460.25L140.439 313.834L140.413 271.27C140.408 266.031 140.097 253.645 140.772 248.869L141.552 250.933C141.082 287.833 141.626 325.718 141.704 362.695L141.705 532.038L141.578 973.254C141.332 976.975 141.768 991.575 140.603 993.391Z"/><path fill="#37466F" transform="scale(0.25 0.25)" d="M151.589 414.773C151.201 408.05 151.58 397.458 151.576 390.506L151.553 340.358L151.494 294.004C151.421 285.274 150.008 263.928 152.583 256.677C151.821 257.982 152.021 259.663 153.004 260.779C154.015 276.379 153.419 296.407 153.542 312.258C153.612 321.241 154.162 340.722 153.519 349.195C153.64 353.285 154.042 373.83 153.584 377.298C154.634 394.196 153.958 418.752 153.985 436.125L154.603 527.424C154.562 532.37 154.252 550.463 155.068 554.787C155.402 577.785 154.681 601.17 154.848 624.188C154.877 628.167 154.419 647.118 154.962 649.764C154.925 653.794 154.557 665.134 154.988 668.719C154.624 688.942 154.895 709.841 154.904 730.103L154.937 841.053L154.96 967.031C155.005 985.836 154.773 1005.24 155.145 1024L151.053 1024C150.8 996.02 151.481 967.143 151.431 938.957L151.44 651.784L151.531 521.449C151.495 505.883 151.537 490.316 151.656 474.75C151.703 467.321 151.509 458.407 151.926 451.096C151.053 441.231 151.531 425.02 151.589 414.773Z"/><path fill="#192444" transform="scale(0.25 0.25)" d="M151.589 414.773C151.201 408.05 151.58 397.458 151.576 390.506L151.553 340.358L151.494 294.004C151.421 285.274 150.008 263.928 152.583 256.677C151.821 257.982 152.021 259.663 153.004 260.779C154.015 276.379 153.419 296.407 153.542 312.258C153.612 321.241 154.162 340.722 153.519 349.195C152.176 352.37 152.748 402.14 152.744 409.702C152.246 407.904 152.54 398.381 152.477 395.993C152.129 382.77 152.971 368.271 152.365 355.146C151.532 368.351 152.511 383.708 152.137 397.03C152.013 401.449 152.464 410.787 151.589 414.773Z"/><defs><linearGradient id="gradient_6" gradientUnits="userSpaceOnUse" x1="174.37756" y1="173.16396" x2="159.52625" y2="184.36115"><stop offset="0" stop-color="#312720"/><stop offset="1" stop-color="#634E40"/></linearGradient></defs><path fill="url(#gradient_6)" transform="scale(0.25 0.25)" d="M148.691 193.026C157.999 180.503 160.911 179.765 173.491 172.089L173.728 172.476C172.014 175.784 166.968 181.307 164.473 184.89C158.998 192.75 156.557 198.937 152.938 207.661C151.573 199.981 157.583 191.86 160.598 186.28C159.877 184.709 160.002 184.733 158.541 183.858C155.683 184.725 152.474 191.409 148.691 193.026Z"/><path fill="#A2ABCA" transform="scale(0.25 0.25)" d="M185.203 173.166C184.263 175.83 178.479 180.848 176.165 183.853C164.006 199.651 160.357 214.6 157.799 233.816C156.591 230.095 159.011 223.029 158.09 221.05L157.813 221.444L158.178 221.901C157.057 222.897 156.988 223.714 156.61 225.092L156.772 225.435L157.696 224.007C157.854 225.22 156.625 229.526 155.947 230.466C154.066 233.068 155.179 238.733 154.044 240.564L153.002 240.134C153.073 233.89 155.202 226.467 156.93 220.498C162.352 201.773 170.891 186.501 185.203 173.166Z"/><path fill="#F9F8F7" fill-opacity="0.98039216" transform="scale(0.25 0.25)" d="M634.666 212.008C639.946 209.76 642.556 211.123 648.11 211.948L670.502 215.286L703.015 219.974C707.439 220.61 716.246 221.643 720.392 222.665L719.942 223.347C721.789 225.488 724.94 227.286 726.053 229.296L725.518 229.711C722.544 229.253 719.618 227.217 718.214 227.124C712.782 226.762 703.313 226.248 698.291 227.398C679.664 226.052 654.556 221.513 635.488 218.784L636.783 218.005C638.841 217.997 642.392 218.027 644.127 216.89C635.97 214.941 640.761 216.851 634.666 212.008Z"/><path fill="#192444" transform="scale(0.25 0.25)" d="M628.828 221.691C635.835 223.218 643.892 224.034 651.082 225.23C669.674 228.322 688.411 230.237 707.038 232.757C710.472 233.222 726.608 234.868 728.15 235.443C728.195 237.212 727.82 237.131 726.696 238.962C725.183 240.009 723.481 240.548 721.622 240.405C694.149 238.295 666.691 233.534 639.4 229.66C635.239 229.069 627.663 227.363 628.828 221.691Z"/><path fill="#F9F8F7" transform="scale(0.25 0.25)" d="M720.392 222.665C723.601 223.611 729.144 227.56 728.638 231.215C726.072 231.536 702.09 228.095 698.291 227.398C703.313 226.248 712.782 226.762 718.214 227.124C719.618 227.217 722.544 229.253 725.518 229.711L726.053 229.296C724.94 227.286 721.789 225.488 719.942 223.347L720.392 222.665Z"/><path fill="#F9F8F7" fill-opacity="0.80392158" transform="scale(0.25 0.25)" d="M635.488 218.784C633.494 218.656 632.054 218.792 630.399 217.735C629.167 214.816 632.389 213.307 634.666 212.008C640.761 216.851 635.97 214.941 644.127 216.89C642.392 218.027 638.841 217.997 636.783 218.005L635.488 218.784Z"/><path fill="#8B786D" fill-opacity="0.98039216" transform="scale(0.25 0.25)" d="M148.691 193.026C152.474 191.409 155.683 184.725 158.541 183.858C160.002 184.733 159.877 184.709 160.598 186.28C157.583 191.86 151.573 199.981 152.938 207.661L152.358 209.319L151.123 207.586L150.218 207.525C147.713 210.564 147.336 213.38 146.137 216.887C141.755 229.703 141.475 237.738 141.552 250.933L140.772 248.869C140.097 253.645 140.408 266.031 140.413 271.27L140.439 313.834L140.429 460.25L140.603 993.391C140.554 993.683 140.505 993.975 140.456 994.268C139.642 999.622 140.95 1018.75 140.112 1022.67C135.743 1022.07 138.077 1023.25 134.338 1024L121.588 1024L121.571 494.424L121.517 338.826L121.469 293.36C121.464 285.958 121.267 278.171 121.531 270.8C122.492 243.965 130.266 213.132 148.691 193.026Z"/><path fill="#BAC3DA" fill-opacity="0.97647059" transform="scale(0.25 0.25)" d="M153.002 240.134L154.044 240.564C155.179 238.733 154.066 233.068 155.947 230.466C156.625 229.526 157.854 225.22 157.696 224.007L156.772 225.435L156.61 225.092C156.988 223.714 157.057 222.897 158.178 221.901L157.813 221.444L158.09 221.05C159.011 223.029 156.591 230.095 157.799 233.816C157.885 240.761 157.406 248.117 157.462 255.264C157.993 301.015 158.155 346.769 157.947 392.523C157.967 437.894 158.616 484.144 158.125 529.405C157.64 536.715 158.528 541.856 156.791 549.434C155.406 540.703 155.192 536.151 154.603 527.424L153.985 436.125C153.958 418.752 154.634 394.196 153.584 377.298C154.042 373.83 153.64 353.285 153.519 349.195C154.162 340.722 153.612 321.241 153.542 312.258C153.419 296.407 154.015 276.379 153.004 260.779C153.338 254.663 152.803 246.793 153.002 240.134Z"/><defs><linearGradient id="gradient_7" gradientUnits="userSpaceOnUse" x1="149.91904" y1="848.28229" x2="162.34052" y2="848.70947"><stop offset="0" stop-color="#B3C3D0" stop-opacity="0"/><stop offset="1" stop-color="#C7C4CF" stop-opacity="0.0078431377"/></linearGradient></defs><path fill="url(#gradient_7)" transform="scale(0.25 0.25)" d="M157.936 621.174L158.064 877.38L158.107 969.096C158.088 985.312 158.137 1001.53 157.86 1017.75C157.764 1023.34 157.059 1020.68 155.355 1024L155.145 1024C154.773 1005.24 155.005 985.836 154.96 967.031L154.937 841.053L154.904 730.103C154.895 709.841 154.624 688.942 154.988 668.719C156.676 673.704 154.27 676.194 156.645 679.26C156.847 681.494 156.746 684.469 156.736 686.769C156.649 667.852 157.581 648.738 157.654 629.794C157.664 627.008 157.564 623.92 157.936 621.174Z"/><path fill="#A2ABCA" fill-opacity="0.75686276" transform="scale(0.25 0.25)" d="M729.714 223.952L786.92 231.934C790.512 232.439 808.425 234.593 810.99 235.3C810.859 236.762 810.622 236.288 811.185 237.27L810.792 238.474C809.216 238.999 808.08 238.779 806.421 238.67C783.585 236.353 755.267 230.056 732.983 229.457C731.909 227.527 730.979 225.772 729.714 223.952Z"/><path fill="#C5D0E1" fill-opacity="0.29803923" transform="scale(0.25 0.25)" d="M155.068 554.787C155.245 554.127 155.701 552.605 155.763 552.006L156.008 553.304C156.48 553.593 156.952 553.882 157.424 554.171C157.852 571.749 158.106 589.331 158.188 606.915C158.168 610.927 158.328 617.362 157.936 621.174C157.564 623.92 157.664 627.008 157.654 629.794C157.581 648.738 156.649 667.852 156.736 686.769C156.746 684.469 156.847 681.494 156.645 679.26C156.863 676.561 155.663 651.38 154.962 649.764C154.419 647.118 154.877 628.167 154.848 624.188C154.681 601.17 155.402 577.785 155.068 554.787Z"/><path fill="#6F9AC9" fill-opacity="0.34117648" transform="scale(0.25 0.25)" d="M111.372 807.337C112.092 819.248 113.158 831.111 114.055 843.002C114.501 848.915 113.944 854.617 114.611 860.645C115.267 857.191 115.168 851.987 115.375 848.345C116.42 829.999 115.417 811.517 116.293 793.179C116.315 793.031 116.337 792.882 116.359 792.733C116.869 815.968 115.994 839.459 116.179 862.717C116.199 865.202 116.238 868.47 116.006 870.894C115.522 873.294 115.319 885.563 115.222 888.738L115.08 888.466L115.047 888.961C115.034 886.143 115.348 879.092 114.202 876.793C112.95 881.469 113.67 886.354 113.25 891.347C111.991 885.706 111.707 868.359 111.414 861.674C111.567 850.929 110.764 838.522 110.403 827.678C110.194 821.38 109.002 814.456 108.804 807.933L111.372 807.337Z"/><path fill="#A2ABCA" fill-opacity="0.80000001" transform="scale(0.25 0.25)" d="M462.334 188.072C463.394 187.655 465.212 187.39 466.229 187.65C472.991 189.376 517.352 193.022 520.918 195.42C520.824 195.804 520.726 196.187 520.626 196.57C520.176 198.232 520.578 197.692 519.25 198.456C502.973 198.479 482.803 193.255 466.348 191.721C465.493 191.641 465.268 190.169 462.401 189.674L462.334 188.072Z"/><path fill="#A2ABCA" fill-opacity="0.90588236" transform="scale(0.25 0.25)" d="M810.99 235.3C825.24 236.724 839.585 239.028 853.806 240.814C856.754 241.185 859.975 241.665 862.873 242.268L862.418 242.815L862.968 243.637C863.032 244.841 862.903 245.239 863.366 246.232C859.684 246.99 812.887 239.691 806.421 238.67C808.08 238.779 809.216 238.999 810.792 238.474L811.185 237.27C810.622 236.288 810.859 236.762 810.99 235.3Z"/><path fill="#A2ABCA" fill-opacity="0.79607844" transform="scale(0.25 0.25)" d="M347.341 171.459C362.522 172.46 387.26 176.498 402.741 178.754C401.327 179.207 398.892 180.76 398.658 182.353C396.01 182.459 386.751 181.131 383.897 180.758C372.459 179.307 361.051 177.627 349.68 175.717C351.285 175.506 351.656 175.618 352.935 174.642L352.982 173.788C351.14 172.226 349.688 172.074 347.341 171.459Z"/><path fill="#A2ABCA" fill-opacity="0.79607844" transform="scale(0.25 0.25)" d="M405.889 179.341C419.815 180.573 434.009 183.274 447.915 184.993C451.396 185.423 454.98 186.037 458.411 186.778L457.646 187.143L457.919 187.694C457.545 188.136 456.062 189.861 455.779 189.852C444.64 189.499 417.761 185.392 407.985 183.744C409.502 183.351 410.104 183.39 410.699 182.015C409.662 180.692 407.532 180.034 405.889 179.341Z"/><defs><linearGradient id="gradient_8" gradientUnits="userSpaceOnUse" x1="249.07285" y1="161.95776" x2="249.58696" y2="158.4528"><stop offset="0" stop-color="#A7B1CB" stop-opacity="0.76078433"/><stop offset="1" stop-color="#AAB4D1" stop-opacity="0.8392157"/></linearGradient></defs><path fill="url(#gradient_8)" transform="scale(0.25 0.25)" d="M241.114 156.706C254.982 158.46 268.846 161.025 282.59 162.69C280.754 163.795 279.451 164.155 278.576 165.829L278.896 166.348C275.384 166.249 256.198 163.468 252.501 162.682L252.672 162.178C252.369 162.128 251.516 162.083 251.278 161.799C247.344 157.113 224.792 161.168 222.475 158.659C228.073 155.555 234.682 159.538 241.114 156.706Z"/><path fill="#A2ABCA" fill-opacity="0.24313726" transform="scale(0.25 0.25)" d="M540.801 197.479L568.978 201.364C572.87 201.897 579.789 202.648 583.414 203.459C585.035 204.004 586.045 204.146 587.138 205.444L587.007 206.449C586.28 206.952 585.756 207.372 584.97 207.765C578.192 206.205 570.687 205.627 563.872 204.281C558.158 203.152 544.896 203.325 540.416 199.645C541.471 199.159 541.099 199.49 541.65 198.805C540.548 197.986 539.73 198.114 538.213 197.912L538.523 197.586L538.004 197.759L540.801 197.479Z"/><path fill="#A2ABCA" fill-opacity="0.76862746" transform="scale(0.25 0.25)" d="M871.753 243.44C883.646 244.431 898.751 247.117 910.738 248.777C909.151 249.111 908.371 249.096 907.251 250.252C908.606 252.244 914.031 251.676 916.936 253.483C913.026 253.938 878.574 248.93 873.435 247.661L874.569 246.249C874.11 244.621 873.543 244.724 871.753 243.44Z"/><path fill="#A2ABCA" fill-opacity="0.87450981" transform="scale(0.25 0.25)" d="M190.146 169.184C204.957 156.961 222.675 154.942 241.114 156.706C234.682 159.538 228.073 155.555 222.475 158.659C224.792 161.168 247.344 157.113 251.278 161.799C251.516 162.083 252.369 162.128 252.672 162.178L252.501 162.682C233.521 160.49 216.45 157.071 198.911 165.768C197.198 166.618 191.574 169.471 190.146 169.184Z"/><path fill="#A2ABCA" fill-opacity="0.79215688" transform="scale(0.25 0.25)" d="M928.426 251.476C932.683 251.803 958.54 255.253 962.355 256.223L961.042 256.809L961.67 257.722L960.471 258.493C960.531 258.574 973.488 261.542 975.098 262.048C970.112 262.156 934.573 256.815 928.919 255.592C930.528 255.372 931.027 255.411 932.434 254.55L932.539 253.638C931.271 252.221 930.235 252.08 928.426 251.476Z"/><path fill="#A2ABCA" fill-opacity="0.78039217" transform="scale(0.25 0.25)" d="M583.414 203.459C595.343 204.343 611.044 207.012 623.2 208.699C618.441 210.316 617.757 209.885 612.887 208.92C608.889 208.128 606.179 206.852 603.436 210.489C598.285 210.067 590.078 208.702 584.97 207.765C585.756 207.372 586.28 206.952 587.007 206.449L587.138 205.444C586.045 204.146 585.035 204.004 583.414 203.459Z"/><path fill="#A2ABCA" fill-opacity="0.81176472" transform="scale(0.25 0.25)" d="M984.962 259.476C992.916 260.137 1002.53 261.743 1010.58 262.833C1011.16 264.921 1011.43 264.655 1010.96 266.455L1009.8 267.439C1001.76 266.413 991.441 265.25 983.605 263.559C985.618 263.301 987.177 263.293 988.915 262.28L989.041 261.434C987.803 260.126 986.698 259.996 984.962 259.476Z"/><path fill="#A2ABCA" fill-opacity="0.65490198" transform="scale(0.25 0.25)" d="M314.338 166.806C322.735 167.753 331.109 168.893 339.454 170.225L337.81 170.838C338.834 171.122 339.822 171.354 340.804 171.75L338.983 172.803L338.849 173.462C339.789 173.84 340.665 174.192 341.621 174.529C335.403 173.81 325.789 172.89 319.861 171.661C320.082 171.427 320.119 170.79 320.201 170.366L319.702 169.666C317.061 168.91 316.106 168.901 314.338 166.806Z"/><path fill="#A2ABCA" fill-opacity="0.79607844" transform="scale(0.25 0.25)" d="M286.53 163.317C293.772 164.045 307.762 166.44 314.063 166.622C311.786 167.26 310.046 167.83 309.42 170.389C305.185 170.368 293.299 168.411 288.891 167.741C290.634 167.474 290.53 167.504 292.068 166.636L292.01 165.84C289.931 164.557 288.031 164.831 286.53 163.317Z"/><path fill="#756860" fill-opacity="0.9137255" transform="scale(0.25 0.25)" d="M141.578 973.254C142.576 987.815 141.987 1008.86 141.975 1024L134.338 1024C138.077 1023.25 135.743 1022.07 140.112 1022.67C140.95 1018.75 139.642 999.622 140.456 994.268C140.505 993.975 140.554 993.683 140.603 993.391C141.768 991.575 141.332 976.975 141.578 973.254Z"/><path fill="#C5D0E1" fill-opacity="0.71764708" transform="scale(0.25 0.25)" d="M154.603 527.424C155.192 536.151 155.406 540.703 156.791 549.434C158.528 541.856 157.64 536.715 158.125 529.405C158.717 545.513 158.243 562.965 158.373 579.188C158.428 586.092 158.728 600.975 158.188 606.915C158.106 589.331 157.852 571.749 157.424 554.171C156.952 553.882 156.48 553.593 156.008 553.304L155.763 552.006C155.701 552.605 155.245 554.127 155.068 554.787C154.252 550.463 154.562 532.37 154.603 527.424Z"/><path fill="#A2ABCA" fill-opacity="0.82352942" transform="scale(0.25 0.25)" d="M1010.58 262.833C1014.53 263.388 1020.15 264.352 1024 264.626L1024 269.186C1019.44 268.821 1014.38 268.043 1009.8 267.439L1010.96 266.455C1011.43 264.655 1011.16 264.921 1010.58 262.833Z"/><path fill="#A2ABCA" fill-opacity="0.54509807" transform="scale(0.25 0.25)" d="M603.436 210.489C606.179 206.852 608.889 208.128 612.887 208.92C617.757 209.885 618.441 210.316 623.2 208.699C624.904 209.041 625.605 208.84 626.514 209.866C625.475 211.155 625.259 211.228 623.955 212.182C620.23 212.599 607.578 211.058 603.436 210.489Z"/><path fill="#A2ABCA" fill-opacity="0.3882353" transform="scale(0.25 0.25)" d="M975.098 262.048C973.488 261.542 960.531 258.574 960.471 258.493L961.67 257.722L961.042 256.809L962.355 256.223C967.028 256.816 972.298 257.364 976.88 258.24L976.291 258.319L976.038 258.83C977.179 259.173 977.133 259.153 978.28 259.323L978.437 259.983C977.327 261.032 976.897 261.08 976.536 262.333L975.098 262.048Z"/><path fill="#BAC3DA" fill-opacity="0.3019608" transform="scale(0.25 0.25)" d="M339.454 170.225C340.807 170.409 346.397 171.079 347.341 171.459C349.688 172.074 351.14 172.226 352.982 173.788L352.935 174.642C351.656 175.618 351.285 175.506 349.68 175.717C347.836 175.158 343.699 174.78 341.621 174.529C340.665 174.192 339.789 173.84 338.849 173.462L338.983 172.803L340.804 171.75C339.822 171.354 338.834 171.122 337.81 170.838L339.454 170.225Z"/><path fill="#A2ABCA" fill-opacity="0.26274511" transform="scale(0.25 0.25)" d="M976.88 258.24C978.897 258.528 983.155 259.032 984.962 259.476C986.698 259.996 987.803 260.126 989.041 261.434L988.915 262.28C987.177 263.293 985.618 263.301 983.605 263.559C981.356 262.876 978.882 262.648 976.536 262.333C976.897 261.08 977.327 261.032 978.437 259.983L978.28 259.323C977.133 259.153 977.179 259.173 976.038 258.83L976.291 258.319L976.88 258.24Z"/><path fill="#A2ABCA" fill-opacity="0.27450982" transform="scale(0.25 0.25)" d="M910.738 248.777C912.007 248.96 919.684 249.998 920.371 250.277L919.747 250.83C920.834 250.984 920.97 250.989 921.992 251.446L922.176 252.203L920.253 254.049C919.169 253.833 918.03 253.664 916.936 253.483C914.031 251.676 908.606 252.244 907.251 250.252C908.371 249.096 909.151 249.111 910.738 248.777Z"/><path fill="#BAC3DA" fill-opacity="0.4509804" transform="scale(0.25 0.25)" d="M282.59 162.69C283.236 162.785 286.075 163.163 286.53 163.317C288.031 164.831 289.931 164.557 292.01 165.84L292.068 166.636C290.53 167.504 290.634 167.474 288.891 167.741C286.001 167.172 281.903 166.746 278.896 166.348L278.576 165.829C279.451 164.155 280.754 163.795 282.59 162.69Z"/><path fill="#A2ABCA" fill-opacity="0.13333334" transform="scale(0.25 0.25)" d="M920.371 250.277L928.426 251.476C930.235 252.08 931.271 252.221 932.539 253.638L932.434 254.55C931.027 255.411 930.528 255.372 928.919 255.592C927.876 255.215 922.012 254.372 920.253 254.049L922.176 252.203L921.992 251.446C920.97 250.989 920.834 250.984 919.747 250.83L920.371 250.277Z"/><path fill="#A2ABCA" fill-opacity="0.14901961" transform="scale(0.25 0.25)" d="M862.873 242.268L871.753 243.44C873.543 244.724 874.11 244.621 874.569 246.249L873.435 247.661C871.576 247.013 865.65 246.488 863.366 246.232C862.903 245.239 863.032 244.841 862.968 243.637L862.418 242.815L862.873 242.268Z"/><path fill="#BAC3DA" fill-opacity="0.38431373" transform="scale(0.25 0.25)" d="M402.741 178.754C403.439 178.863 405.35 179.099 405.889 179.341C407.532 180.034 409.662 180.692 410.699 182.015C410.104 183.39 409.502 183.351 407.985 183.744C405.571 183.188 401.231 182.708 398.658 182.353C398.892 180.76 401.327 179.207 402.741 178.754Z"/><path fill="#BAC3DA" fill-opacity="0.53725493" transform="scale(0.25 0.25)" d="M314.063 166.622L314.338 166.806C316.106 168.901 317.061 168.91 319.702 169.666L320.201 170.366C320.119 170.79 320.082 171.427 319.861 171.661C316.414 171.3 312.869 170.816 309.42 170.389C310.046 167.83 311.786 167.26 314.063 166.622Z"/><path fill="#C5D0E1" fill-opacity="0.023529412" transform="scale(0.25 0.25)" d="M154.962 649.764C155.663 651.38 156.863 676.561 156.645 679.26C154.27 676.194 156.676 673.704 154.988 668.719C154.557 665.134 154.925 653.794 154.962 649.764Z"/></svg>