<?xml version="1.0" encoding="utf-8" ?><svg xmlns="http://www.w3.org/2000/svg" xmlns:xlink="http://www.w3.org/1999/xlink" width="256" height="256" viewBox="0 0 256 256"><path fill="#535353" transform="scale(0.25 0.25)" d="M755.638 133.913C771.511 129.87 797.874 133.781 811.552 142.751C816.76 144.789 826.503 150.339 831.805 153.163C836.936 155.896 846.386 160.69 851.004 163.762C854.887 165.172 868.193 172.675 872.473 174.987L914.906 197.747L957.94 220.548C961.455 222.393 975.95 229.716 978.067 231.271C987.197 235.87 1000.14 247.882 1003.29 257.829C1008.18 266.365 1007.39 276.833 1007.42 286.35C1007.47 303.207 1007.44 320.073 1007.42 336.931C1007.41 340.989 1007.23 345.41 1006.58 349.412C1004.62 368.807 992.235 382.936 975.952 392.764L890.172 455.35C880.672 462.284 871.432 469.685 861.646 476.281C858.414 478.46 853.923 481.981 850.69 483.874C836.808 495.182 817.096 508.242 802.397 519.032L778.826 536.334C776.434 538.091 769.857 543.201 767.598 544.448C760.273 550.177 751.465 556.291 743.847 561.85L678.534 609.013L619.423 651.853C615.648 654.581 600.558 666.367 597.214 667.749C591.942 671.95 586.39 675.841 581.047 679.954C572.645 685.839 564.276 691.77 555.941 697.749C552.499 700.324 548.96 702.835 545.415 705.267C536.134 711.635 527.34 718.993 518.095 725.361C516.567 726.466 514.129 728.352 512.602 729.283C502.271 737.715 490.624 745.274 479.908 753.281C476.403 755.9 472.267 759.023 468.579 761.279C467.091 762.494 466.233 763.264 464.573 764.203C454.128 772.402 435.076 786.881 424.151 793.874C420.601 796.643 402.638 810.487 399.585 811.756C395.575 815.583 379.276 828.153 374.42 828.925C366.179 830.234 351.143 819.835 343.501 815.734C334.352 810.822 323.635 805.753 314.758 800.353C308.127 804.81 299.368 811.569 292.629 816.37L219.14 869.678C212.665 874.352 206.235 879.089 199.851 883.887C188.959 892.077 186.806 897.721 173.691 890.977C153.644 880.669 134.6 868.869 114.981 857.951L49.4041 821.555C42.7106 817.825 25.05 809.555 20.2736 804.504C18.6268 802.763 17.1926 801.209 16.5916 798.832C14.8821 792.069 15.8556 783.725 15.7862 776.758C15.6759 765.684 15.2895 754.554 15.536 743.484C19.9707 736.951 57.3631 713.194 66.1126 707.363C76.7198 700.243 87.2826 693.056 97.8003 685.804C104.45 681.226 112.222 676.089 118.446 671.115C113.549 665.647 112.123 663.74 110.761 656.381C110.385 654.961 110.188 635.135 110.403 633.285C111.578 623.202 108.445 595.362 111.317 587.133C112.54 583.129 114.213 581.366 117.405 578.864C131.138 567.884 151.935 553.957 166.618 543.666L233.265 496.268L472.989 325.916C478.634 322.291 484.655 317.853 490.397 314.037C493.264 311.84 496.245 309.729 499.227 307.688C518.567 294.449 537.711 280.896 556.898 267.445L686.041 175.508C698.663 166.335 715.479 155.738 727.174 146.379C735.254 140.088 745.665 135.941 755.638 133.913Z"/><path fill="#3E3E3E" transform="scale(0.25 0.25)" d="M755.638 133.913C771.511 129.87 797.874 133.781 811.552 142.751C816.76 144.789 826.503 150.339 831.805 153.163C836.936 155.896 846.386 160.69 851.004 163.762C854.887 165.172 868.193 172.675 872.473 174.987L914.906 197.747L957.94 220.548C961.455 222.393 975.95 229.716 978.067 231.271C987.197 235.87 1000.14 247.882 1003.29 257.829C1008.18 266.365 1007.39 276.833 1007.42 286.35C1007.47 303.207 1007.44 320.073 1007.42 336.931C1007.41 340.989 1007.23 345.41 1006.58 349.412C1004.62 368.807 992.235 382.936 975.952 392.764L890.172 455.35C880.672 462.284 871.432 469.685 861.646 476.281C858.414 478.46 853.923 481.981 850.69 483.874C836.808 495.182 817.096 508.242 802.397 519.032L778.826 536.334C776.434 538.091 769.857 543.201 767.598 544.448C760.273 550.177 751.465 556.291 743.847 561.85L678.534 609.013L619.423 651.853C615.648 654.581 600.558 666.367 597.214 667.749C591.942 671.95 586.39 675.841 581.047 679.954C572.645 685.839 564.276 691.77 555.941 697.749C552.499 700.324 548.96 702.835 545.415 705.267C536.134 711.635 527.34 718.993 518.095 725.361C516.567 726.466 514.129 728.352 512.602 729.283C502.271 737.715 490.624 745.274 479.908 753.281C476.403 755.9 472.267 759.023 468.579 761.279C467.091 762.494 466.233 763.264 464.573 764.203C454.128 772.402 435.076 786.881 424.151 793.874C420.601 796.643 402.638 810.487 399.585 811.756C395.763 811.175 390.54 816.347 386.236 818.887C385.503 789.817 386.879 758.523 385.3 729.691C399.002 718.7 414.79 708.001 429.111 697.58C461.782 673.682 494.601 649.989 527.569 626.502L837.257 402.054L937.556 329.183C949.283 320.487 961.48 312.255 972.955 303.256C981.478 296.572 995.009 281.768 990.194 269.932C990.043 272.002 989.836 274.069 989.574 276.128C989.203 245.569 962.633 237.522 939.677 225.211C917.729 213.265 895.684 201.496 873.546 189.906L821.348 162.065C804.462 153.249 791.878 144.297 771.691 144.612C759.764 144.825 748.106 148.187 737.898 154.359C728.689 159.956 717.064 168.954 708.014 175.322L634.887 227.62L427.886 374.024L230.893 513.632L166.232 559.751L146.246 573.669C144.252 575.059 138.138 579.193 136.517 580.627C127.704 577.593 125.422 579.478 117.405 578.864C131.138 567.884 151.935 553.957 166.618 543.666L233.265 496.268L472.989 325.916C478.634 322.291 484.655 317.853 490.397 314.037C493.264 311.84 496.245 309.729 499.227 307.688C518.567 294.449 537.711 280.896 556.898 267.445L686.041 175.508C698.663 166.335 715.479 155.738 727.174 146.379C735.254 140.088 745.665 135.941 755.638 133.913Z"/><path fill="#020202" transform="scale(0.25 0.25)" d="M767.598 544.448C767.349 543.638 767.435 544.116 767.477 542.996C774.282 536.11 786.23 529.096 794.137 523.109C812.296 509.362 831.413 496.763 849.754 483.303L850.69 483.874C836.808 495.182 817.096 508.242 802.397 519.032L778.826 536.334C776.434 538.091 769.857 543.201 767.598 544.448Z"/><path fill="#020202" transform="scale(0.25 0.25)" d="M468.579 761.279C469.195 757.052 498.935 737.475 504.041 733.346C505.966 731.79 509.987 729.209 512.602 729.283C502.271 737.715 490.624 745.274 479.908 753.281C476.403 755.9 472.267 759.023 468.579 761.279Z"/><path fill="#020202" transform="scale(0.25 0.25)" d="M424.151 793.874C424.243 792.259 424.247 791.559 425.805 790.538C431.767 786.627 459.364 763.875 464.573 764.203C454.128 772.402 435.076 786.881 424.151 793.874Z"/><path fill="#020202" transform="scale(0.25 0.25)" d="M1006.58 349.412C1004.62 368.807 992.235 382.936 975.952 392.764C976.364 389.272 983.24 385.621 986.235 383.008C992.959 377.142 997.666 371.623 1001.16 363.379C1002.77 359.573 1004.33 351.685 1006.58 349.412Z"/><path fill="#020202" transform="scale(0.25 0.25)" d="M518.095 725.361C518.149 725.284 518.209 725.211 518.259 725.131C522.022 719.051 538.533 708.03 544.84 703.448C547.448 701.553 552.611 697.224 555.941 697.749C552.499 700.324 548.96 702.835 545.415 705.267C536.134 711.635 527.34 718.993 518.095 725.361Z"/><path fill="#020202" transform="scale(0.25 0.25)" d="M978.067 231.271C987.197 235.87 1000.14 247.882 1003.29 257.829L1002.49 258.09C1000.27 255.086 993.885 245.873 991.585 243.664C988.273 240.482 981.696 235.326 977.94 232.175L978.067 231.271Z"/><path fill="#020202" transform="scale(0.25 0.25)" d="M811.552 142.751C816.76 144.789 826.503 150.339 831.805 153.163C836.936 155.896 846.386 160.69 851.004 163.762C847.638 163.855 834.806 156.687 831.313 154.843C828.452 153.333 812.274 145.062 811.552 142.751Z"/><path fill="#020202" transform="scale(0.25 0.25)" d="M727.174 146.379C735.254 140.088 745.665 135.941 755.638 133.913C755.042 134.509 732.318 144.144 728.205 146.655L727.174 146.379Z"/><path fill="#020202" transform="scale(0.25 0.25)" d="M490.397 314.037C490.501 314.718 490.806 315.333 490.273 315.819C487.543 318.307 476.112 326.929 473.232 326.929C472.832 326.173 472.83 326.521 472.989 325.916C478.634 322.291 484.655 317.853 490.397 314.037Z"/><path fill="#020202" transform="scale(0.25 0.25)" d="M581.047 679.954L580.189 679.434C580.791 676.855 593.402 667.373 597.214 667.749C591.942 671.95 586.39 675.841 581.047 679.954Z"/><path fill="#CFCECE" transform="scale(0.25 0.25)" d="M162.81 644.251C170.425 648.307 177.833 652.83 185.457 656.954C216.556 673.548 247.51 690.412 278.317 707.543C295.03 716.815 312.552 725.33 328.572 735.787C330.613 737.119 331.357 740.328 332.126 742.493C334.447 749.481 331.367 778.356 333.407 783.701C329.951 787.183 318.222 794.874 313.417 798.228L273.067 826.463L205.434 874.992C200.986 878.157 187.196 888.913 183.114 890.691C176.787 888.561 167.342 882.947 161.231 879.653C146.191 871.547 131.41 862.747 116.473 854.447C95.6929 843.119 75.0014 831.63 54.4002 819.98C44.7344 814.594 34.6964 809.429 25.2736 803.645C22.0028 801.637 20.6129 800.011 18.6151 796.805C18.5191 789.234 18.2187 752.27 18.9045 745.479C19.1852 742.701 41.3472 728.49 46.4327 725.001L101.246 687.453L145.966 656.235C151.461 652.402 157.333 647.788 162.81 644.251Z"/><path fill="#535353" transform="scale(0.25 0.25)" d="M110.928 844.283C108.354 843.547 85.5653 830.552 81.3267 828.15C65.0328 818.916 48.1399 809.765 31.8816 800.419C29.5394 799.073 26.6105 796.999 24.7478 795.018C22.9045 790.066 24.1283 761.706 23.9959 754.721C23.9635 753.013 24.9765 750.333 26.6153 749.022C29.3754 748.842 49.2418 760.763 53.4463 763.095C74.1374 774.482 94.7637 785.986 115.324 797.607L159.221 821.828C168.499 826.925 179.789 832.83 188.531 838.454C191.442 836.681 194.999 834.107 197.873 832.142L198.655 832.69C195.334 834.998 191.817 837.544 188.444 839.731C188.291 847.427 188.245 855.125 188.305 862.822C188.346 868.033 188.49 873.215 188.246 878.421C188.033 882.972 184.652 883.342 180.98 884.311C172.188 878.643 164.33 874.058 155.183 869.097C152.372 867.573 138.221 859.938 136.891 858.759C130.067 855.531 117.874 848.213 110.928 844.283Z"/><path fill="#020202" transform="scale(0.25 0.25)" d="M110.928 844.283C113.765 844.27 136.415 856.708 136.891 858.759C130.067 855.531 117.874 848.213 110.928 844.283Z"/><path fill="#3E3E3E" transform="scale(0.25 0.25)" d="M217.75 740.371C221.474 740.707 248.425 756.489 253.288 759.555C245.65 764.978 237.147 770.483 229.32 775.918C217.333 769.29 205.27 762.802 193.133 756.455C201.203 750.889 209.412 745.527 217.75 740.371Z"/><path fill="#3E3E3E" transform="scale(0.25 0.25)" d="M112.336 709.385C110.861 708.504 110.924 708.798 110.152 707.465C114.134 704.274 129.495 695.001 134.559 692.036C135.571 691.443 136.42 692.167 137.502 692.703C147.124 698.108 159.927 704.489 168.904 710.102C160.491 715.525 152.114 721.006 143.775 726.542C137.207 723.034 130.683 719.446 124.202 715.78C121.24 714.122 115.213 710.559 112.336 709.385Z"/><path fill="#020202" transform="scale(0.25 0.25)" d="M112.336 709.385C110.861 708.504 110.924 708.798 110.152 707.465C114.134 704.274 129.495 695.001 134.559 692.036C135.571 691.443 136.42 692.167 137.502 692.703L136.669 693.117C134.684 694.086 132.774 694.242 130.662 695.863C126.337 699.184 114.19 704.483 112.336 709.385Z"/><path fill="#3E3E3E" transform="scale(0.25 0.25)" d="M197.873 832.142C211.921 822.225 319.207 745.426 322.223 744.823C320.078 747.572 294.159 764.951 288.703 768.96C259.199 790.639 228.263 811.239 198.655 832.69L197.873 832.142Z"/><path fill="#3E3E3E" transform="scale(0.25 0.25)" d="M111.317 587.133L112.096 586.591C116.831 583.235 119.243 579.36 126.107 580.046C130.529 580.488 134.446 581.846 138.421 583.831C153.525 591.597 168.504 599.92 183.399 608.071L259.617 649.772L322.55 684.625C336.891 692.396 351.231 700.1 365.525 708.092C370.659 710.963 382.529 725.258 383.494 730.722C385.034 739.432 383.746 751.279 384.3 760.279C384.178 779.555 384.865 799.465 384.486 818.646C371.299 832.887 361.684 821.813 347.811 814.787C338.163 809.901 328.632 803.853 318.838 799.219C322.598 795.937 332.278 789.727 334.028 786.487C334.022 784.995 334.168 784.931 333.407 783.701C331.367 778.356 334.447 749.481 332.126 742.493C331.357 740.328 330.613 737.119 328.572 735.787C312.552 725.33 295.03 716.815 278.317 707.543C247.51 690.412 216.556 673.548 185.457 656.954C177.833 652.83 170.425 648.307 162.81 644.251L162.328 643.192C160.78 642.799 160.278 642.543 158.795 643.508C145.759 651.986 133.357 661.807 120.13 669.973C116.468 665.767 112.65 658.088 110.761 656.381C110.385 654.961 110.188 635.135 110.403 633.285C111.578 623.202 108.445 595.362 111.317 587.133Z"/><path fill="#020202" transform="scale(0.25 0.25)" d="M989.574 276.128C989.836 274.069 990.043 272.002 990.194 269.932C995.009 281.768 981.478 296.572 972.955 303.256C961.48 312.255 949.283 320.487 937.556 329.183L837.257 402.054L527.569 626.502C494.601 649.989 461.782 673.682 429.111 697.58C414.79 708.001 399.002 718.7 385.3 729.691C386.879 758.523 385.503 789.817 386.236 818.887C390.54 816.347 395.763 811.175 399.585 811.756C395.575 815.583 379.276 828.153 374.42 828.925C366.179 830.234 351.143 819.835 343.501 815.734C334.352 810.822 323.635 805.753 314.758 800.353C308.127 804.81 299.368 811.569 292.629 816.37L219.14 869.678C212.665 874.352 206.235 879.089 199.851 883.887C188.959 892.077 186.806 897.721 173.691 890.977C153.644 880.669 134.6 868.869 114.981 857.951L49.4041 821.555C42.7106 817.825 25.05 809.555 20.2736 804.504C18.6268 802.763 17.1926 801.209 16.5916 798.832C14.8821 792.069 15.8556 783.725 15.7862 776.758C15.6759 765.684 15.2895 754.554 15.536 743.484C19.9707 736.951 57.3631 713.194 66.1126 707.363C76.7198 700.243 87.2826 693.056 97.8003 685.804C104.45 681.226 112.222 676.089 118.446 671.115C113.549 665.647 112.123 663.74 110.761 656.381C112.65 658.088 116.468 665.767 120.13 669.973C133.357 661.807 145.759 651.986 158.795 643.508C160.278 642.543 160.78 642.799 162.328 643.192L162.81 644.251C157.333 647.788 151.461 652.402 145.966 656.235L101.246 687.453L46.4327 725.001C41.3472 728.49 19.1852 742.701 18.9045 745.479C18.2187 752.27 18.5191 789.234 18.6151 796.805C20.6129 800.011 22.0028 801.637 25.2736 803.645C34.6964 809.429 44.7344 814.594 54.4002 819.98C75.0014 831.63 95.6929 843.119 116.473 854.447C131.41 862.747 146.191 871.547 161.231 879.653C167.342 882.947 176.787 888.561 183.114 890.691C187.196 888.913 200.986 878.157 205.434 874.992L273.067 826.463L313.417 798.228C318.222 794.874 329.951 787.183 333.407 783.701C334.168 784.931 334.022 784.995 334.028 786.487C332.278 789.727 322.598 795.937 318.838 799.219C328.632 803.853 338.163 809.901 347.811 814.787C361.684 821.813 371.299 832.887 384.486 818.646C384.865 799.465 384.178 779.555 384.3 760.279C383.746 751.279 385.034 739.432 383.494 730.722C382.529 725.258 370.659 710.963 365.525 708.092C351.231 700.1 336.891 692.396 322.55 684.625L259.617 649.772L183.399 608.071C168.504 599.92 153.525 591.597 138.421 583.831C134.446 581.846 130.529 580.488 126.107 580.046C119.243 579.36 116.831 583.235 112.096 586.591L111.317 587.133C112.54 583.129 114.213 581.366 117.405 578.864C125.422 579.478 127.704 577.593 136.517 580.627C148.993 586.683 163.364 594.951 175.825 601.693L272.066 654.458L337.716 690.22C347.566 695.629 359.36 701.651 368.626 707.805C374.575 711.756 380.739 721.988 384.427 728.104C390.657 722.888 397.833 717.903 404.431 713.095L439.916 687.436L546.016 610.743L849.256 391.514C875.441 372.544 901.53 353.441 927.522 334.207L955.894 313.623C968.261 304.581 986.86 292.229 989.574 276.128Z"/><path fill="#3E3E3E" transform="scale(0.25 0.25)" d="M520.158 419.691C533.102 410.768 545.499 401.101 558.483 392.231C564.099 388.394 569.66 384.16 575.95 381.482C581.378 379.171 588.185 377.688 594.051 378.753C603.394 380.45 633.258 399.433 642.477 405.525C638.15 408.616 633.313 412.002 629.183 415.296C622.578 410.433 600.021 396.922 592.598 393.721C590.705 392.904 588.412 391.98 586.304 392.267C581.578 392.91 552.301 413.24 546.758 417.399C560.721 426.315 576.472 434.088 589.809 442.836C585.094 446.394 580.288 450.2 575.258 453.265C571.895 451.264 565.251 447.557 562.391 445.315C559.543 443.847 555.327 441.096 552.478 439.364C545.809 436.226 526.629 424.067 520.158 419.691Z"/><path fill="#020202" transform="scale(0.25 0.25)" d="M552.478 439.364L553.138 438.81C555.771 439.916 560.944 442.856 562.391 445.315C559.543 443.847 555.327 441.096 552.478 439.364Z"/><path fill="#020202" transform="scale(0.25 0.25)" d="M286.277 556.567C290.208 556.331 292.943 556.012 296.425 557.847C312.044 566.075 327.461 574.741 342.826 583.457C351.462 588.356 360.857 593.197 369.133 598.652C370.578 599.665 371.569 600.938 372.025 602.65C373.509 608.215 368.34 610.521 364.097 611.529C354.333 612.606 350.679 609.036 342.521 604.539C333.042 599.325 323.613 594.022 314.233 588.632C304.295 583.037 293.997 577.829 284.237 571.919C282.628 570.945 278.011 567.804 277.571 566.074C276.139 560.444 282.05 557.98 286.277 556.567Z"/><path fill="#3E3E3E" transform="scale(0.25 0.25)" d="M287.202 558.099C295.177 557.784 302.666 563.17 309.617 566.977C321.767 573.63 333.836 580.431 345.82 587.378C350.749 590.228 365.968 597.767 369.957 602.777C372.725 606.254 366.053 608.998 362.731 609.941C360.401 610.09 357.45 610.106 355.331 609.022C341.201 601.793 327.257 594.042 313.491 586.159C303.743 580.578 293.745 575.572 284.109 569.854C282.905 568.989 279.675 567.164 279.389 565.768C278.443 561.138 283.491 559.119 287.202 558.099Z"/><path fill="#3E3E3E" transform="scale(0.25 0.25)" d="M609.531 359.631C612.037 357.53 612.932 356.029 616.339 356.574C630.929 364.49 644.875 374.146 659.182 382.601C661.603 384.031 664.226 385.536 666.576 387.056C661.892 390.713 656.941 393.802 652.189 397.288C634.015 387.552 617.461 376.268 599.437 366.587C600.925 365.51 608.454 359.947 609.531 359.631Z"/><path fill="#020202" transform="scale(0.25 0.25)" d="M609.531 359.631C612.037 357.53 612.932 356.029 616.339 356.574C614.862 357.594 611.306 359.346 609.531 359.631Z"/><path fill="#3E3E3E" transform="scale(0.25 0.25)" d="M581.89 402.814C590.969 406.716 608.658 418.048 617.652 423.503C613.981 426.554 606.848 431.289 602.745 434.189C599.194 435.091 571.596 417.011 566.865 413.998L581.89 402.814Z"/></svg>