<?xml version="1.0" encoding="utf-8" ?><svg xmlns="http://www.w3.org/2000/svg" xmlns:xlink="http://www.w3.org/1999/xlink" width="256" height="256" viewBox="0 0 256 256"><path fill="#555" transform="scale(0.25 0.25)" d="M28.9225 1024C31.9502 1011.84 39.0322 993.819 43.3829 981.693L76.151 892.346L202.419 551.338L311.718 252.904L340.207 175.008C353.228 139.409 362.215 108.232 396.715 86.3315C422.189 70.1601 441.741 71.7309 469.976 73.0875C487.781 73.9043 505.581 74.84 523.375 75.8943L679.444 83.6894L809.632 89.8226L850.286 92.0421C869.887 93.0869 894.799 93.4121 912.295 103.901C927.147 112.805 942.444 125.618 954.562 137.965C982.442 167.827 974.5 212.012 960.836 246.423C958.879 251.351 957.059 256.6 955.221 261.628L934.21 319.121L882.418 461.501L752.061 825.511L708.696 946.903C699.946 971.095 688.887 999.684 681.145 1024L673.144 1024L630.079 1024L624.363 1024L606.731 1024L603.384 1024L585.886 1024L582.727 1024L575.92 1024L572.037 1024L43.0986 1024L36.2112 1024C52.2625 978.217 70.4246 932.265 86.1844 886.541L85.5566 886.51C81.7743 894.578 75.3153 914.351 71.9712 923.498L40.5002 1009.95C40.2027 1010.74 40.2048 1010.6 39.5276 1010.85C38.2222 1004.62 59.1482 959.274 58.2492 953.463C53.2229 966.828 48.3381 980.247 43.5954 993.716C40.0727 1003.53 36.0275 1014.15 32.8686 1024L28.9225 1024Z"/><path transform="scale(0.25 0.25)" d="M28.9225 1024C31.9502 1011.84 39.0322 993.819 43.3829 981.693L76.151 892.346L202.419 551.338L311.718 252.904L340.207 175.008C353.228 139.409 362.215 108.232 396.715 86.3315C422.189 70.1601 441.741 71.7309 469.976 73.0875C487.781 73.9043 505.581 74.84 523.375 75.8943L679.444 83.6894L809.632 89.8226L850.286 92.0421C869.887 93.0869 894.799 93.4121 912.295 103.901C927.147 112.805 942.444 125.618 954.562 137.965C982.442 167.827 974.5 212.012 960.836 246.423C958.879 251.351 957.059 256.6 955.221 261.628L934.21 319.121L882.418 461.501L752.061 825.511L708.696 946.903C699.946 971.095 688.887 999.684 681.145 1024L673.144 1024L630.079 1024L624.363 1024L606.731 1024L603.384 1024L585.886 1024L582.727 1024L575.92 1024C583.2 1000.51 593.321 974.113 601.597 950.55L657.697 793.285L811.609 367.513L853.697 251.37C860.597 232.822 868.038 214.1 874.238 195.108C880.007 177.434 892.679 152.208 885.04 133.87C880.004 121.782 863.509 116.335 851.363 115.498C827.336 113.844 803.097 113.134 778.976 111.739C720.052 108.032 661.094 104.878 602.111 102.279L474.053 95.1104C463.923 94.5875 453.797 93.9835 443.677 93.2986C439.788 93.0258 435.708 92.835 431.861 92.3754C403.291 88.9622 375.445 112.589 363.015 136.661C354.866 152.442 349.045 171.876 342.819 189.13C331.284 221.711 319.441 254.183 307.294 286.541L161.012 684.051L113.831 811.331L96.6303 858.677C94.0221 865.911 89.4709 879.483 86.3798 886.13L86.1844 886.541L85.5566 886.51C81.7743 894.578 75.3153 914.351 71.9712 923.498L40.5002 1009.95C40.2027 1010.74 40.2048 1010.6 39.5276 1010.85C38.2222 1004.62 59.1482 959.274 58.2492 953.463C53.2229 966.828 48.3381 980.247 43.5954 993.716C40.0727 1003.53 36.0275 1014.15 32.8686 1024L28.9225 1024Z"/><path fill="#555" transform="scale(0.25 0.25)" d="M933.474 165.261C947.364 170.094 956.3 175.611 963.587 189.107C968.856 198.867 962.526 220.075 958.915 230.231L857.748 507.182L673.144 1024L630.079 1024C636.171 1004.61 644.29 984.016 651.171 964.775L690.346 854.324L853.227 401.275L901.806 267.722C914.62 232.402 928.284 202.712 933.474 165.261Z"/><path transform="scale(0.25 0.25)" d="M839.216 477.101C849.012 476.635 853.151 490.317 850.827 498.026C846.26 513.178 840.698 528.074 835.425 542.998C830.542 556.479 826.342 570.219 821.457 583.694C818.791 591.045 815.982 595.845 807.764 596.877C799.493 595.589 792.642 583.75 794.632 576.657C798.045 564.489 803.107 552.166 807.31 540.174L819.084 505.948C821.569 498.788 824.488 489.807 828.183 483.205C830.262 479.492 835.212 477.825 839.216 477.101Z"/><path fill="#6C6B6B" transform="scale(0.25 0.25)" d="M835.439 487.079C836.109 486.322 836.5 485.46 836.93 484.551C842.307 483.154 845.443 490.611 846.654 494.643C844.646 503.04 839.875 515.257 837.046 523.83C832.681 537.404 828.045 550.888 823.14 564.276C820.841 570.65 816.245 588.64 808.986 589.283C805.789 588.045 805.323 583.608 803.65 582.129C803.392 582.305 802.843 582.478 802.521 582.6C801.101 581.752 800.624 580.357 799.824 578.837C805.311 562.38 811.795 545.618 817.42 528.936C820.406 519.876 823.456 510.838 826.57 501.821C827.946 497.912 830.923 487.302 834.653 486.046L835.439 487.079Z"/><path fill="#232323" transform="scale(0.25 0.25)" d="M799.824 578.837C805.311 562.38 811.795 545.618 817.42 528.936C820.406 519.876 823.456 510.838 826.57 501.821C827.946 497.912 830.923 487.302 834.653 486.046L835.439 487.079C824.063 515.18 815.379 546.434 804.673 574.983C803.711 577.549 803.374 579.401 803.65 582.129C803.392 582.305 802.843 582.478 802.521 582.6C801.101 581.752 800.624 580.357 799.824 578.837Z"/><path transform="scale(0.25 0.25)" d="M782.683 633.059C791.879 632.257 795.092 640.644 796.185 648.29C797.026 654.174 792.201 665.199 790.146 671.097L780.037 699.967L771.022 725.527C767.782 734.93 766.638 746.635 755.185 747.765C754.072 747.63 752.975 747.39 751.908 747.048C743.418 744.383 739.345 735.968 741.493 727.567C743.599 719.33 746.549 711.473 749.334 703.445C755.908 684.55 762.703 665.733 769.716 646.996C772.362 639.773 775.682 636.32 782.683 633.059Z"/><path fill="#6C6B6B" transform="scale(0.25 0.25)" d="M784.024 639.388C788.529 639.586 790.912 645.95 792.176 649.554C789.686 660.723 781.62 680.842 777.512 692.442L767.456 720.553C765.53 725.877 762.666 736.611 758.104 739.691C752.055 739.275 750.908 735.179 749.115 730.163C750.043 726.21 752.852 719.256 754.335 715.22L764.288 688.134C769.495 673.927 774.356 659.379 779.811 645.29C780.819 642.688 782.034 641.325 784.024 639.388Z"/><defs><linearGradient id="gradient_0" gradientUnits="userSpaceOnUse" x1="773.48364" y1="691.63959" x2="752.2511" y2="688.72644"><stop offset="0" stop-color="#444346"/><stop offset="1" stop-color="#252623"/></linearGradient></defs><path fill="url(#gradient_0)" transform="scale(0.25 0.25)" d="M780.877 639.942L781.187 640.179C779.978 641.915 778.462 644.515 777.758 646.529C774.052 657.127 770.559 668.082 766.588 678.578C762.242 690.066 757.793 701.47 753.745 713.074C751.674 719.012 749.085 725.085 747.804 731.221C749.139 735.426 749.678 736.838 753.067 739.852L755.157 741.709C750.248 740.529 745.511 732.945 746.466 728.435C748.168 720.397 751.849 711.887 754.789 704.159L767.491 670.375C770.583 662.101 773.509 653.733 776.559 645.449C777.354 643.293 779.097 641.367 780.877 639.942Z"/><path fill="#555" transform="scale(0.25 0.25)" d="M394.604 92.9679C419.776 72.7418 447.546 76.4749 477.249 77.7672L566.206 82.3663L746.355 91.2338L822.062 95.0772C847.042 96.4491 886.091 94.6363 903.183 115.77C923.962 141.463 910.323 172.559 900.455 199.655L883.553 245.583L833.554 382.646L709.744 725.777C689.56 780.308 669.865 835.018 650.661 889.902C634.83 933.767 617.436 979.761 603.384 1024L585.886 1024L791.544 450.938L855.619 275.163C865.579 248.47 875.359 221.71 884.959 194.885C889.738 181.452 894.885 167.976 898.909 154.324C904.737 134.554 896.916 112.109 875.917 105.785C860.901 101.262 845.616 101.567 830.017 100.762C810.536 99.7055 791.045 98.8414 771.547 98.1697L655.806 92.2515C637.189 91.2707 618.429 90.4395 599.819 89.5877C593.217 89.2856 597.493 84.3961 585.764 88.1084C581.004 89.6148 563.999 87.9788 557.921 87.6791L464.611 82.7797C432.243 81.1554 425.195 77.0022 394.604 92.9679Z"/><path fill="#555" transform="scale(0.25 0.25)" d="M916.848 160.534L928.939 164.094C925.761 188.133 918.307 207.719 909.945 230.493L892.042 278.897L844.607 409.253L733.176 720.642C704.77 798.425 676.826 876.376 649.345 954.491C641.202 977.545 632.179 1000.97 624.363 1024L606.731 1024C614.227 999.123 625.273 970.038 634.029 945.231L687.473 795.767L842.867 366.621L887.431 244.766C897.104 218.486 909.286 187.176 916.848 160.534Z"/><path fill="#555" transform="scale(0.25 0.25)" d="M58.2492 953.463C64.2901 934.57 73.7552 910.846 80.7466 891.898L120.008 785.053L246.797 442.8L326.829 223.977L345.106 174.068C356.893 141.04 365.71 111.164 399.576 93.9308C420.639 83.2131 427.5 84.0441 449.884 85.2378L481.713 86.9069L596.549 92.8764L780.72 101.858L828.492 104.011C836.505 104.37 845.156 104.83 853.1 105.193C896.348 107.169 904.969 130.186 891.148 168.064C876.556 208.057 861.748 249.05 846.976 289.343L789.824 446.728L674.613 766.319C652.607 826.038 631.134 885.951 610.196 946.052C601.211 971.478 591.045 998.459 582.727 1024L575.92 1024C583.2 1000.51 593.321 974.113 601.597 950.55L657.697 793.285L811.609 367.513L853.697 251.37C860.597 232.822 868.038 214.1 874.238 195.108C880.007 177.434 892.679 152.208 885.04 133.87C880.004 121.782 863.509 116.335 851.363 115.498C827.336 113.844 803.097 113.134 778.976 111.739C720.052 108.032 661.094 104.878 602.111 102.279L474.053 95.1104C463.923 94.5875 453.797 93.9835 443.677 93.2986C439.788 93.0258 435.708 92.835 431.861 92.3754C403.291 88.9622 375.445 112.589 363.015 136.661C354.866 152.442 349.045 171.876 342.819 189.13C331.284 221.711 319.441 254.183 307.294 286.541L161.012 684.051L113.831 811.331L96.6303 858.677C94.0221 865.911 89.4709 879.483 86.3798 886.13L86.1844 886.541L85.5566 886.51C81.7743 894.578 75.3153 914.351 71.9712 923.498L40.5002 1009.95C40.2027 1010.74 40.2048 1010.6 39.5276 1010.85C38.2222 1004.62 59.1482 959.274 58.2492 953.463Z"/><path transform="scale(0.25 0.25)" d="M586.435 93.5032C588.977 93.4884 590.55 93.0438 591.796 95.4063C591.573 97.2447 590.817 97.9326 589.699 99.4186C587.149 100.029 586.406 99.9457 585.202 97.7357C585.081 95.6287 585.345 95.435 586.435 93.5032Z"/><path fill="#555" transform="scale(0.25 0.25)" d="M924.343 119.759C927.358 121.66 932.952 126.821 935.909 129.23C954.532 144.4 965.231 160.11 967.11 184.697C965.594 182.595 964.501 180.1 962.551 177.541C955.028 167.668 945.023 163.151 933.592 159.33C934.238 141.011 932.163 135.941 924.343 119.759Z"/><path fill="#555" transform="scale(0.25 0.25)" d="M892.666 101.474C898.757 102.173 906.957 107.33 911.336 111.58C923.768 123.647 928.569 141.557 928.876 158.379C925.182 157.388 921.637 156.6 917.901 155.776C919.076 148.057 918.638 140.178 916.613 132.637C912.666 118.112 905.595 108.829 892.666 101.474Z"/><path transform="scale(0.25 0.25)" d="M86.1844 886.541L86.3798 886.13C89.4709 879.483 94.0221 865.911 96.6303 858.677L113.831 811.331L161.012 684.051L307.294 286.541C319.441 254.183 331.284 221.711 342.819 189.13C349.045 171.876 354.866 152.442 363.015 136.661C375.445 112.589 403.291 88.9622 431.861 92.3754C435.708 92.835 439.788 93.0258 443.677 93.2986C453.797 93.9835 463.923 94.5875 474.053 95.1104L602.111 102.279C661.094 104.878 720.052 108.032 778.976 111.739C803.097 113.134 827.336 113.844 851.363 115.498C863.509 116.335 880.004 121.782 885.04 133.87C892.679 152.208 880.007 177.434 874.238 195.108C868.038 214.1 860.597 232.822 853.697 251.37L811.609 367.513L657.697 793.285L601.597 950.55C593.321 974.113 583.2 1000.51 575.92 1024L572.037 1024C575.114 1012.76 579.624 1001 583.55 989.969C589.756 972.107 596.142 954.309 602.707 936.577L654.931 789.931L811.846 353.813L829.912 304.877C842.522 269.825 855.194 234.847 867.979 199.859C872.695 186.955 877.974 173.479 881.397 160.182C892.299 117.837 852.024 119.719 823.995 118.357L784.926 116.393L633.218 107.553C583.755 104.551 534.268 101.938 484.764 99.7134C472.782 99.141 460.805 98.4762 448.833 97.7193C432.503 96.6742 421.804 94.0453 406.481 101.052C372.783 116.462 363.568 146.094 352.583 178.015C346.655 195.206 340.593 212.351 334.4 229.448C309.017 297.317 284.085 365.352 259.604 433.551L43.0986 1024L36.2112 1024C52.2625 978.217 70.4246 932.265 86.1844 886.541Z"/><path transform="scale(0.25 0.25)" d="M468.548 131.71C474.63 131.567 484.466 132.283 490.749 132.579L543.549 135.582L590.857 137.882C606.593 138.658 622.313 139.458 637.712 142.362C677.718 149.906 689.262 190.749 678.599 225.858C674.252 240.169 669.359 252.913 664.166 266.763L634.642 343.923L606.793 419.031C598.004 443.097 592.333 464.397 576.866 485.444C557.459 511.85 532.366 533.3 499.119 538.884C497.589 539.112 496.052 539.291 494.511 539.421C483.184 540.297 468.535 538.703 457.027 537.718L409.247 533.692L353.624 529.581C330.473 527.668 308.639 527.743 295.259 505.194C272.928 467.56 294.937 424.038 308.604 387.658L335.722 313.674L359.441 248.21C362.847 238.555 365.551 228.842 369.278 219.281C385.687 177.181 420.357 135.15 468.548 131.71Z"/><path fill="#555" transform="scale(0.25 0.25)" d="M467.845 137.204C474.52 136.799 488.697 137.756 495.705 138.115L545.094 140.878L588.389 143.199C599.288 143.786 612.846 144.296 623.406 146.52C631.212 148.236 638.582 151.537 645.059 156.219C679.481 181.513 664.562 223.032 651.74 255.662C647.999 265.182 644.393 274.928 640.664 284.484L613.238 356.599C605.713 376.304 598.573 396.359 591.251 416.152C586.675 428.523 583.049 440.615 577.578 452.769C573.088 462.584 567.545 471.88 561.044 480.496C543.938 503.039 519.922 519.421 491.624 523.434C475.417 524.253 458.155 522.392 441.879 521.074L382.03 516.257C372.356 515.438 362.674 514.722 352.985 514.108C336.383 513.031 319.011 512.693 305.587 501.289C288.808 487.036 288.811 461.63 294.413 442.117C299.097 425.804 305.593 409.747 311.449 393.782L342.546 309.35C350.273 288.299 357.886 267.207 365.384 246.074C369.473 234.53 372.605 222.945 377.755 211.785C383.984 198.284 391.697 184.891 401.46 173.647C418.45 154.079 441.449 138.952 467.845 137.204Z"/><path transform="scale(0.25 0.25)" d="M465.758 141.204C470.594 140.781 478.897 141.481 483.955 141.761L509.687 143.027L575.537 146.439C590.232 147.221 609.155 147.61 623.19 150.63C630.549 152.204 637.437 155.479 643.303 160.193C653.494 168.424 660.03 181.118 661.28 194.08C663.457 216.65 652.833 238.316 645.137 258.85L617.648 331.677C608.109 357.868 598.38 383.989 588.461 410.038C584.557 420.503 580.489 430.949 576.71 441.457C564.492 475.436 529.6 514.341 492.122 518.431C483.321 519.349 474.657 518.369 465.861 517.754L433.151 515.456C410.678 514.035 388.221 512.364 365.786 510.444C348.126 509.041 323.023 509.621 308.965 498.048C293.553 485.36 292.883 459.943 297.852 442.252C300.872 431.502 305.613 419.858 309.499 409.234L324.079 369.22C328.23 358.164 332.654 347.394 336.682 336.236C347.181 306.393 357.89 276.625 368.808 246.933C371.827 238.669 374.434 230.274 377.43 222.024C391.107 184.357 423.313 144.628 465.758 141.204Z"/><path fill="#555" transform="scale(0.25 0.25)" d="M464.53 146.175C469.34 145.556 481.807 146.498 486.966 146.812C496.86 147.406 506.756 147.947 516.656 148.434L577.829 151.616C596.383 152.593 624.151 151.876 639.015 163.268C671.358 188.056 651.642 228.757 640.886 257.917L612.105 334.438L585.055 406.781C577.158 428.015 570.003 451.478 556.631 469.857C541.073 491.242 520.615 507.905 494.005 512.377C485.35 513.329 476.044 512.276 467.323 511.64C456.801 510.85 446.274 510.124 435.744 509.463C413.298 508.181 390.866 506.662 368.452 504.908C340.617 502.914 305.365 506.047 300.767 469.976C299.711 461.11 300.314 452.124 302.547 443.478C305.488 432.106 310.636 419.644 314.614 408.503C322.258 387.096 330.951 365.775 338.633 344.435L372.343 250.502C375.3 242.407 378.025 234.368 380.835 226.131C388.447 203.812 401.542 183.179 419.143 167.428C432.696 155.3 446.435 148.552 464.53 146.175Z"/><path transform="scale(0.25 0.25)" d="M463.361 170.685C470.876 169.779 481.596 172.067 487.558 176.637C516.424 198.768 500.239 242.484 478.719 263.67C467.038 275.17 455.941 281.697 439.951 284.449C417.202 285.608 402.482 275.923 398.835 252.516C396.005 234.353 404.476 213.833 415.31 199.587C427.574 183.461 443.125 173.299 463.361 170.685Z"/><path fill="#555" transform="scale(0.25 0.25)" d="M460.767 177.163C477.04 174.344 492.86 184.296 495.817 200.944C502.031 235.93 476.182 271.076 441.967 278.431C380.376 284.254 400.262 185.933 460.767 177.163Z"/><path transform="scale(0.25 0.25)" d="M461.859 180.201C468.167 179.657 477.184 181.477 482.006 185.488C501.632 201.816 492.934 232.903 479.378 249.963C468.514 263.636 456.332 273.509 439.148 275.683C385.192 279.651 403.939 185.655 461.859 180.201Z"/><path fill="#555" transform="scale(0.25 0.25)" d="M459.326 185.651C507.087 182.474 493.123 258.863 443.03 270.435C390.784 275.157 408.07 193.717 459.326 185.651Z"/><path transform="scale(0.25 0.25)" d="M455.461 193.151C479.743 189.198 486.276 216.57 478.903 234.244C472.442 249.734 459.179 262.317 442.126 264.303C400.99 267.361 412.63 200.722 455.461 193.151Z"/><path fill="#555" transform="scale(0.25 0.25)" d="M455.24 196.595C492.329 193.83 483.336 252.355 444.023 260.997C405.514 264.097 414.791 204.768 455.24 196.595Z"/><path transform="scale(0.25 0.25)" d="M453.926 206.637C457.165 206.567 460.356 207.419 463.128 209.096C477.338 217.738 466.066 242.996 453.531 248.072C450.259 249.397 449.009 249.912 445.594 250.665C418.734 250.468 426.611 210.764 453.926 206.637Z"/><path fill="#555" transform="scale(0.25 0.25)" d="M454.002 209.673C475.886 211.273 468.097 242.419 445.489 247.571C423.152 247.454 430.235 213.045 454.002 209.673Z"/><path transform="scale(0.25 0.25)" d="M409.311 317.215C418.087 316.917 426.945 319.033 434.035 324.386C456.937 341.677 447.428 378.345 432.458 397.557C419.706 413.921 402.681 425.665 381.975 428.48C359.077 429.072 344.569 416.513 342.187 393.226C340.51 376.824 350.058 356.271 360.386 343.939C372.838 329.071 389.637 318.785 409.311 317.215Z"/><path fill="#555" transform="scale(0.25 0.25)" d="M406.769 323.688C414.203 322.967 425.286 325.592 430.884 330.533C450.562 347.903 440.282 381.323 425.354 398.263C413.489 411.728 400.957 420.604 383.124 422.264C375.749 423.23 365.714 420.654 360.192 415.817C339.893 398.137 348.973 365.92 364.049 348.006C375.482 334.421 388.952 325.437 406.769 323.688Z"/><path transform="scale(0.25 0.25)" d="M403.302 326.158C457.244 320.443 445.05 406.933 386.447 419.363C378.158 420.634 368.84 419.792 362.208 414.524C342.585 398.943 350.83 368.18 363.598 351.233C374.115 337.275 386.505 328.774 403.302 326.158Z"/><path fill="#555" transform="scale(0.25 0.25)" d="M405.064 330.68C411.393 330.462 418.457 332.222 423.301 336.349C441.434 351.894 433.075 380.292 420.075 396.283C410.908 407.559 399.112 414.78 384.621 416.303C378.235 416.896 370.012 414.865 365.273 410.635C347.642 394.759 357.271 366.218 370.077 350.535C378.991 339.62 390.958 332.14 405.064 330.68Z"/><path transform="scale(0.25 0.25)" d="M401.584 337.171C445.249 333.423 436.766 403.839 389.065 414.676C343.507 421.089 352.975 343.875 401.584 337.171Z"/><path fill="#555" transform="scale(0.25 0.25)" d="M401.214 340.618C441.333 336.786 431.575 401.711 389.916 410.925C346.677 415.006 358.445 347.965 401.214 340.618Z"/><path transform="scale(0.25 0.25)" d="M397.881 351.611C402.209 351.347 407.12 351.213 410.672 353.877C422.009 362.379 418.208 380.912 410.678 390.684C405.141 397.871 399.079 401.554 390.436 402.825C360.046 405.201 366.546 358.486 397.881 351.611Z"/><path fill="#555" transform="scale(0.25 0.25)" d="M397.983 355.08C424.098 352.285 418.839 392.996 391.713 399.674C365.124 403.124 369.638 362.004 397.983 355.08Z"/><path transform="scale(0.25 0.25)" d="M569.226 215.638C616.779 212.229 616.367 262.096 596.4 291.614C584.449 309.281 567.865 324.015 546.479 328.365C517.806 333.268 501.975 312.082 505.353 285.094C509.482 252.101 536.047 221.282 569.226 215.638Z"/><path fill="#555" transform="scale(0.25 0.25)" d="M571.755 221.681C627.87 221.271 601.539 317.302 542.121 322.886C534.758 323.325 527.596 321.761 521.792 316.967C500.933 299.739 512.793 264.613 527.032 247.316C538.56 233.312 553.794 223.515 571.755 221.681Z"/><path transform="scale(0.25 0.25)" d="M567.169 224.627C582.774 223.414 595.986 230.584 598.349 247.132C602.799 273.005 579.041 308.594 552.741 312.238C517.273 317.151 517.015 275.61 534.192 255.884C543.553 245.134 551.266 238.425 565.626 236.513C584.273 234.031 592.528 245.186 594.714 261.962C596.089 245.729 590.995 233.722 573.497 230.521C566.867 230.442 561.475 230.855 555.239 233.471C539.849 240.085 528.126 252.598 521.463 267.843C514.586 283.577 514.297 306.921 533.041 314.542C545.471 319.596 560.019 313.963 571.722 309.028C559.146 318.962 539.109 326.096 524.79 316.294C504.328 302.288 512.75 271.216 524.224 254.322C534.694 238.908 549.097 228.365 567.169 224.627Z"/><path fill="#555" transform="scale(0.25 0.25)" d="M566.181 240.154C593.622 236.772 597.174 269.174 583.998 286.123C574.865 297.871 567.396 305.975 552.288 308.97C509.766 312.009 523.775 246.317 566.181 240.154Z"/><path transform="scale(0.25 0.25)" d="M563.42 251.618C590.566 249.467 585.357 293.29 555.265 298.453C525.155 299.286 535.068 257.26 563.42 251.618Z"/><path fill="#555" transform="scale(0.25 0.25)" d="M563.628 255.178C588.891 255.848 578.687 291.124 555.139 295.5C529.188 295.008 540.183 258.662 563.628 255.178Z"/><path transform="scale(0.25 0.25)" d="M515.831 383.649C532.854 381.536 546.268 390.87 549.701 407.751C552.822 423.096 548.041 438.974 539.592 451.836C529.687 466.97 514.12 477.493 496.385 481.044C478.463 483.696 464.154 475.19 461.216 456.548C458.518 439.607 464.978 422.922 474.877 409.373C485.306 395.1 498.384 386.439 515.831 383.649Z"/><path fill="#555" transform="scale(0.25 0.25)" d="M514.346 390.171C563.141 388.083 549.448 463.564 497.994 475.428C446.336 481.207 464.09 396.107 514.346 390.171Z"/><path transform="scale(0.25 0.25)" d="M513.991 392.682C559.806 391.788 545.047 462.307 498.478 472.39C491.886 473.134 483.941 473.011 478.773 468.619C462.316 454.634 470.066 426.907 481.538 412.568C490.515 401.347 500.281 394.537 513.991 392.682Z"/><path fill="#555" transform="scale(0.25 0.25)" d="M511.743 397.616C553.907 394.585 541.091 459.696 498.683 467.908C458.116 472.061 468.737 406.389 511.743 397.616Z"/><path transform="scale(0.25 0.25)" d="M511.696 408.147C539.467 407.089 532.828 454.362 502.164 459.46C472.802 460.424 482.745 412.093 511.696 408.147Z"/><path fill="#555" transform="scale(0.25 0.25)" d="M512.729 411.653C536.734 413.68 527.012 452.052 501.368 456.007C476.976 453.901 487.717 414.96 512.729 411.653Z"/><path transform="scale(0.25 0.25)" d="M350.429 440.076C375.271 437.243 369.582 473.843 344.064 480.195C317.273 481.3 325.633 446.346 350.429 440.076Z"/><path fill="#EEEEED" transform="scale(0.25 0.25)" d="M350.422 443.546C371.785 442.132 363.484 471.25 344.164 476.47C322.593 477.829 329.428 449.804 350.422 443.546Z"/><path fill="#555" transform="scale(0.25 0.25)" d="M643.178 148.965C680.195 161.392 681.326 201.669 670.032 233.056C662.444 254.143 654.281 274.853 646.345 295.786L610.286 391.912C605.244 405.568 600.285 419.254 595.409 432.97C590.605 446.319 585.329 461.549 577.771 473.665C558.741 504.171 526.502 531.942 489.198 533.834C477.718 534.416 465.617 532.917 454.139 531.837C441.108 530.632 428.069 529.51 415.023 528.472C388.57 526.318 362.056 525.229 335.632 522.675C320.077 521.172 311.914 516.758 301.49 505.453L301.876 504.339C314.934 518.263 337.121 518.698 354.813 519.821C363.571 520.374 372.321 521.037 381.062 521.809L441.703 526.861C453.207 527.815 464.766 528.857 476.292 529.509C504.018 531.078 529.526 518.711 549.459 499.713C562.268 487.708 572.773 473.461 580.454 457.675C585.982 446.565 590.133 431.616 594.596 419.738C601.82 400.511 609.092 381.326 616.288 362.084L646.315 282.237C662.694 239.367 694.419 180.801 643.178 148.965Z"/><path fill="#232323" transform="scale(0.25 0.25)" d="M296.594 498.581C298.154 499.933 300.742 502.646 301.876 504.339L301.49 505.453C299.594 503.42 298.123 500.927 296.594 498.581Z"/><path fill="#6C6B6B" fill-opacity="0.94901961" transform="scale(0.25 0.25)" d="M58.2492 953.463C59.1482 959.274 38.2222 1004.62 39.5276 1010.85C40.2048 1010.6 40.2027 1010.74 40.5002 1009.95L71.9712 923.498C75.3153 914.351 81.7743 894.578 85.5566 886.51L86.1844 886.541C70.4246 932.265 52.2625 978.217 36.2112 1024L32.8686 1024C36.0275 1014.15 40.0727 1003.53 43.5954 993.716C48.3381 980.247 53.2229 966.828 58.2492 953.463Z"/></svg>