<?xml version="1.0" encoding="utf-8" ?><svg xmlns="http://www.w3.org/2000/svg" xmlns:xlink="http://www.w3.org/1999/xlink" width="256" height="256" viewBox="0 0 256 256"><path fill="#3F3F3F" transform="scale(0.25 0.25)" d="M503.967 168.313C526.288 164.261 556.279 164.161 578.628 168.364C600.759 171.657 621.989 179.42 641.023 191.182C649.427 195.357 658.382 200.471 666.57 205.121C685.656 215.785 705.429 227.091 724.575 237.447C733.001 241.78 741.023 246.659 749.304 251.248C767.07 260.881 784.716 270.73 802.241 280.795C808.222 284.189 814.214 287.591 820.209 290.955C821.866 291.884 828.455 295.302 829.629 296.244C839.384 301.348 849.015 307.089 858.792 312.313C867.613 316.972 876.335 321.814 884.954 326.837C887.88 328.514 893.548 331.502 896.045 333.236C898.514 334.315 903.76 337.14 905.874 338.763C914.738 343.173 924.406 349.086 933.393 353.841C936.386 355.468 955.06 365.378 956.087 366.679C963.66 370.11 979.823 379.025 985.773 384.323C989.392 386.858 997.313 393.659 999.174 397.574C1011.2 412.658 1010.86 422.689 1010.22 441.112C1010.03 446.585 1010.49 453.279 1010.09 458.673C1010.6 463.189 1010.44 471.186 1010.44 475.967L1010.44 506.141L1010.41 554.502C1010.41 562.325 1010.79 584.401 1008.99 590.814C1003.21 609.83 990.117 625.771 972.585 635.127C951.44 646.679 926.87 658.517 905.257 669.392L740.799 751.674L612.221 817.413C594.894 826.106 575.884 836.877 558.293 844.267C542.74 850.802 512.605 857.915 495.878 858.001C478.321 860.375 444.21 857.27 427.454 852.268C412.791 849.877 390.91 838.308 377.679 831.084C335.99 807.791 294.497 784.151 253.202 760.166C214.443 738.419 175.895 716.296 137.564 693.801C123.755 685.917 108.749 677.609 95.2711 669.314C92.1318 667.975 77.9687 659.606 74.5276 657.54C63.1538 650.714 48.5726 643.365 37.9427 635.791C23.843 626.714 12.9499 608.62 12.4041 591.752C11.5874 560.459 12.1791 525.741 12.1631 494.253L12.1027 456.8C12.002 443.044 10.4269 429.046 17.1431 416.539C19.1272 410.818 27.2531 401.828 31.6504 397.699C45.6744 384.454 85.5963 366.579 104.762 356.877L244.281 287.577L374.283 223.283L425.751 198.017C455.325 183.413 471.226 174.265 503.967 168.313Z"/><path fill="#3F3F3F" transform="scale(0.25 0.25)" d="M13.1176 448.452C17.7916 459.826 22.9856 469.486 33.3105 476.86C49.6527 488.531 69.0472 498.028 86.5843 508.147C128.208 532.136 169.965 555.896 211.851 579.425L336.064 649.668L374.328 670.975C383.849 676.237 394.498 682.574 404.48 686.632C431.212 697.499 461.376 700.504 490.03 700.044C496.084 699.946 505.828 698.317 510.854 698.552C509.54 706.874 511.589 724.98 510.529 734.151C510.964 741.103 510.752 749.125 510.776 756.152C510.791 760.513 510.948 768.236 510.547 772.354C510.612 775.311 510.723 778.212 510.548 781.166C511.63 784.424 511.358 787.002 510.983 790.414L511.026 790.728C511.275 794.054 511.716 798.744 510.548 801.834C510.659 805.744 510.903 815.943 510.547 819.646C510.732 823.03 511.291 829.236 510.056 832.332C510.226 836.67 508.692 852.418 509.473 854.287C507.965 854.526 501.929 855.528 500.711 856.065L500.934 856.178C499.545 856.531 498.279 856.85 496.868 857.133L495.878 858.001C478.321 860.375 444.21 857.27 427.454 852.268C412.791 849.877 390.91 838.308 377.679 831.084C335.99 807.791 294.497 784.151 253.202 760.166C214.443 738.419 175.895 716.296 137.564 693.801C123.755 685.917 108.749 677.609 95.2711 669.314C92.1318 667.975 77.9687 659.606 74.5276 657.54C63.1538 650.714 48.5726 643.365 37.9427 635.791C23.843 626.714 12.9499 608.62 12.4041 591.752C11.5874 560.459 12.1791 525.741 12.1631 494.253C13.0751 479.975 13.8921 462.777 13.1176 448.452Z"/><path fill="#010102" transform="scale(0.25 0.25)" d="M377.679 831.084C382.143 829.099 406.548 844.941 412.491 846.664C414.553 847.262 427.233 851.109 427.454 852.268C412.791 849.877 390.91 838.308 377.679 831.084Z"/><path fill="#262526" transform="scale(0.25 0.25)" d="M95.2711 669.314C102.771 668.698 127.83 686.79 135.305 691.36C136.479 692.078 136.923 692.596 137.564 693.801C123.755 685.917 108.749 677.609 95.2711 669.314Z"/><path fill="#010102" transform="scale(0.25 0.25)" d="M12.4041 591.752C13.3659 595.071 14.6928 599.145 15.7625 602.475C17.7372 608.5 20.5025 614.236 23.9859 619.534C26.8517 623.901 37.6977 633.714 37.9427 635.791C23.843 626.714 12.9499 608.62 12.4041 591.752Z"/><path fill="#5E5E5E" transform="scale(0.25 0.25)" d="M510.547 772.354C509.263 769.268 509.209 737.372 510.529 734.151C510.964 741.103 510.752 749.125 510.776 756.152C510.791 760.513 510.948 768.236 510.547 772.354Z"/><path fill="#5E5E5E" transform="scale(0.25 0.25)" d="M510.056 832.332C509.657 828.916 509.227 822.772 510.547 819.646C510.732 823.03 511.291 829.236 510.056 832.332Z"/><path fill="#5E5E5E" transform="scale(0.25 0.25)" d="M510.548 801.834C510.212 798.866 509.665 793.33 511.026 790.728C511.275 794.054 511.716 798.744 510.548 801.834Z"/><path fill="#5E5E5E" transform="scale(0.25 0.25)" d="M510.548 781.166C511.63 784.424 511.358 787.002 510.983 790.414C509.684 787.904 510.294 784.009 510.548 781.166Z"/><path fill="#919090" transform="scale(0.25 0.25)" d="M990.468 468.15C999.489 460.006 1002.67 454.528 1008.12 444.105C1008.36 449.563 1008.51 455.397 1008.96 460.814L1009.44 461.198L1009.44 459.323L1010.09 458.673C1010.6 463.189 1010.44 471.186 1010.44 475.967L1010.44 506.141L1010.41 554.502C1010.41 562.325 1010.79 584.401 1008.99 590.814C1003.21 609.83 990.117 625.771 972.585 635.127C951.44 646.679 926.87 658.517 905.257 669.392L740.799 751.674L612.221 817.413C594.894 826.106 575.884 836.877 558.293 844.267C542.74 850.802 512.605 857.915 495.878 858.001L496.868 857.133C498.279 856.85 499.545 856.531 500.934 856.178L500.711 856.065C501.929 855.528 507.965 854.526 509.473 854.287C508.692 852.418 510.226 836.67 510.056 832.332C511.291 829.236 510.732 823.03 510.547 819.646C510.903 815.943 510.659 805.744 510.548 801.834C511.716 798.744 511.275 794.054 511.026 790.728L510.983 790.414C511.358 787.002 511.63 784.424 510.548 781.166C510.723 778.212 510.612 775.311 510.547 772.354C510.948 768.236 510.791 760.513 510.776 756.152C510.752 749.125 510.964 741.103 510.529 734.151C511.589 724.98 509.54 706.874 510.854 698.552C515.059 698.337 519.994 697.216 524.165 696.447C553.522 691.028 578.774 677.218 605.231 664.014L657.203 638.329L816.411 558.579L928.601 503.436C948.14 493.592 963.961 486.688 982.457 474.723C982.748 474.244 989.523 468.911 990.468 468.15Z"/><path fill="#262526" transform="scale(0.25 0.25)" d="M990.468 468.15C999.489 460.006 1002.67 454.528 1008.12 444.105C1008.36 449.563 1008.51 455.397 1008.96 460.814L1009.44 461.198L1009.44 459.323L1010.09 458.673C1010.6 463.189 1010.44 471.186 1010.44 475.967L1010.44 506.141L1010.41 554.502C1010.41 562.325 1010.79 584.401 1008.99 590.814C1007.14 593.061 1004.95 597.642 1003.58 600.396C1000.31 606.986 995.071 614.457 989.638 619.42C991.03 609.313 989.972 597.391 989.971 587.07C989.966 553.942 989.341 520.878 990.083 487.748C990.219 481.678 991.313 473.956 990.468 468.15Z"/><path fill="#010102" transform="scale(0.25 0.25)" d="M989.638 619.42C995.071 614.457 1000.31 606.986 1003.58 600.396C1004.95 597.642 1007.14 593.061 1008.99 590.814C1003.21 609.83 990.117 625.771 972.585 635.127C951.44 646.679 926.87 658.517 905.257 669.392L740.799 751.674L612.221 817.413C594.894 826.106 575.884 836.877 558.293 844.267C542.74 850.802 512.605 857.915 495.878 858.001L496.868 857.133C498.279 856.85 499.545 856.531 500.934 856.178L500.711 856.065C501.929 855.528 507.965 854.526 509.473 854.287C528.214 851.28 545.959 847.567 563.299 839.526C584.354 829.761 605.978 818.026 626.677 807.359L750.466 744.05L837.918 700.872C848.408 695.645 858.449 689.844 869.04 684.713C894.003 672.786 918.78 660.475 943.363 647.785C954.645 642.008 972.798 633.511 982.289 625.969C984.405 624.408 987.611 621.288 989.638 619.42Z"/><path fill="#5E5E5E" transform="scale(0.25 0.25)" d="M990.468 468.15C991.313 473.956 990.219 481.678 990.083 487.748C989.341 520.878 989.966 553.942 989.971 587.07C989.972 597.391 991.03 609.313 989.638 619.42C987.611 621.288 984.405 624.408 982.289 625.969C983.099 624.401 984.936 619.325 985.151 617.619C982.305 612.278 984.727 614.33 985.283 609.88C985.62 607.185 985.258 601.937 985.197 599.072C984.872 599.589 985.026 602.125 985.026 602.97L984.69 603.268C984.05 600.818 983.688 600.068 983.914 597.617C988.039 592.454 982.65 582.263 985.137 579.586C985.789 580.975 985.53 585.887 985.519 587.72L986.06 587.727C986.075 587.656 986.077 567.969 986.065 567.905L985.675 568.081C985.577 570.292 985.446 572.501 985.282 574.708L984.902 574.743C984.806 565.097 983.777 562.008 985.238 551.251C985.613 555.726 985.108 562.727 985.715 566.432L986.709 498.988C986.741 493.492 987.372 477.226 986.208 472.879C984.029 474.687 984.864 474.523 982.457 474.723C982.748 474.244 989.523 468.911 990.468 468.15Z"/><path fill="#010102" transform="scale(0.25 0.25)" d="M960.614 525.353C963.172 526.341 963.257 528.974 963.19 531.401C962.717 548.621 962.995 565.83 963.161 583.052C962.927 586.359 963.901 598.334 962.739 600.673C960.437 605.309 939.109 614.77 934.963 616.857C918.829 625.038 902.644 633.121 886.411 641.105C885.286 641.039 885.702 641.078 884.615 640.427C883.365 638.072 884.001 628.134 884.058 624.914C884.399 605.396 883.282 585.746 884.747 566.313C885.08 561.896 919.995 546.311 925.422 543.145C937.251 537.505 949.001 530.885 960.614 525.353Z"/><path fill="#262526" transform="scale(0.25 0.25)" d="M900.92 558.73C910.105 553.506 921.947 547.78 931.504 542.852C934.387 545.715 935.95 546.526 939.419 548.475C941.76 547.806 945.924 546.47 948.142 546.934L948.601 548.912C949.403 548.099 949.066 548.582 949.56 547.429C949.24 554.03 950.705 572.572 948.214 576.938C946.876 576.676 942.869 583.623 941.192 585.028C939.596 586.364 939.53 586.595 937.48 587.907C933.578 588.275 931.857 588.187 927.909 587.943C928.31 581.842 927.565 572.151 918.257 579.594C914.601 582.518 914.368 588.419 914.363 592.915C908.308 597.893 900.007 606.339 893.498 610.407C893.125 586.073 890.365 580.72 900.92 558.73Z"/><path fill="#A9A8A8" transform="scale(0.25 0.25)" d="M933.785 541.89C938.086 539.386 947.123 534.527 951.818 532.902L951.932 573.083C951.95 580.247 952.22 591.286 951.494 598.151C946.511 601.404 939.111 604.841 933.672 607.548C924.113 612.349 914.504 617.05 904.846 621.651C899.614 624.144 891.634 628.686 886.897 630.667L886.976 566.095C890.559 563.391 894.745 561.312 898.741 559.238C897.467 562.627 892.722 571.357 892.279 574.828C890.963 585.125 890.765 603.979 892.461 613.987C893.235 618.552 906.35 617.262 908.299 614.906C915.202 611.973 916.36 598.574 923.408 600.756C929.434 602.621 934.97 603.264 940.662 600.029C945.049 596.986 947.785 590.602 942.684 586.737C944.896 583.639 947.063 580.62 948.214 576.938C950.705 572.572 949.24 554.03 949.56 547.429C948.576 545.418 949.083 545.706 947.447 544.744C945.005 544.649 942.144 546.264 939.69 547.109C936.659 545.081 936.252 544.672 933.785 541.89Z"/><path fill="#262526" transform="scale(0.25 0.25)" d="M960.528 527.955L961.255 528.85C961.575 531.397 961.427 534.053 961.334 536.624C960.638 555.864 961.045 575.087 961.352 594.326C961.386 596.489 960.894 598.902 960.282 600.964C956.101 605.696 899.25 632.545 887.731 638.314L886.993 638.203C886.234 636.761 886.513 633.944 886.54 632.175C894.335 629.791 947.331 603.919 951.913 599.544C952.946 598.557 953.141 597.222 953.302 595.839C954.11 588.885 953.572 581.336 953.58 574.324C953.515 560.028 953.601 545.731 953.836 531.437L960.528 527.955Z"/><path fill="#010102" transform="scale(0.25 0.25)" d="M646.865 716.921C656.161 717.025 648.667 737.107 645.596 741.777C643.132 745.56 639.973 748.841 636.286 751.445C631.557 754.783 586.974 778.088 582.616 778.994C576.31 775.1 577.422 763.855 579.385 757.793C583.044 746.488 598.683 741.25 608.839 736.173C621.565 729.855 634.24 723.438 646.865 716.921Z"/><path fill="#FBF9FB" transform="scale(0.25 0.25)" d="M645.073 721.689C651.283 724.622 641.721 744.65 634.979 748.142C618.243 756.809 601.525 766.181 584.479 774.143C583.338 774.676 582.102 773.469 581.28 772.874L580.665 770.893L581.124 770.401L584.77 771.593C588.75 770.363 600.049 763.719 604.506 761.436C613.951 756.523 622.952 752.326 632.28 747.071C640.013 742.714 644.25 734.616 644.469 725.769C644.444 726.752 643.392 723.01 643.39 723.002L645.073 721.689Z"/><path fill="#5E5E5E" transform="scale(0.25 0.25)" d="M609.762 741.783C611.087 742.864 611.601 743.644 611.822 745.272C611.43 747.102 610.851 747.351 609.416 748.569L608.224 748.333C606.409 745.482 607.643 743.654 609.762 741.783Z"/><path fill="#5E5E5E" transform="scale(0.25 0.25)" d="M601.645 745.796C603.348 746.316 603.293 747.017 603.629 748.54C603.112 750.746 603.11 750.827 601.341 752.317L600.18 752.168C598.241 749.707 599.563 747.522 601.645 745.796Z"/><path fill="#919090" transform="scale(0.25 0.25)" d="M623.755 733.82L625.745 733.985C627.596 736.141 627.219 737.764 625.426 739.779C623.465 740.586 624.303 740.682 622.781 740.113C622.674 738.297 624.023 740.234 625.635 737.833C623.539 736.391 622.88 736.271 623.755 733.82Z"/><path fill="#5E5E5E" transform="scale(0.25 0.25)" d="M618.991 739.573C619.673 740.263 619.551 741.258 619.478 742.129C618.35 743.829 618.217 743.713 616.353 744.424C616.75 743.506 618.067 742.726 618.98 742.021L618.427 741.334C617.329 741.925 616.332 742.421 615.215 742.965L615.105 742.658C616.349 740.965 617.133 740.688 618.991 739.573Z"/><path fill="#010102" transform="scale(0.25 0.25)" d="M754.685 662.408C759.878 663.777 757.934 672.716 756.768 676.661C754.207 685.329 748.386 694.292 739.99 698.247C723.759 705.895 708.145 715.263 691.673 722.331C689.991 723.052 686.579 722.186 684.889 721.662C671.966 709.977 685.233 695.79 697.466 691.65C700.053 690.775 705.939 687.344 708.607 685.978L754.685 662.408Z"/><path fill="#FBF9FB" transform="scale(0.25 0.25)" d="M750.545 668.106C751.515 668.267 751.437 668.299 752.365 668.674C753.034 669.761 752.964 670.546 752.93 671.786C752.742 678.65 749.348 685.781 744.171 690.34C739.795 694.193 698.731 714.897 692.291 717.084C690.404 717.724 688.488 717.547 686.537 717.401C685.373 716.08 685.54 716.76 685.343 715.343C689.396 715.32 693.443 714.46 697.047 712.469C711.587 704.437 726.996 697.545 741.509 689.57C748.461 685.75 751.603 675.795 750.545 668.106Z"/><path fill="#262526" transform="scale(0.25 0.25)" d="M707.503 693.248C709.273 693.942 709.13 694.302 709.417 696.04C708.833 698.217 708.778 698.267 706.976 699.735C705.857 698.196 705.654 698.145 705.311 696.235C705.995 694.196 705.738 694.856 707.503 693.248Z"/><path fill="#010102" transform="scale(0.25 0.25)" d="M839.289 622.533C845.435 624.212 844.756 630.862 842.363 635.41C837.253 645.121 823.4 649.622 814.017 654.57C808.038 657.722 799.59 662.011 793.482 663.958C784.555 662.333 791.349 646.322 795.65 644.433C808.283 638.884 826.76 626.473 839.289 622.533Z"/><path fill="#A9A8A8" transform="scale(0.25 0.25)" d="M824.137 633.017C826.659 633.758 828.313 633.243 830.725 634.174C820.382 640.503 809.151 645.443 798.275 650.861L791.836 654.277C792.427 652.941 793.861 649.55 794.851 648.751C802.334 642.715 815.355 637.522 824.137 633.017Z"/><path fill="#5E5E5E" transform="scale(0.25 0.25)" d="M837.802 638.041L837.981 638.149L837.944 638.864C834.037 643.578 801.875 658.235 794.203 662.076C793.671 661.109 793.785 661.638 793.916 660.48C797.315 659.055 807.43 654.027 810.803 652.236C817.587 648.636 832.058 642.23 837.802 638.041Z"/><path fill="#010102" transform="scale(0.25 0.25)" d="M619.66 687.055C634.174 688.986 626.573 711.996 613.676 716.535C599.228 715.622 607.378 690.841 619.66 687.055Z"/><path fill="#919090" transform="scale(0.25 0.25)" d="M619.612 688.454C632.151 690.812 625.072 711.156 613.888 715.106C601.293 714.586 608.246 693.252 619.612 688.454Z"/><path fill="#A9A8A8" transform="scale(0.25 0.25)" d="M811.14 675.979L812.145 675.319C815.594 677.487 813.625 682.332 809.228 683.339L808.005 682.974C806.963 680.909 807.403 677.91 809.556 676.778L811.14 675.979Z"/><path fill="#262526" transform="scale(0.25 0.25)" d="M811.14 675.979L812.145 675.319C815.594 677.487 813.625 682.332 809.228 683.339L808.005 682.974C806.963 680.909 807.403 677.91 809.556 676.778C808.839 678.796 808.284 679.784 809.117 681.762L810.141 682.096C812.9 680.788 813.862 677.906 811.14 675.979Z"/><path fill="#262526" transform="scale(0.25 0.25)" d="M826.629 667.155C828.654 668.028 828.883 668.619 829.565 670.512C829.307 673.434 828.114 674.326 825.929 676.184C824.81 676.004 825.192 676.072 824.152 675.425C822.502 672.372 824.495 669.357 826.629 667.155Z"/><path fill="#A9A8A8" transform="scale(0.25 0.25)" d="M826.037 668.657C827.793 669.191 827.694 669.276 828.334 670.802C828.058 672.928 827.84 673.071 826.595 674.912C822.959 674.867 825.145 670.374 826.037 668.657Z"/><path fill="#262526" transform="scale(0.25 0.25)" d="M819.854 671.351C823.83 674.788 821.495 677.402 818.363 680.188L817.307 680.373L816.493 679.548C815.831 675.529 816.328 673.448 819.854 671.351Z"/><path fill="#A9A8A8" transform="scale(0.25 0.25)" d="M819.059 672.22C822.232 674.278 820.375 677.136 818.488 679.216C815.949 677.005 817.39 674.339 819.059 672.22Z"/><path fill="#5E5E5E" transform="scale(0.25 0.25)" d="M630.945 764.771C631.895 765.44 632.126 765.596 633.269 765.794C633.276 769.151 633.112 771.406 632.801 774.75C632.144 771.667 632.085 769.982 631.89 766.845C630.192 767.534 628.694 767.874 627.66 769.305L627.9 770.548C627.95 772.341 628.21 775.156 627.642 776.735C626.479 774.791 627.431 771.755 626.354 769.75C624.94 770.534 624.365 771.196 623.036 771.101C625.015 767.202 630.332 768.721 630.945 764.771Z"/><path fill="#262526" transform="scale(0.25 0.25)" d="M720.279 728.399L720.709 728.741C722.328 732.769 720.028 735.308 716.549 736.768L716.366 736.749C717.033 731.899 714.444 731.174 720.279 728.399Z"/><path fill="#919090" transform="scale(0.25 0.25)" d="M718.553 729.674C719.809 730.318 719.28 729.877 719.961 731.23C719.85 733.199 719.538 733.543 718.633 735.252C717.485 734.193 717.89 734.594 717.248 732.99C717.254 731.156 717.473 731.135 718.553 729.674Z"/><path fill="#3F3F3F" transform="scale(0.25 0.25)" d="M620.294 769.805C622.918 771.444 625.071 776.233 623.16 778.778C621.75 777.84 623.799 774.179 620.513 770.728C618.304 773.186 618.125 774.196 615.295 776.878C616.09 774.578 618.654 771.592 620.294 769.805Z"/><path fill="#3F3F3F" transform="scale(0.25 0.25)" d="M605.184 782.819C606.172 785.245 605.062 784.585 606.674 787.401L608.06 787.417C609.233 785.394 611.341 784.456 613.639 784.822C611.393 786.037 607.905 788.825 605.575 788.032C604.679 786.486 605.055 784.67 605.184 782.819Z"/><path fill="#3F3F3F" transform="scale(0.25 0.25)" d="M725.562 726.187L726.177 726.466C725.895 727.639 723.464 732.201 722.714 733.095L722.075 732.959L721.839 732.433C722.538 731.311 725.137 726.56 725.562 726.187Z"/><path fill="#262526" transform="scale(0.25 0.25)" d="M713.056 731.178L714.045 731.686C714.282 734.554 713.597 736.892 712.671 739.604L711.823 739.249L711.94 738.854C712.906 735.397 713.076 734.725 713.056 731.178Z"/><path fill="#3F3F3F" transform="scale(0.25 0.25)" d="M733.499 721.206L734.297 721.922C734.666 723.821 734.069 726.092 733.722 728.053L733.052 727.243C733.051 724.997 733.248 723.425 733.499 721.206Z"/><path fill="#262526" transform="scale(0.25 0.25)" d="M730.04 722.888C731.901 724.688 731.555 726.335 731.27 728.697L730.587 728.243L730.04 722.888Z"/><path fill="#010102" transform="scale(0.25 0.25)" d="M999.174 397.574C1011.2 412.658 1010.86 422.689 1010.22 441.112C1010.03 446.585 1010.49 453.279 1010.09 458.673L1009.44 459.323L1009.44 461.198L1008.96 460.814C1008.51 455.397 1008.36 449.563 1008.12 444.105C1002.67 454.528 999.489 460.006 990.468 468.15C989.523 468.911 982.748 474.244 982.457 474.723C963.961 486.688 948.14 493.592 928.601 503.436L816.411 558.579L657.203 638.329L605.231 664.014C578.774 677.218 553.522 691.028 524.165 696.447C519.994 697.216 515.059 698.337 510.854 698.552C505.828 698.317 496.084 699.946 490.03 700.044C461.376 700.504 431.212 697.499 404.48 686.632C394.498 682.574 383.849 676.237 374.328 670.975L336.064 649.668L211.851 579.425C169.965 555.896 128.208 532.136 86.5843 508.147C69.0472 498.028 49.6527 488.531 33.3105 476.86C22.9856 469.486 17.7916 459.826 13.1176 448.452C13.8921 462.777 13.0751 479.975 12.1631 494.253L12.1027 456.8C12.002 443.044 10.4269 429.046 17.1431 416.539C17.59 419.159 14.9505 425.045 14.4105 427.927C9.76125 452.749 26.0712 470.818 46.1954 482.425C71.5225 497.033 97.0706 511.19 122.485 525.64C175.825 556.524 229.457 586.902 283.373 616.769C310.984 632.246 338.057 648.727 366.019 663.633C383.467 672.934 399.967 683.307 419.172 688.998C454.722 699.533 496.221 700.581 532.247 691.911C556.632 686.043 576.597 675.334 598.711 664.406L653.293 637.385L812.973 557.434C865.938 530.972 920.396 505.693 972.778 478.163C996.256 465.824 1017.63 437.082 1005.69 410.223C1004.06 406.536 999.896 401.387 999.174 397.574Z"/><path fill="#010102" transform="scale(0.25 0.25)" d="M31.6504 397.699C45.6744 384.454 85.5963 366.579 104.762 356.877L244.281 287.577L374.283 223.283L425.751 198.017C455.325 183.413 471.226 174.265 503.967 168.313C503.575 168.805 502.866 169.741 502.223 169.919C493.17 172.418 484.183 174.285 475.269 177.333C459.184 182.835 444.386 191.018 429.247 198.633C418.099 204.225 406.774 209.298 395.569 214.82L149.081 337.035L90.6818 366.19C77.8508 372.533 65.2782 378.575 52.5344 385.142C44.543 389.26 39.5727 393.904 32.4201 397.733L31.6504 397.699Z"/><path fill="#010102" transform="scale(0.25 0.25)" d="M578.628 168.364C600.759 171.657 621.989 179.42 641.023 191.182C635.853 190.141 630.363 186.847 625.574 184.631C617.897 181.078 609.833 177.503 601.707 175.11C595.788 173.367 582.458 172.44 578.628 168.364Z"/><path fill="#010102" transform="scale(0.25 0.25)" d="M829.629 296.244C839.384 301.348 849.015 307.089 858.792 312.313C867.613 316.972 876.335 321.814 884.954 326.837C887.88 328.514 893.548 331.502 896.045 333.236C895.825 333.24 895.605 333.261 895.386 333.247C892.652 333.07 831.899 299.471 829.416 296.833L829.629 296.244Z"/><path fill="#262526" transform="scale(0.25 0.25)" d="M724.575 237.447C721.463 238.425 697.213 222.939 692.428 220.738C688.183 218.785 667.601 208.073 666.57 205.121C685.656 215.785 705.429 227.091 724.575 237.447Z"/><path fill="#010102" transform="scale(0.25 0.25)" d="M956.087 366.679C963.66 370.11 979.823 379.025 985.773 384.323C985.475 384.488 985.114 384.493 984.78 384.559C979.753 381.604 958.307 369.926 956.087 366.679Z"/><path fill="#262526" transform="scale(0.25 0.25)" d="M905.874 338.763C914.738 343.173 924.406 349.086 933.393 353.841L932.246 354.162C927.464 352.296 908.165 342.931 905.874 338.763Z"/><path fill="#262526" transform="scale(0.25 0.25)" d="M523.241 376.697C527.472 375.759 536.316 376.673 540.603 377.245C540.466 380.919 540.016 386.183 541.437 389.534C550.651 411.251 593.377 415.227 611.678 408.41C618.947 419.222 623.952 428.443 623.05 442.024C621.753 461.554 592.518 460.552 578.889 467.482C573.308 470.32 568.571 475.715 563.612 479.932C552.065 489.752 534.778 488.178 520.361 486.661C515.395 486.559 505.951 485.257 500.762 484.513C475.962 480.776 448.382 475.542 427.682 460.674C415.682 452.054 412.103 438.938 420.53 426.291C428.083 414.954 439.315 410.163 452.56 408.786C457.305 408.293 462.629 407.589 466.936 405.438C470.775 403.456 473.399 397.169 476.03 394.322C486.869 382.597 508.444 378.358 523.241 376.697Z"/><path fill="#262526" transform="scale(0.25 0.25)" d="M452.044 357.238C457.783 360.647 470.452 373.175 475.228 378.572C471.613 385.906 465.939 395.392 461.038 401.762C457.699 404.307 454.346 400.829 451.714 398.424C448.909 395.842 439.98 387.887 439.61 384.394C439.096 379.536 449.678 361.318 452.044 357.238Z"/></svg>