<?xml version="1.0" encoding="utf-8" ?><svg xmlns="http://www.w3.org/2000/svg" xmlns:xlink="http://www.w3.org/1999/xlink" width="256" height="256" viewBox="0 0 256 256"><path fill="#F8A28E" transform="scale(0.25 0.25)" d="M277.645 430.604C276.7 427.527 271.482 416.343 270.033 413.074C264.238 400.206 258.531 387.3 252.91 374.355L197.558 245.403C190.483 229.049 182.782 212.835 176.01 196.352C167.669 175.554 159.046 150.754 167.926 128.857C175.126 111.101 192.107 104.358 210.24 106.488C222.454 107.923 234.381 110.479 246.571 112.402L344.428 128.5L487.247 151.103C505.79 154.107 544.019 158.603 559.98 165.488C597.284 181.579 621.52 219.672 635.542 256.472L637.453 261.023L639.818 267.023L640.764 269.439C647.184 284.889 653.47 300.394 659.62 315.953L661.589 320.686C670.483 342.036 678.947 363.134 688.183 384.379L689.374 387.125C693.209 396.071 696.126 404.231 699.826 412.932L701.671 417.341C708.234 432.917 714.705 448.531 721.082 464.184C724.378 472.395 730.637 488.978 734.431 496.318C735.993 500.43 741.718 515.414 743.702 518.66C744.303 521.259 745.595 523.878 746.585 526.373C753.324 543.353 760.84 560.07 767.72 576.984L769.595 581.448L771.661 586.667L773.522 591.166L775.716 596.451L777.731 601.4L787.251 624.882C788.343 627.632 789.8 631.642 791.209 634.114C791.859 636.694 793.053 638.879 793.933 641.336C799.147 655.896 807.079 671.075 811.932 685.527L813.874 690.573L815.69 694.985L817.945 700.365C821.286 708.073 824.563 715.808 827.777 723.57L830.64 730.573C832.596 735.133 834.415 739.749 836.095 744.417L838.537 750.19C840.22 754.226 842.086 758.48 843.645 762.542L846.233 768.772C852.07 782.533 858.305 796.659 863.839 810.492L865.963 815.913C867.687 820.068 870.04 825.298 871.526 829.44L873.551 834.16C877.13 842.817 880.617 851.511 884.012 860.241L886.29 865.952L891.835 879.29C892.703 881.28 893.637 883.581 894.601 885.495C899.204 895.917 903.627 906.418 907.867 916.994L910.165 922.727L916.121 937.572L918.104 942.501C925.538 960.642 933.134 978.716 940.893 996.72C944.137 1004.39 949.41 1016.28 952.012 1024L949.544 1024L592.186 1024L539.295 1024L536.756 1024C513.305 973.007 490.421 921.755 468.109 870.253C461.074 854.255 454.748 838.192 447.341 822.283C447.29 821.896 446.599 820.28 446.412 819.812C446.268 819.272 445.617 818.015 445.345 817.445C444.568 815.298 444.371 814.76 443.227 812.816C440.92 806.8 437.182 798.604 434.319 792.826C434.009 790.518 423.861 768.249 422.288 764.94C421.881 763.119 420.171 759.512 419.36 757.636C416.466 750.731 413.573 743.562 410.36 736.825C410.324 736.624 409.39 734.434 409.247 734.09C408.677 732.259 406.497 727.543 405.646 725.567L404.386 722.644L401.913 716.946C401.02 714.682 399.931 712.336 398.944 710.097C396.459 704.141 393.913 698.21 391.307 692.305C388.727 686.209 381.643 668.72 378.826 664.079C376.246 657.143 370.183 643.02 366.694 636.428C363.793 628.487 358.767 617.632 355.3 609.576C347.088 590.332 338.685 571.17 330.093 552.093L277.645 430.604Z"/><path fill="#7C3961" transform="scale(0.25 0.25)" d="M684.634 382.794L767.569 583.937L791.251 641.646L798.896 661.123C799.653 663.065 801.765 668.916 802.63 670.552C806.766 677.007 812.016 691.716 815.402 699.628C827.984 729.37 840.31 759.219 852.376 789.174L920.921 955.114C930.3 977.84 940.959 1000.36 949.599 1023.4L949.544 1024L592.186 1024C589.599 1023.57 582.629 1023.67 579.703 1023.64C578.221 991.372 577.633 959.068 577.94 926.766C577.718 897.858 578.463 868.95 580.174 840.091C582.492 806.737 585.729 773.453 589.882 740.277C591.589 727.079 593.914 714.17 595.627 701.221C599.982 706.186 613.453 721.071 620.635 717.753C623.665 715.597 625.068 714.581 628.374 712.938C633.807 711.859 635.02 711.976 640.475 713.099C667.262 733.871 662.538 715.909 663.672 694.268C663.904 689.843 664.79 685.468 665.967 681.191C665.59 681.074 665.215 680.951 664.841 680.823C660.359 679.262 656.274 676.234 653.065 672.765C639.797 658.419 633.238 638.688 639.758 619.832C643.34 612.474 619.616 602.328 614.295 600.512C616.742 583.748 623.613 558.782 628.238 542.149C639.675 500.1 653.254 458.664 668.92 418.001C671.574 411.013 676.426 396.152 680.211 390.318C681.935 389.22 683.601 384.921 684.634 382.794Z"/><path fill="#4A1032" transform="scale(0.25 0.25)" d="M802.63 670.552C806.766 677.007 812.016 691.716 815.402 699.628C827.984 729.37 840.31 759.219 852.376 789.174L920.921 955.114C930.3 977.84 940.959 1000.36 949.599 1023.4C940.771 1022.89 928.874 1023.3 919.742 1023.33L867.707 1023.38L685.728 1023.26C687.56 1008.34 694.438 982.644 698.147 966.936C716.983 884.649 743.095 804.199 776.175 726.535C784.843 706.658 791.72 689.809 802.63 670.552Z"/><path fill="#020001" transform="scale(0.25 0.25)" d="M277.645 430.604C276.7 427.527 271.482 416.343 270.033 413.074C264.238 400.206 258.531 387.3 252.91 374.355L197.558 245.403C190.483 229.049 182.782 212.835 176.01 196.352C167.669 175.554 159.046 150.754 167.926 128.857C175.126 111.101 192.107 104.358 210.24 106.488C222.454 107.923 234.381 110.479 246.571 112.402L344.428 128.5L487.247 151.103C505.79 154.107 544.019 158.603 559.98 165.488C597.284 181.579 621.52 219.672 635.542 256.472L637.453 261.023L639.818 267.023L640.764 269.439C647.184 284.889 653.47 300.394 659.62 315.953L661.589 320.686C670.483 342.036 678.947 363.134 688.183 384.379L689.374 387.125C693.209 396.071 696.126 404.231 699.826 412.932L701.671 417.341C708.234 432.917 714.705 448.531 721.082 464.184C724.378 472.395 730.637 488.978 734.431 496.318C735.993 500.43 741.718 515.414 743.702 518.66C744.303 521.259 745.595 523.878 746.585 526.373C753.324 543.353 760.84 560.07 767.72 576.984L769.595 581.448L771.661 586.667L773.522 591.166L775.716 596.451L777.731 601.4L787.251 624.882C788.343 627.632 789.8 631.642 791.209 634.114C791.859 636.694 793.053 638.879 793.933 641.336C799.147 655.896 807.079 671.075 811.932 685.527L813.874 690.573L815.69 694.985L817.945 700.365C821.286 708.073 824.563 715.808 827.777 723.57L830.64 730.573C832.596 735.133 834.415 739.749 836.095 744.417L838.537 750.19C840.22 754.226 842.086 758.48 843.645 762.542L846.233 768.772C852.07 782.533 858.305 796.659 863.839 810.492L865.963 815.913C867.687 820.068 870.04 825.298 871.526 829.44L873.551 834.16C877.13 842.817 880.617 851.511 884.012 860.241L886.29 865.952L891.835 879.29C892.703 881.28 893.637 883.581 894.601 885.495C899.204 895.917 903.627 906.418 907.867 916.994L910.165 922.727L916.121 937.572L918.104 942.501C925.538 960.642 933.134 978.716 940.893 996.72C944.137 1004.39 949.41 1016.28 952.012 1024L949.544 1024L949.599 1023.4C940.959 1000.36 930.3 977.84 920.921 955.114L852.376 789.174C840.31 759.219 827.984 729.37 815.402 699.628C812.016 691.716 806.766 677.007 802.63 670.552C801.765 668.916 799.653 663.065 798.896 661.123L791.251 641.646L767.569 583.937L684.634 382.794C683.601 384.921 681.935 389.22 680.211 390.318C681.409 387.523 682.669 384.402 683.963 381.683C670.219 351.175 657.858 319.251 645.087 288.265C630.294 251.475 617.747 212.925 586.532 186.228C578.21 179.111 566.437 170.461 555.889 167.069C535.094 160.384 510.671 158.107 489.148 154.594L345.679 131.782L247.524 115.579C235.055 113.594 222.747 110.654 210.29 109.501C164.961 105.306 160.951 147.957 173.023 181.246C178.469 196.267 184.589 210.44 191.113 224.983C196.695 237.456 202.167 249.977 207.53 262.546L283.539 438.091C367.525 633.944 452.779 829.251 539.295 1024L536.756 1024C513.305 973.007 490.421 921.755 468.109 870.253C461.074 854.255 454.748 838.192 447.341 822.283C447.29 821.896 446.599 820.28 446.412 819.812C446.268 819.272 445.617 818.015 445.345 817.445C444.568 815.298 444.371 814.76 443.227 812.816C440.92 806.8 437.182 798.604 434.319 792.826C434.009 790.518 423.861 768.249 422.288 764.94C421.881 763.119 420.171 759.512 419.36 757.636C416.466 750.731 413.573 743.562 410.36 736.825C410.324 736.624 409.39 734.434 409.247 734.09C408.677 732.259 406.497 727.543 405.646 725.567L404.386 722.644L401.913 716.946C401.02 714.682 399.931 712.336 398.944 710.097C396.459 704.141 393.913 698.21 391.307 692.305C388.727 686.209 381.643 668.72 378.826 664.079C376.246 657.143 370.183 643.02 366.694 636.428C363.793 628.487 358.767 617.632 355.3 609.576C347.088 590.332 338.685 571.17 330.093 552.093L277.645 430.604Z"/><path fill="#4A1032" transform="scale(0.25 0.25)" d="M614.096 601.622C615.442 602.557 619.176 603.565 620.908 604.274C628.49 607.38 634.669 611.616 639.546 618.26L639.758 619.832C633.238 638.688 639.797 658.419 653.065 672.765C656.274 676.234 660.359 679.262 664.841 680.823C665.215 680.951 665.59 681.074 665.967 681.191C664.79 685.468 663.904 689.843 663.672 694.268C662.538 715.909 667.262 733.871 640.475 713.099C635.02 711.976 633.807 711.859 628.374 712.938C625.068 714.581 623.665 715.597 620.635 717.753C616.674 716.198 616.331 718.674 611.708 714.563C607.07 710.438 601.443 705.718 597.564 700.785C597.211 700.336 597.026 696.388 596.935 695.457C596.712 693.635 598.946 681.531 599.356 679.077C603.499 653.118 608.414 627.288 614.096 601.622Z"/><path fill="#2B0C1E" transform="scale(0.25 0.25)" d="M628.374 712.938L628.48 712.066C632.804 710.558 635.385 710.685 639.72 712.291L640.475 713.099C635.02 711.976 633.807 711.859 628.374 712.938Z"/><path fill="#7C3961" transform="scale(0.25 0.25)" d="M562.909 595.217C565.101 594.423 567.217 593.96 569.473 594.852C578.113 595.83 584.813 600.056 590.882 606.084C599.794 600.472 603.401 598.792 614.295 600.512C619.616 602.328 643.34 612.474 639.758 619.832L639.546 618.26C634.669 611.616 628.49 607.38 620.908 604.274C619.176 603.565 615.442 602.557 614.096 601.622C608.414 627.288 603.499 653.118 599.356 679.077C598.946 681.531 596.712 693.635 596.935 695.457C597.026 696.388 597.211 700.336 597.564 700.785C601.443 705.718 607.07 710.438 611.708 714.563C616.331 718.674 616.674 716.198 620.635 717.753C613.453 721.071 599.982 706.186 595.627 701.221C592.16 696.794 587.528 692.576 584.01 688.023C572.4 672.996 561.24 656.159 555.088 638.124C551.481 627.547 548.17 613.407 553.621 602.985C555.713 598.983 558.627 596.48 562.909 595.217Z"/><path fill="#2B0C1E" transform="scale(0.25 0.25)" d="M595.627 701.221C592.16 696.794 587.528 692.576 584.01 688.023C572.4 672.996 561.24 656.159 555.088 638.124C551.481 627.547 548.17 613.407 553.621 602.985C555.713 598.983 558.627 596.48 562.909 595.217C559.243 599.032 553.279 601.312 552.391 607.682C548.869 632.958 563.598 657.204 577.261 677.306C580.012 681.304 592.52 697.924 595.807 698.62C596.577 697.321 596.581 696.914 596.935 695.457C597.026 696.388 597.211 700.336 597.564 700.785C601.443 705.718 607.07 710.438 611.708 714.563C616.331 718.674 616.674 716.198 620.635 717.753C613.453 721.071 599.982 706.186 595.627 701.221Z"/><path fill="#2B0C1E" transform="scale(0.25 0.25)" d="M569.473 594.852C578.113 595.83 584.813 600.056 590.882 606.084C599.794 600.472 603.401 598.792 614.295 600.512C619.616 602.328 643.34 612.474 639.758 619.832L639.546 618.26C634.669 611.616 628.49 607.38 620.908 604.274C619.176 603.565 615.442 602.557 614.096 601.622C603.564 600.055 599.202 601.403 590.669 607.698C586.124 602.634 582.902 599.928 576.353 597.674C574.064 596.887 571.14 596.375 569.473 594.852Z"/><path fill="#020001" transform="scale(0.25 0.25)" d="M209.931 125.171C221.893 123.823 258.245 131.597 272.522 133.963L310.315 140.147C327.691 143.15 338.265 144.926 353.304 155.428C373.966 169.856 389.154 186.534 402.889 207.529C412.437 222.123 417.163 234.351 424.298 250.001C434.38 272.287 444.276 294.658 453.984 317.109C463.547 338.358 472.909 359.696 482.067 381.122C490.437 400.297 500.314 419.797 504.264 440.387C508.515 462.551 506.806 487.949 480.05 492.921C471.456 493.808 459.321 491.778 450.522 490.74C433.55 488.736 416.537 486.266 399.601 483.865C386.511 481.672 372.294 481.392 359.443 478.139C334.288 471.771 314.592 454.305 298.842 434.637C280.709 411.992 271.901 384.458 260.211 358.266L213.881 252.531C202.764 226.903 188.42 199.692 183.23 172.3C179.187 150.964 185.711 128.686 209.931 125.171Z"/><path fill="#F8A28E" transform="scale(0.25 0.25)" d="M438.901 469.106C420.474 465.928 400.329 464.636 381.704 461.457C373.012 459.974 362.908 459.088 354.645 455.828C335.505 448.276 319.682 432.509 307.784 416.122C299.246 404.362 295.125 390.854 289.036 378.057C274.49 347.491 261.93 316.358 248.577 285.309L223.923 228.979C214.648 207.867 199.759 178.857 202.571 155.287C204.273 141.016 216.146 131.158 230.598 133.836C239.75 135.217 248.723 137.253 257.824 138.753C273.471 141.248 289.102 143.838 304.717 146.522C310.736 147.513 318.267 148.337 323.989 149.536C355.673 156.177 383.011 184.995 400.012 211.261C408.331 224.115 412.86 236.846 419.111 250.548C431.499 277.832 443.628 305.233 455.497 332.747L478.737 385.962C481.635 392.435 484.433 398.984 487.337 405.447C496.619 426.109 512.097 460.354 482.121 471.924C467.08 475.389 452.872 469.119 438.901 469.106Z"/><path fill="#020001" transform="scale(0.25 0.25)" d="M301.363 311.58C341.789 307.59 387.806 375.821 390.834 411.098C392.342 428.662 393.955 444.135 372.409 447.443C333.467 445.869 295.115 395.024 284.741 360.785C278.984 341.784 278.579 318.596 301.363 311.58Z"/><path fill="#4A1032" transform="scale(0.25 0.25)" d="M303.408 313.658C316.189 312.683 330.842 322.051 340.321 329.784C365.362 350.673 385.119 382.344 389.131 414.988C390.991 430.12 387.97 442.948 370.647 444.979C332.923 444.137 289.747 386.009 284.738 350.97C282.523 335.474 284.499 316.474 303.408 313.658Z"/><path fill="#7C3961" transform="scale(0.25 0.25)" d="M295.236 372.396C290.02 367.013 288.839 354.788 289.194 347.581C289.872 333.843 300.142 322.774 314.469 324.511C332.269 326.807 347.044 342.01 358.05 355.393C371.77 372.077 382.843 397.024 381.276 419.119C380.432 431.016 371.602 438.969 359.469 437.388C356.415 436.991 350.47 435.564 348.578 432.755C345.338 430.543 341.992 429.387 337.939 426.306C324.652 416.207 313.124 403.093 304.053 389.122C301.216 384.753 298.35 377.007 295.674 373.034L295.236 372.396Z"/><path fill="#020001" transform="scale(0.25 0.25)" d="M295.236 372.396C290.02 367.013 288.839 354.788 289.194 347.581C289.872 333.843 300.142 322.774 314.469 324.511C332.269 326.807 347.044 342.01 358.05 355.393C371.77 372.077 382.843 397.024 381.276 419.119C380.432 431.016 371.602 438.969 359.469 437.388C356.415 436.991 350.47 435.564 348.578 432.755C381.497 447.3 383.919 414.541 376.004 392.069C367.02 366.564 350.339 343.965 326.534 330.356C320.478 326.894 311.571 324.726 304.808 327.116C285.015 335.247 289.796 357.462 295.236 372.396Z"/><path fill="#4A1032" transform="scale(0.25 0.25)" d="M296.713 359.563C292.804 349.288 296.136 333.652 307.453 329.69C313.85 327.451 320.48 329.346 326.285 332.332C348.03 343.475 365.193 366.646 372.68 389.52C373.789 392.907 374.711 396.351 375.444 399.838C379.457 407.157 378.834 421.616 372.822 427.969C371.247 430.067 370.212 430.551 367.967 431.89C362.045 432.156 358.454 431.825 352.934 429.239C334.528 420.615 306.903 388.06 300.231 369.607C298.6 365.696 297.814 363.627 296.713 359.563Z"/><path fill="#6E2C5B" transform="scale(0.25 0.25)" d="M375.444 399.838C379.457 407.157 378.834 421.616 372.822 427.969C372.436 427.135 371.964 425.944 372.25 425.025C375.03 416.085 376.351 409.194 375.444 399.838Z"/><path fill="#020001" transform="scale(0.25 0.25)" d="M296.713 359.563L297.762 359.898C299.049 362.706 300.429 366.492 300.231 369.607C298.6 365.696 297.814 363.627 296.713 359.563Z"/><path fill="#CEE0C8" transform="scale(0.25 0.25)" d="M332.779 381.523C331.69 379.919 331.195 379.68 331.032 377.929C333.582 379.536 339.92 386.451 341.233 389.05L341.25 389.766L342.512 391.395L342.095 391.874C339.512 390.83 334.642 384.659 332.476 382.262L332.779 381.523Z"/><path fill="#020001" transform="scale(0.25 0.25)" d="M332.779 381.523L341.25 389.766L342.512 391.395L342.095 391.874C339.512 390.83 334.642 384.659 332.476 382.262L332.779 381.523Z"/><path fill="#020001" transform="scale(0.25 0.25)" d="M360.027 248.648C369.758 247.551 382.188 252.196 390.419 257.216C414.496 271.948 432.033 295.721 443.468 321.178C451.633 339.355 462.075 375.051 434.127 381.906C422.021 383.17 408.776 376.732 399.046 370.046C371.617 350.817 348.781 320.028 342.439 286.768C339.417 270.915 340.549 251.747 360.027 248.648Z"/><path fill="#4A1032" transform="scale(0.25 0.25)" d="M359.661 251.102C397.797 249.512 429.386 292.993 443.007 324.571C450.615 342.211 458.244 370.612 435.002 379.932C421.999 381.223 409.818 374.615 399.268 367.578C373.063 349.52 351.383 319.731 345.041 288.321C342.15 274.002 341.8 254.588 359.661 251.102Z"/><path fill="#7C3961" transform="scale(0.25 0.25)" d="M369.415 332.888C369.044 332.817 368.285 332.476 367.897 332.32C359.316 321.915 355.253 311.964 351.929 298.801C348.849 286.604 349.473 265.493 364.399 261.514C366.587 260.931 375.661 261.74 377.504 262.904L377.52 263.48C378.33 263.813 380.088 264.601 380.851 264.779C384.709 264.208 390.901 268.519 393.995 270.824C415.953 287.688 435.355 314.109 440.542 341.66C441.946 349.118 441.37 359.259 436.821 365.564C434.563 368.693 426.725 373.255 423.175 371.295C424.18 370.908 424.533 370.766 425.58 370.538C400.739 371.166 383.724 350.243 369.415 332.888Z"/><path fill="#020001" transform="scale(0.25 0.25)" d="M380.851 264.779C384.709 264.208 390.901 268.519 393.995 270.824C415.953 287.688 435.355 314.109 440.542 341.66C441.946 349.118 441.37 359.259 436.821 365.564C434.563 368.693 426.725 373.255 423.175 371.295C424.18 370.908 424.533 370.766 425.58 370.538C444.626 366.834 440.725 342.568 435.608 329.413C425.857 304.343 405.544 276.381 380.851 264.779Z"/><path fill="#020001" transform="scale(0.25 0.25)" d="M369.415 332.888C369.044 332.817 368.285 332.476 367.897 332.32C359.316 321.915 355.253 311.964 351.929 298.801C348.849 286.604 349.473 265.493 364.399 261.514C366.587 260.931 375.661 261.74 377.504 262.904L377.52 263.48C364.213 260.547 354.906 263.678 352.574 278.586C349.582 297.706 358.75 317.52 369.415 332.888Z"/><path fill="#4A1032" transform="scale(0.25 0.25)" d="M358.698 273.91C363.733 263.78 375.537 265.597 384.282 270.191C407.854 282.572 425.056 306.008 434.505 330.759C438.684 341.705 440.617 361.659 426.395 367.687C420.85 370.036 401.724 360.671 398.374 355.516C388.617 348.726 375.097 331.972 369.656 321.618C368.213 320.212 364.36 312.116 363.578 310.049C358.283 300.305 352.963 284.392 358.698 273.91Z"/><path fill="#020001" transform="scale(0.25 0.25)" d="M369.656 321.618C367.805 320.332 398.557 355.776 398.374 355.516C388.617 348.726 375.097 331.972 369.656 321.618Z"/><path fill="#020001" transform="scale(0.25 0.25)" d="M358.698 273.91C357.582 284.508 356.258 289.056 360.626 299.83C361.793 302.708 363.36 306.941 363.578 310.049C358.283 300.305 352.963 284.392 358.698 273.91Z"/><path fill="#020001" transform="scale(0.25 0.25)" d="M390.542 321.04C389.024 319.094 388.211 317.969 386.94 315.86C389.944 318.732 392.751 321.994 395.528 325.103C396.581 323.456 396.041 322.707 396.773 320.901L398.237 321.883C400.201 323.431 410.54 334.593 410.738 336.838L409.708 337.395C407.37 337.189 406.629 336.556 404.504 335.386C401.932 334.357 399.295 331.082 397.384 328.985L396.784 329.301C395.182 329.046 393.17 327.128 392.306 325.853C390.459 323.125 390.217 323.731 390.542 321.04Z"/><path fill="#A8A99F" transform="scale(0.25 0.25)" d="M390.542 321.04C389.024 319.094 388.211 317.969 386.94 315.86C389.944 318.732 392.751 321.994 395.528 325.103C398.401 328.244 401.972 332.031 404.504 335.386C401.932 334.357 399.295 331.082 397.384 328.985L396.784 329.301C395.182 329.046 393.17 327.128 392.306 325.853C390.459 323.125 390.217 323.731 390.542 321.04Z"/><path fill="#020001" transform="scale(0.25 0.25)" d="M390.542 321.04L397.384 328.985L396.784 329.301C395.182 329.046 393.17 327.128 392.306 325.853C390.459 323.125 390.217 323.731 390.542 321.04Z"/><path fill="#CEE0C8" transform="scale(0.25 0.25)" d="M398.237 321.883C400.201 323.431 410.54 334.593 410.738 336.838C407.286 334.033 400.409 325.814 398.237 321.883Z"/><path fill="#020001" transform="scale(0.25 0.25)" d="M233.508 154.625C287.426 149.237 361.36 274.38 307.156 287.67C271.987 290.811 230.017 236.76 219.191 206.875C212.76 189.125 208.228 159.202 233.508 154.625Z"/><path fill="#4A1032" transform="scale(0.25 0.25)" d="M236.069 157.193C246.368 157.522 251.924 158.73 261.121 164.026C288.723 180.516 312.436 211.844 320.982 242.805C325.611 259.575 326.514 281.11 305.376 285.495C271.726 286.417 234.186 237.341 222.142 208.909C214.971 191.98 209.65 159.6 236.069 157.193Z"/><path fill="#7C3961" transform="scale(0.25 0.25)" d="M242.872 237.38C234.033 231.559 224.625 206.349 223.078 196.008C217.484 160.027 246.924 159.885 268.777 177.858C289.421 194.837 309.104 217.165 313.521 244.519C318.848 277.508 296.746 281.501 272.625 267.834L272.846 267.186C264.789 261.632 258.242 256.32 251.905 248.784C249.717 246.182 244.976 239.348 242.872 237.38Z"/><path fill="#020001" transform="scale(0.25 0.25)" d="M242.872 237.38C234.033 231.559 224.625 206.349 223.078 196.008C217.484 160.027 246.924 159.885 268.777 177.858C289.421 194.837 309.104 217.165 313.521 244.519C318.848 277.508 296.746 281.501 272.625 267.834L272.846 267.186C284.464 273.206 305.878 280.405 311.556 261.811C315.367 249.329 308.977 230.645 302.709 219.553C291.365 199.48 271.619 177.115 249.307 169.251C238.302 165.471 226.724 169.165 224.563 181.724C221.067 202.04 232.594 220.899 242.872 237.38Z"/><path fill="#4A1032" transform="scale(0.25 0.25)" d="M230.576 175.386C235.232 165.763 251.666 171.642 258.614 175.659C282.752 189.616 303.91 215.533 309.825 243.039C314.841 266.368 299.75 277.949 279.167 265.516C272.588 261.585 263.496 253.938 258.757 247.482C245.84 236.021 221.695 192.721 230.576 175.386Z"/><path fill="#020001" transform="scale(0.25 0.25)" d="M258.757 247.482C245.84 236.021 221.695 192.721 230.576 175.386L230.591 176.409C230.608 180.208 229.636 183.544 230.075 187.865C231.719 204.057 241.172 220.325 249.468 234.122C251.837 238.061 256.879 243.539 258.757 247.482Z"/><path fill="#020001" transform="scale(0.25 0.25)" d="M265.243 219.436C264.853 218.49 264.445 217.763 263.877 216.913L264.106 216.342C267.402 218.748 269.235 221.127 273.004 223.729C273.685 225.548 274.851 228.073 274.77 229.907L274.267 230.92C273.451 231.388 273.894 231.316 272.929 231.076C269.909 228.163 266.229 223.594 265.243 219.436Z"/><path fill="#A8A99F" transform="scale(0.25 0.25)" d="M265.243 219.436C268.493 223.356 272.242 226.598 274.267 230.92C273.451 231.388 273.894 231.316 272.929 231.076C269.909 228.163 266.229 223.594 265.243 219.436Z"/><path fill="#020001" transform="scale(0.25 0.25)" d="M331.461 174.518C347.551 173.358 364.168 197.77 369.235 210.852C372.088 218.216 375.204 228.308 365.872 232.055C347.358 230.828 322.72 199.49 326.156 180.196C326.648 177.431 329.11 175.787 331.461 174.518Z"/><path fill="#F7F2F2" transform="scale(0.25 0.25)" d="M335.15 178.56C348.521 180.344 362.569 200.483 366.566 212.417C368.438 218.006 370.995 225.68 363.512 227.812C348.592 226.079 335.316 206.809 330.727 193.88C328.455 187.479 327.507 180.942 335.15 178.56Z"/><path fill="#020001" transform="scale(0.25 0.25)" d="M428.307 401.95C436.566 401.684 443.634 407.51 448.382 413.776C454.137 421.372 463.78 435.764 453.885 443.496C438.092 444.668 416.573 412.001 428.307 401.95Z"/><path fill="#4A1032" transform="scale(0.25 0.25)" d="M428.479 404.068C434.574 403.359 437.094 405.342 441.763 409.339C448.208 414.854 461.538 433.359 453.933 441.325C439.228 442.921 428.615 421.616 426.41 409.446C426.966 407.639 427.76 405.825 428.479 404.068Z"/><path fill="#4A1032" transform="scale(0.25 0.25)" d="M482.121 471.924C482.34 472.392 482.23 472.073 482.237 472.929C480.604 473.041 480.462 472.745 479.582 473.621C480.411 473.628 481.182 473.717 482.003 473.838C484.386 472.02 497.516 469.427 499.478 470.61C499.564 471.34 499.638 471.979 499.684 472.717L499.713 473.234C505.751 461.108 501.553 459.182 503.273 451.416C506.108 472.782 498.037 492.129 473.278 490.969C464.704 490.567 456.498 489.197 448.015 488.072L409.673 482.839C366.675 476.805 342.406 479.266 309.764 444.057C288.014 420.597 282.308 401.974 269.946 373.729L239.024 303.821L210.529 239.352C199.583 214.747 184.301 185.639 184.669 158.25C184.948 137.488 199.197 125.403 219.579 127.652C221.391 127.852 222.508 128.004 223.711 129.495C221.585 133.609 209.624 131.644 204.245 142.733C198.147 155.307 199.274 168.647 203.293 181.569C208.261 197.542 215.076 212.718 221.651 227.909L248.003 288.849C255.973 307.688 263.458 327.892 272.157 346.474C282.59 368.76 292.566 393.851 304.475 415.124C312.886 430.149 332.134 446.728 347.279 454.756C351.92 457.264 356.888 459.113 362.04 460.251C371.444 462.381 434.464 470.923 438.343 469.406C438.539 469.329 438.715 469.206 438.901 469.106C452.872 469.119 467.08 475.389 482.121 471.924Z"/><path fill="#6E2C5B" transform="scale(0.25 0.25)" d="M588.189 561.949C589.692 560.11 591.628 557.914 593.942 557.422C595.737 557.87 595.123 557.624 596.421 559.734C600.581 568.186 602.8 577.106 599.857 586.401C598.749 589.696 594.555 597.677 590.41 597.204C588.369 596.971 586.126 592.931 585.346 591.175C581.862 583.329 581.185 568.047 588.189 561.949Z"/><path fill="#2B0C1E" transform="scale(0.25 0.25)" d="M588.189 561.949C589.692 560.11 591.628 557.914 593.942 557.422C595.737 557.87 595.123 557.624 596.421 559.734C594.282 558.635 595.046 558.652 592.949 558.884C591.396 560.11 589.93 561.676 588.189 561.949Z"/><path fill="#F79D5F" transform="scale(0.25 0.25)" d="M429.903 1024C425.429 1016.39 419.111 999.874 415.241 991.091C405.004 968.333 394.948 945.494 385.072 922.577L286.884 696.168L197.892 493.12C176.091 444.11 154.706 394.915 133.741 345.541C117.711 307.525 99.0878 269.441 84.2004 231.217C75.0389 205.053 71.6475 169.215 90.0292 146.096C96.9568 137.382 112.42 127.328 121.945 120.601C141.404 106.858 166.351 85.1827 191.402 86.0517C207.087 86.5957 225.575 90.5081 241.017 93.0855L323.007 106.424L468.05 129.27C481.443 131.373 494.884 133.477 508.268 135.711C519.167 137.531 532.918 138.783 543.332 141.754C584.585 153.524 613.751 185.338 634.368 221.324C646.884 243.17 650.942 258.117 660.215 280.899C672.773 312.251 685.61 343.492 698.723 374.617L840.325 718.943L928.182 931.233L954.944 995.567C957.286 1001.3 964.741 1018.68 965.822 1024L963.6 1024C957.671 1011.44 950.666 992.681 945.235 979.505L901.071 872.185L704.52 396.769C688.892 359.899 674.228 321.901 658.681 284.926C650.676 265.891 644.772 246.211 634.964 227.99C615.566 191.957 585.519 157.623 545.173 145.388C534.315 142.096 512.496 139.473 500.476 137.487L395.991 120.936L260.85 99.4318L221.233 92.8148C206.702 90.3757 183.996 85.3162 171.278 93.5261C121.496 125.662 167.167 209.017 183.415 246.821L197.683 280.209C199.428 284.194 202.198 291.029 204.243 294.662C210.668 296.037 206.64 300.418 209.214 303.167C212.691 306.881 212.223 308.677 212.27 313.986C213.408 316.667 214.526 319.403 215.769 322.032L216.147 322.989L363.881 665.06C369.161 678.067 375.194 691.521 380.782 704.439C381.407 705.91 382.463 708.633 383.167 709.947L387.482 720.125L387.809 720.541L388.052 721.021C389.206 724.135 390.148 726.485 391.536 729.497C392.369 731.447 393.752 734.97 394.657 736.755L397.566 743.276L398.631 745.357L401.391 751.377C401.498 751.605 402.039 752.795 402.165 752.959C403.135 755.254 404.126 757.732 405.201 759.963L405.356 760.815C406.126 762.406 406.818 763.874 407.52 765.496C408.519 767.872 413.02 778.936 414.122 780.585C415.029 782.746 416.05 785.381 417.064 787.447C417.533 788.805 417.772 789.658 418.507 790.919L418.773 791.528C419.645 793.731 420.491 796.103 421.636 798.158L422.191 799.413C424.387 804.666 426.711 809.864 429.161 815.002C429.525 815.847 430.329 817.865 430.741 818.567C431.57 820.705 432.617 823.672 433.63 825.651L434.188 826.97C441.225 846.203 452.156 868.037 460.262 886.948C479.785 932.917 499.96 978.605 520.783 1024L516.903 1024L432.921 1024L429.903 1024ZM309.687 683.231L311.069 683.733C332.42 678.025 327.474 657.975 320.271 642.992C319.685 640.884 315.574 632.021 314.525 629.63C310.671 620.877 306.884 612.095 303.167 603.284L276.522 541.376C271.018 528.5 265.616 515.564 259.951 502.76C256.399 494.729 249.983 489.845 241.064 490.053C222.969 500.912 231.565 514.485 237.652 529.274C241.705 539.206 245.861 549.096 250.119 558.943L280.216 629.264L293.781 661.103C297.635 669.91 300.145 679.345 309.687 683.231Z"/><path fill="#020001" transform="scale(0.25 0.25)" d="M429.903 1024C425.429 1016.39 419.111 999.874 415.241 991.091C405.004 968.333 394.948 945.494 385.072 922.577L286.884 696.168L197.892 493.12C176.091 444.11 154.706 394.915 133.741 345.541C117.711 307.525 99.0878 269.441 84.2004 231.217C75.0389 205.053 71.6475 169.215 90.0292 146.096C96.9568 137.382 112.42 127.328 121.945 120.601C141.404 106.858 166.351 85.1827 191.402 86.0517C207.087 86.5957 225.575 90.5081 241.017 93.0855L323.007 106.424L468.05 129.27C481.443 131.373 494.884 133.477 508.268 135.711C519.167 137.531 532.918 138.783 543.332 141.754C584.585 153.524 613.751 185.338 634.368 221.324C646.884 243.17 650.942 258.117 660.215 280.899C672.773 312.251 685.61 343.492 698.723 374.617L840.325 718.943L928.182 931.233L954.944 995.567C957.286 1001.3 964.741 1018.68 965.822 1024L963.6 1024C957.671 1011.44 950.666 992.681 945.235 979.505L901.071 872.185L704.52 396.769C688.892 359.899 674.228 321.901 658.681 284.926C650.676 265.891 644.772 246.211 634.964 227.99C615.566 191.957 585.519 157.623 545.173 145.388C534.315 142.096 512.496 139.473 500.476 137.487L395.991 120.936L260.85 99.4318L221.233 92.8148C206.702 90.3757 183.996 85.3162 171.278 93.5261C121.496 125.662 167.167 209.017 183.415 246.821L197.683 280.209C199.428 284.194 202.198 291.029 204.243 294.662C210.668 296.037 206.64 300.418 209.214 303.167C212.691 306.881 212.223 308.677 212.27 313.986C213.408 316.667 214.526 319.403 215.769 322.032L216.147 322.989L363.881 665.06C369.161 678.067 375.194 691.521 380.782 704.439C381.407 705.91 382.463 708.633 383.167 709.947L387.482 720.125L387.809 720.541L388.052 721.021C389.206 724.135 390.148 726.485 391.536 729.497C392.369 731.447 393.752 734.97 394.657 736.755L397.566 743.276L398.631 745.357L401.391 751.377C401.498 751.605 402.039 752.795 402.165 752.959C403.135 755.254 404.126 757.732 405.201 759.963L405.356 760.815C406.126 762.406 406.818 763.874 407.52 765.496C408.519 767.872 413.02 778.936 414.122 780.585C415.029 782.746 416.05 785.381 417.064 787.447C417.533 788.805 417.772 789.658 418.507 790.919L418.773 791.528C419.645 793.731 420.491 796.103 421.636 798.158L422.191 799.413C424.387 804.666 426.711 809.864 429.161 815.002C429.525 815.847 430.329 817.865 430.741 818.567C431.57 820.705 432.617 823.672 433.63 825.651L434.188 826.97C441.225 846.203 452.156 868.037 460.262 886.948C479.785 932.917 499.96 978.605 520.783 1024L516.903 1024C509.665 1006.16 499.959 986.783 492.005 969.046L445.04 861.893L263.747 442.032L201.694 297.548C193.948 279.369 184.006 258.998 177.043 240.88C163.474 249.978 149.953 259.784 136.452 269.079C128.431 274.601 119.081 280.28 111.366 285.775C118.752 303.813 127.191 322.028 135.001 339.92L167.096 414.255L298.354 714.411L386.409 917.809L416.463 986.291C421.179 997.096 427.884 1013.96 432.921 1024L429.903 1024Z"/><path fill="#F79D5F" transform="scale(0.25 0.25)" d="M149.143 167.635C153.442 190.37 166.297 214.888 174.957 236.032L177.043 240.88C163.474 249.978 149.953 259.784 136.452 269.079C128.431 274.601 119.081 280.28 111.366 285.775C110.404 284.643 109.956 282.909 109.441 281.461C108.24 279.206 107.05 276.726 106.029 274.358C98.791 257.569 90.1764 240.96 85.3083 223.297C84.5027 220.374 83.7553 217.498 82.9403 214.603C97.6633 204.318 112.3 193.91 126.848 183.379C133.822 178.385 142.014 172.147 149.143 167.635Z"/><path fill="#4A1032" transform="scale(0.25 0.25)" d="M109.441 281.461C128.452 268.949 146.927 255.337 165.836 242.638C168.965 240.537 171.985 238.351 174.957 236.032L177.043 240.88C163.474 249.978 149.953 259.784 136.452 269.079C128.431 274.601 119.081 280.28 111.366 285.775C110.404 284.643 109.956 282.909 109.441 281.461Z"/><path fill="#4A1032" transform="scale(0.25 0.25)" d="M82.9403 214.603C75.228 194.286 78.5585 160.228 94.5649 144.247C101.481 137.341 111.851 130.058 119.99 124.412C133.063 115.342 148.022 102.52 162.725 96.277C156.317 103.852 152.234 109.292 149.489 118.929C144.717 135.685 146.456 150.828 149.143 167.635C142.014 172.147 133.822 178.385 126.848 183.379C112.3 193.91 97.6633 204.318 82.9403 214.603Z"/><path fill="#F5C7AB" transform="scale(0.25 0.25)" d="M204.243 294.662C210.668 296.037 206.64 300.418 209.214 303.167C212.691 306.881 212.223 308.677 212.27 313.986C209.646 308.315 206.403 300.497 204.243 294.662Z"/><path fill="#F5C7AB" fill-opacity="0.97254902" transform="scale(0.25 0.25)" d="M241.064 490.053C249.983 489.845 256.399 494.729 259.951 502.76C265.616 515.564 271.018 528.5 276.522 541.376L303.167 603.284C306.884 612.095 310.671 620.877 314.525 629.63C315.574 632.021 319.685 640.884 320.271 642.992C319.985 645.333 321.422 648.084 322.184 650.369C325.55 660.469 325.969 670.963 318.012 679.089C316.586 680.546 311.597 681.389 309.687 683.231C300.145 679.345 297.635 669.91 293.781 661.103L280.216 629.264L250.119 558.943C245.861 549.096 241.705 539.206 237.652 529.274C231.565 514.485 222.969 500.912 241.064 490.053Z"/><path fill="#020001" transform="scale(0.25 0.25)" d="M241.064 490.053C243.773 488.038 246.701 487.415 249.986 487.906C262.063 489.712 266.232 505.636 270.269 515.242C275.225 527.118 280.255 538.964 285.359 550.777L314.131 617.069C319.607 629.516 325.907 642.319 330.326 655.007C333.313 663.585 330.561 677.846 322.32 682.472C319.477 684.068 313.974 685.726 311.069 683.733C332.42 678.025 327.474 657.975 320.271 642.992C319.685 640.884 315.574 632.021 314.525 629.63C310.671 620.877 306.884 612.095 303.167 603.284L276.522 541.376C271.018 528.5 265.616 515.564 259.951 502.76C256.399 494.729 249.983 489.845 241.064 490.053Z"/><path fill="#F5C7AB" fill-opacity="0.98823529" transform="scale(0.25 0.25)" d="M320.271 642.992C327.474 657.975 332.42 678.025 311.069 683.733L309.687 683.231C311.597 681.389 316.586 680.546 318.012 679.089C325.969 670.963 325.55 660.469 322.184 650.369C321.422 648.084 319.985 645.333 320.271 642.992Z"/><path fill="#F8A28E" fill-opacity="0.98039216" transform="scale(0.25 0.25)" d="M204.243 294.662C202.198 291.029 199.428 284.194 197.683 280.209L183.415 246.821C167.167 209.017 121.496 125.662 171.278 93.5261C183.996 85.3162 206.702 90.3757 221.233 92.8148L260.85 99.4318L395.991 120.936L500.476 137.487C512.496 139.473 534.315 142.096 545.173 145.388C585.519 157.623 615.566 191.957 634.964 227.99C644.772 246.211 650.676 265.891 658.681 284.926C674.228 321.901 688.892 359.899 704.52 396.769L901.071 872.185L945.235 979.505C950.666 992.681 957.671 1011.44 963.6 1024L952.012 1024C949.41 1016.28 944.137 1004.39 940.893 996.72C933.134 978.716 925.538 960.642 918.104 942.501C919.564 940.383 920.88 937.612 918.778 935.442C917.072 935.791 917.536 935.812 916.121 937.572L910.165 922.727C911.101 920.524 913.237 918.111 911.007 915.519C909.279 915.501 909.623 915.7 907.867 916.994C903.627 906.418 899.204 895.917 894.601 885.495C894.726 882.962 897.503 878.623 894.897 875.791C892.966 876.999 893.035 877.335 891.835 879.29L886.29 865.952C887.666 863.609 889.14 858.698 886.15 857.184C884.619 858.069 884.942 858.258 884.012 860.241C880.617 851.511 877.13 842.817 873.551 834.16C875.673 832.596 877.14 831.253 875.226 828.762C873.255 828.26 873.855 828.432 871.526 829.44C870.04 825.298 867.687 820.068 865.963 815.913C868.033 813.933 869.166 810.428 866.68 808.394C864.867 808.8 865.36 808.79 863.839 810.492C858.305 796.659 852.07 782.533 846.233 768.772C847.011 766.466 848.984 763.108 846.732 760.944C844.865 760.998 845.443 760.997 843.645 762.542C842.086 758.48 840.22 754.226 838.537 750.19C839.82 747.883 841.181 742.339 837.983 741.302C836.445 742.59 836.902 742.282 836.095 744.417C834.415 739.749 832.596 735.133 830.64 730.573C831.754 728.095 833.265 723.204 830.55 721.384C828.804 721.891 829.209 721.941 827.777 723.57C824.563 715.808 821.286 708.073 817.945 700.365C820.109 698.147 821.504 693.668 818.081 692.25C816.326 693.092 816.844 692.917 815.69 694.985L813.874 690.573L814.355 690.008C815.852 688.276 816.809 685.717 814.74 684.009C813.079 684.18 813.483 684.252 811.932 685.527C807.079 671.075 799.147 655.896 793.933 641.336C793.053 638.879 791.859 636.694 791.209 634.114C791.08 632.382 790.43 631.715 790.796 630.022C791.211 628.106 791.823 627.164 791.246 625.26C789.385 624.244 789.818 624.602 787.251 624.882L777.731 601.4C779.601 599.287 780.266 596.407 778.018 594.345C776.383 594.851 776.913 594.663 775.716 596.451L773.522 591.166C774.792 589.368 775.931 587.133 774.47 585.15C772.842 585.218 773.239 585.33 771.661 586.667L769.595 581.448C771.095 579.472 771.695 577.557 770.244 575.464C768.453 575.682 769.338 575.39 767.72 576.984C760.84 560.07 753.324 543.353 746.585 526.373C745.595 523.878 744.303 521.259 743.702 518.66C743.679 516.704 743.031 515.061 742.481 513.16C743.249 512.138 743.339 511.966 743.904 510.813C743.554 508.867 744.006 509.61 742.784 508.364L740.825 508.715C738.982 507.778 737.923 499.241 734.431 496.318C730.637 488.978 724.378 472.395 721.082 464.184C714.705 448.531 708.234 432.917 701.671 417.341C703.819 415.52 704.308 413.255 702.408 411.066C700.758 411.234 701.28 411.195 699.826 412.932C696.126 404.231 693.209 396.071 689.374 387.125C691.977 385.724 693.052 382.929 690.902 380.565L689.786 380.667C688.352 382.182 688.759 382.033 688.183 384.379C678.947 363.134 670.483 342.036 661.589 320.686C663.546 318.337 664.645 315.064 662.374 312.583L661.216 312.689C659.979 313.741 660.001 314.365 659.62 315.953C653.47 300.394 647.184 284.889 640.764 269.439C642.843 269.083 642.707 268.866 643.784 267.577C644.131 265.369 644.24 266.425 643.356 264.299C641.962 263.285 642.688 263.425 641.154 263.654C639.852 265.088 640.249 264.801 639.818 267.023L637.453 261.023C640.061 258.811 641.196 253.19 637.323 252.896C635.781 254.438 636.238 254.101 635.542 256.472C621.52 219.672 597.284 181.579 559.98 165.488C544.019 158.603 505.79 154.107 487.247 151.103L344.428 128.5L246.571 112.402C234.381 110.479 222.454 107.923 210.24 106.488C192.107 104.358 175.126 111.101 167.926 128.857C159.046 150.754 167.669 175.554 176.01 196.352C182.782 212.835 190.483 229.049 197.558 245.403L252.91 374.355C258.531 387.3 264.238 400.206 270.033 413.074C271.482 416.343 276.7 427.527 277.645 430.604C276.773 432.606 278.424 434.953 279.273 436.968C290.857 464.452 303.344 492.111 315.083 519.464C319.751 530.641 324.509 541.781 329.354 552.882C330.899 556.484 332.409 560.524 333.962 564.116C335.666 568.06 339.371 573.649 340.814 577.8C341.436 580.112 340.847 583.098 341.942 585.283C347.22 595.819 351.9 606.705 357.228 617.206C359.842 622.357 362.166 633.235 366.694 636.428C370.183 643.02 376.246 657.143 378.826 664.079C373.615 662.529 375.351 656.97 371.89 653.638L371.348 653.682C372.89 659.01 382.328 678.631 382.723 682.626C380.581 682.611 380.459 682.621 378.628 683.725L377.333 683.559C376.996 681.748 378.565 678.95 376.147 676.778C374.325 676.427 373.547 676.649 371.734 676.901C372.029 668.715 365.53 669.097 365.237 662.221C365.169 660.875 365.113 659.528 365.071 658.181C363.637 659.234 364.065 663.473 363.881 665.06L216.147 322.989C218.252 324.048 218.657 324.644 220.647 323.297C221.46 320.896 219.942 318.161 217.916 316.868C216.425 318.348 216.856 318.985 216.033 321.3L215.769 322.032C214.526 319.403 213.408 316.667 212.27 313.986C212.223 308.677 212.691 306.881 209.214 303.167C206.64 300.418 210.668 296.037 204.243 294.662Z"/><path fill="#F5C7AB" fill-opacity="0.63921571" transform="scale(0.25 0.25)" d="M363.881 665.06C364.065 663.473 363.637 659.234 365.071 658.181C365.113 659.528 365.169 660.875 365.237 662.221C365.53 669.097 372.029 668.715 371.734 676.901C373.547 676.649 374.325 676.427 376.147 676.778C378.565 678.95 376.996 681.748 377.333 683.559L378.628 683.725C380.459 682.621 380.581 682.611 382.723 682.626C382.328 678.631 372.89 659.01 371.348 653.682L371.89 653.638C375.351 656.97 373.615 662.529 378.826 664.079C381.643 668.72 388.727 686.209 391.307 692.305C390.44 694.642 390.934 694.356 389.257 695.693C386.339 695.603 386.72 695.119 384.746 696.401C382.724 700.503 387.194 703.81 380.782 704.439C375.194 691.521 369.161 678.067 363.881 665.06Z"/><path fill="#F5C7AB" fill-opacity="0.14117648" transform="scale(0.25 0.25)" d="M422.288 764.94C423.861 768.249 434.009 790.518 434.319 792.826C434.055 796.836 434.051 798.382 435.447 802.303C436.628 805.619 439.566 811.698 443.227 812.816C444.371 814.76 444.568 815.298 445.345 817.445L444.172 817.63L443.667 817.176C440.033 813.961 436.186 812.479 434.36 808.077L433.712 808.15C433.154 810.286 433.034 812.593 431.365 813.981C430.795 814.455 430.669 815.353 430.51 816.061L430.881 816.707C432.492 816.282 434.437 815.844 436.077 816.159C436.813 818.287 436.503 822.027 436.386 824.383C437.564 824.71 437.833 824.657 439.072 824.686C441.252 826.932 440.256 830.501 442.557 831.647L443.816 830.976C444.829 827.579 445.475 823.231 446.412 819.812C446.599 820.28 447.29 821.896 447.341 822.283C447.092 828.57 446.54 833.133 447.795 839.331L447.396 840.37L446.412 840.446C444.954 837.956 445.535 836.151 443.856 834.899C442.31 834.557 441.089 834.274 439.573 833.82C438.247 830.351 441.091 829.341 437.487 826.848C436.223 826.781 435.293 826.563 434.188 826.97L433.63 825.651C435.024 823.271 435.775 821 433.753 818.781C432.27 818.416 432.194 818.256 430.741 818.567C430.329 817.865 429.525 815.847 429.161 815.002C430.363 813.184 432.334 810.856 431.67 808.681C424.138 805.001 428.46 804.726 427.566 800.843C425.963 799.283 425.098 799.326 422.799 798.81L422.191 799.413L421.636 798.158C422.868 795.883 423.999 793.851 421.985 791.706C420.344 791.333 420.406 791.263 418.773 791.528L418.507 790.919L418.714 789.913C419.896 789.794 421.305 789.481 422.494 789.257C426.303 791.415 422.787 794.906 425.04 797.224C426.377 797.011 427.126 796.744 428.375 797.246C430.123 799.048 429.065 800.182 430.314 802.356L430.901 802.216C432.841 787.893 428.527 783.5 421.366 773.162C422.049 770.267 422.281 767.92 422.288 764.94Z"/><path fill="#F5C7AB" fill-opacity="0.27450982" transform="scale(0.25 0.25)" d="M394.657 736.755C396.195 735.494 397.986 733.591 399.81 735.044C401.517 744.571 401.567 738.431 405.156 741.001C405.94 743.1 405.977 743.849 406.291 746.111C406.319 742.958 405.951 739.775 407.5 737.122L409.247 734.09C409.39 734.434 410.324 736.624 410.36 736.825C407.911 744.199 413.334 752.889 418.001 758.447L419.36 757.636C420.171 759.512 421.881 763.119 422.288 764.94C422.281 767.92 422.049 770.267 421.366 773.162L420.795 772.936C420.408 771.548 420.671 771.747 419.842 770.761L419.693 772.443L418.453 771.724L417.678 771.998L416.952 774.653C416.712 766.716 414.204 771.574 411.036 770.239C410.852 768.231 410.774 765.584 409.319 764.236L408.338 764.366L407.52 765.496C406.818 763.874 406.126 762.406 405.356 760.815C409.066 757.715 408.145 756.579 409.253 752.19C410.439 750.984 409.734 751.49 411.749 751.069L411.663 750.603C400.771 749.848 410.569 740.981 397.566 743.276L394.657 736.755Z"/><path fill="#F5C7AB" fill-opacity="0.98431373" transform="scale(0.25 0.25)" d="M366.694 636.428C362.166 633.235 359.842 622.357 357.228 617.206C351.9 606.705 347.22 595.819 341.942 585.283C340.847 583.098 341.436 580.112 340.814 577.8C339.371 573.649 335.666 568.06 333.962 564.116C332.409 560.524 330.899 556.484 329.354 552.882C324.509 541.781 319.751 530.641 315.083 519.464C303.344 492.111 290.857 464.452 279.273 436.968C278.424 434.953 276.773 432.606 277.645 430.604L330.093 552.093C338.685 571.17 347.088 590.332 355.3 609.576C358.767 617.632 363.793 628.487 366.694 636.428Z"/><path fill="#F5C7AB" fill-opacity="0.23921569" transform="scale(0.25 0.25)" d="M407.52 765.496L408.338 764.366L409.319 764.236C410.774 765.584 410.852 768.231 411.036 770.239C414.204 771.574 416.712 766.716 416.952 774.653C416.074 775.935 415.691 776.467 415.015 777.912L415.388 778.563C418.469 778.109 419.607 775.161 419.693 772.443L419.842 770.761C420.671 771.747 420.408 771.548 420.795 772.936L421.366 773.162C428.527 783.5 432.841 787.893 430.901 802.216L430.314 802.356C429.065 800.182 430.123 799.048 428.375 797.246C427.126 796.744 426.377 797.011 425.04 797.224C422.787 794.906 426.303 791.415 422.494 789.257C421.305 789.481 419.896 789.794 418.714 789.913L418.507 790.919C417.772 789.658 417.533 788.805 417.064 787.447C417.756 787.104 418.722 785.246 419.285 784.388C419.397 780.313 417.285 780.706 414.122 780.585C413.02 778.936 408.519 767.872 407.52 765.496Z"/><path fill="#F5C7AB" fill-opacity="0.62352943" transform="scale(0.25 0.25)" d="M383.167 709.947C383.967 707.733 385.115 704.691 387.786 704.686C389.085 705.765 389.695 706.514 391.355 706.736C391.713 705.273 391.84 704.253 392.683 702.997C393.412 707.384 392.691 710.111 398.944 710.097C399.931 712.336 401.02 714.682 401.913 716.946C399.173 717.86 396.949 718.58 394.124 719.227L393.638 718.96C393.173 716.725 393.006 714.918 391.775 713.026C390.653 712.356 391.248 712.494 389.918 712.797C387.288 715.285 387.863 715.756 387.482 720.125L383.167 709.947Z"/><path fill="#F5C7AB" fill-opacity="0.36470589" transform="scale(0.25 0.25)" d="M391.536 729.497C392.172 727.486 393.004 727.121 394.712 725.851L395.537 725.998C397.778 732.733 403.134 729.614 405.646 725.567C406.497 727.543 408.677 732.259 409.247 734.09L407.5 737.122C405.951 739.775 406.319 742.958 406.291 746.111C405.977 743.849 405.94 743.1 405.156 741.001C401.567 738.431 401.517 744.571 399.81 735.044C397.986 733.591 396.195 735.494 394.657 736.755C393.752 734.97 392.369 731.447 391.536 729.497Z"/><path fill="#F5C7AB" fill-opacity="0.23137255" transform="scale(0.25 0.25)" d="M446.412 819.812C445.475 823.231 444.829 827.579 443.816 830.976L442.557 831.647C440.256 830.501 441.252 826.932 439.072 824.686C437.833 824.657 437.564 824.71 436.386 824.383C436.503 822.027 436.813 818.287 436.077 816.159C434.437 815.844 432.492 816.282 430.881 816.707L430.51 816.061C430.669 815.353 430.795 814.455 431.365 813.981C433.034 812.593 433.154 810.286 433.712 808.15L434.36 808.077C436.186 812.479 440.033 813.961 443.667 817.176L444.172 817.63L445.345 817.445C445.617 818.015 446.268 819.272 446.412 819.812Z"/><path fill="#F5C7AB" fill-opacity="0.6901961" transform="scale(0.25 0.25)" d="M391.307 692.305C393.913 698.21 396.459 704.141 398.944 710.097C392.691 710.111 393.412 707.384 392.683 702.997C391.84 704.253 391.713 705.273 391.355 706.736C389.695 706.514 389.085 705.765 387.786 704.686C385.115 704.691 383.967 707.733 383.167 709.947C382.463 708.633 381.407 705.91 380.782 704.439C387.194 703.81 382.724 700.503 384.746 696.401C386.72 695.119 386.339 695.603 389.257 695.693C390.934 694.356 390.44 694.642 391.307 692.305Z"/><path fill="#F5C7AB" fill-opacity="0.45490196" transform="scale(0.25 0.25)" d="M387.482 720.125C387.863 715.756 387.288 715.285 389.918 712.797C391.248 712.494 390.653 712.356 391.775 713.026C393.006 714.918 393.173 716.725 393.638 718.96L394.124 719.227C396.949 718.58 399.173 717.86 401.913 716.946L404.386 722.644C403.229 723.675 403.733 723.33 402.127 723.774L401.511 723.223C401.598 721.738 401.698 720.608 401.639 719.113C400.253 720.317 400.504 719.773 399.855 721.291C400.138 723.604 400.652 726.104 400.169 728.32L399.377 729.087C397.533 728.941 396.485 727.421 395.537 725.998L394.712 725.851C393.004 727.121 392.172 727.486 391.536 729.497C390.148 726.485 389.206 724.135 388.052 721.021C389.845 720.654 390.187 720.306 391.199 719.124C391.342 717.229 391.603 718.027 390.542 716.603L389.44 716.693C388.109 718.037 388.163 718.684 387.809 720.541L387.482 720.125Z"/><path fill="#F5C7AB" fill-opacity="0.1882353" transform="scale(0.25 0.25)" d="M397.566 743.276C410.569 740.981 400.771 749.848 411.663 750.603L411.749 751.069C409.734 751.49 410.439 750.984 409.253 752.19C408.145 756.579 409.066 757.715 405.356 760.815L405.201 759.963C406.374 757.999 406.525 757.879 406.835 755.673C405.984 753.006 406.664 753.836 404.472 752.446C403.918 752.445 403.409 752.473 402.868 752.344L402.165 752.959C402.039 752.795 401.498 751.605 401.391 751.377C401.688 750.702 401.98 750.025 402.266 749.346C402.993 747.66 403.336 747.335 403.106 745.473C401.696 744.252 401.712 744.667 399.326 744.538L398.631 745.357L397.566 743.276Z"/><path fill="#F5C7AB" fill-opacity="0.14117648" transform="scale(0.25 0.25)" d="M410.36 736.825C413.573 743.562 416.466 750.731 419.36 757.636L418.001 758.447C413.334 752.889 407.911 744.199 410.36 736.825Z"/><path fill="#F5C7AB" fill-opacity="0.0078431377" transform="scale(0.25 0.25)" d="M443.227 812.816C439.566 811.698 436.628 805.619 435.447 802.303C434.051 798.382 434.055 796.836 434.319 792.826C437.182 798.604 440.92 806.8 443.227 812.816Z"/><path fill="#F5C7AB" fill-opacity="0.43921569" transform="scale(0.25 0.25)" d="M395.537 725.998C396.485 727.421 397.533 728.941 399.377 729.087L400.169 728.32C400.652 726.104 400.138 723.604 399.855 721.291C400.504 719.773 400.253 720.317 401.639 719.113C401.698 720.608 401.598 721.738 401.511 723.223L402.127 723.774C403.733 723.33 403.229 723.675 404.386 722.644L405.646 725.567C403.134 729.614 397.778 732.733 395.537 725.998Z"/><path fill="#F5C7AB" fill-opacity="0.94509804" transform="scale(0.25 0.25)" d="M734.431 496.318C737.923 499.241 738.982 507.778 740.825 508.715L742.784 508.364C744.006 509.61 743.554 508.867 743.904 510.813C743.339 511.966 743.249 512.138 742.481 513.16C743.031 515.061 743.679 516.704 743.702 518.66C741.718 515.414 735.993 500.43 734.431 496.318Z"/><path fill="#F5C7AB" fill-opacity="0.78431374" transform="scale(0.25 0.25)" d="M215.769 322.032L216.033 321.3C216.856 318.985 216.425 318.348 217.916 316.868C219.942 318.161 221.46 320.896 220.647 323.297C218.657 324.644 218.252 324.048 216.147 322.989L215.769 322.032Z"/><path fill="#F5C7AB" fill-opacity="0.89803922" transform="scale(0.25 0.25)" d="M635.542 256.472C636.238 254.101 635.781 254.438 637.323 252.896C641.196 253.19 640.061 258.811 637.453 261.023L635.542 256.472Z"/><path fill="#F5C7AB" fill-opacity="0.92156863" transform="scale(0.25 0.25)" d="M891.835 879.29C893.035 877.335 892.966 876.999 894.897 875.791C897.503 878.623 894.726 882.962 894.601 885.495C893.637 883.581 892.703 881.28 891.835 879.29Z"/><path fill="#F5C7AB" fill-opacity="0.92156863" transform="scale(0.25 0.25)" d="M827.777 723.57C829.209 721.941 828.804 721.891 830.55 721.384C833.265 723.204 831.754 728.095 830.64 730.573L827.777 723.57Z"/><path fill="#F5C7AB" fill-opacity="0.87843138" transform="scale(0.25 0.25)" d="M815.69 694.985C816.844 692.917 816.326 693.092 818.081 692.25C821.504 693.668 820.109 698.147 817.945 700.365L815.69 694.985Z"/><path fill="#F5C7AB" fill-opacity="0.88235295" transform="scale(0.25 0.25)" d="M659.62 315.953C660.001 314.365 659.979 313.741 661.216 312.689L662.374 312.583C664.645 315.064 663.546 318.337 661.589 320.686L659.62 315.953Z"/><path fill="#F5C7AB" fill-opacity="0.92156863" transform="scale(0.25 0.25)" d="M884.012 860.241C884.942 858.258 884.619 858.069 886.15 857.184C889.14 858.698 887.666 863.609 886.29 865.952L884.012 860.241Z"/><path fill="#F5C7AB" fill-opacity="0.87450981" transform="scale(0.25 0.25)" d="M836.095 744.417C836.902 742.282 836.445 742.59 837.983 741.302C841.181 742.339 839.82 747.883 838.537 750.19L836.095 744.417Z"/><path fill="#F5C7AB" fill-opacity="0.023529412" transform="scale(0.25 0.25)" d="M414.122 780.585C417.285 780.706 419.397 780.313 419.285 784.388C418.722 785.246 417.756 787.104 417.064 787.447C416.05 785.381 415.029 782.746 414.122 780.585Z"/><path fill="#F5C7AB" fill-opacity="0.90588236" transform="scale(0.25 0.25)" d="M863.839 810.492C865.36 808.79 864.867 808.8 866.68 808.394C869.166 810.428 868.033 813.933 865.963 815.913L863.839 810.492Z"/><path fill="#F5C7AB" fill-opacity="0.019607844" transform="scale(0.25 0.25)" d="M402.165 752.959L402.868 752.344C403.409 752.473 403.918 752.445 404.472 752.446C406.664 753.836 405.984 753.006 406.835 755.673C406.525 757.879 406.374 757.999 405.201 759.963C404.126 757.732 403.135 755.254 402.165 752.959Z"/><path fill="#F5C7AB" fill-opacity="0.94117647" transform="scale(0.25 0.25)" d="M787.251 624.882C789.818 624.602 789.385 624.244 791.246 625.26C791.823 627.164 791.211 628.106 790.796 630.022C790.43 631.715 791.08 632.382 791.209 634.114C789.8 631.642 788.343 627.632 787.251 624.882Z"/><path fill="#F5C7AB" fill-opacity="0.9254902" transform="scale(0.25 0.25)" d="M843.645 762.542C845.443 760.997 844.865 760.998 846.732 760.944C848.984 763.108 847.011 766.466 846.233 768.772L843.645 762.542Z"/><path fill="#F5C7AB" fill-opacity="0.88235295" transform="scale(0.25 0.25)" d="M639.818 267.023C640.249 264.801 639.852 265.088 641.154 263.654C642.688 263.425 641.962 263.285 643.356 264.299C644.24 266.425 644.131 265.369 643.784 267.577C642.707 268.866 642.843 269.083 640.764 269.439L639.818 267.023Z"/><path fill="#F5C7AB" fill-opacity="0.93333334" transform="scale(0.25 0.25)" d="M907.867 916.994C909.623 915.7 909.279 915.501 911.007 915.519C913.237 918.111 911.101 920.524 910.165 922.727L907.867 916.994Z"/><path fill="#F5C7AB" fill-opacity="0.86666667" transform="scale(0.25 0.25)" d="M688.183 384.379C688.759 382.033 688.352 382.182 689.786 380.667L690.902 380.565C693.052 382.929 691.977 385.724 689.374 387.125L688.183 384.379Z"/><path fill="#F5C7AB" fill-opacity="0.011764706" transform="scale(0.25 0.25)" d="M430.741 818.567C432.194 818.256 432.27 818.416 433.753 818.781C435.775 821 435.024 823.271 433.63 825.651C432.617 823.672 431.57 820.705 430.741 818.567Z"/><path fill="#F5C7AB" fill-opacity="0.93725491" transform="scale(0.25 0.25)" d="M871.526 829.44C873.855 828.432 873.255 828.26 875.226 828.762C877.14 831.253 875.673 832.596 873.551 834.16L871.526 829.44Z"/><path fill="#F5C7AB" fill-opacity="0.90980393" transform="scale(0.25 0.25)" d="M916.121 937.572C917.536 935.812 917.072 935.791 918.778 935.442C920.88 937.612 919.564 940.383 918.104 942.501L916.121 937.572Z"/><path fill="#F5C7AB" fill-opacity="0.9254902" transform="scale(0.25 0.25)" d="M775.716 596.451C776.913 594.663 776.383 594.851 778.018 594.345C780.266 596.407 779.601 599.287 777.731 601.4L775.716 596.451Z"/><path fill="#F5C7AB" fill-opacity="0.0078431377" transform="scale(0.25 0.25)" d="M418.773 791.528C420.406 791.263 420.344 791.333 421.985 791.706C423.999 793.851 422.868 795.883 421.636 798.158C420.491 796.103 419.645 793.731 418.773 791.528Z"/><path fill="#F5C7AB" fill-opacity="0.3019608" transform="scale(0.25 0.25)" d="M416.952 774.653L417.678 771.998L418.453 771.724L419.693 772.443C419.607 775.161 418.469 778.109 415.388 778.563L415.015 777.912C415.691 776.467 416.074 775.935 416.952 774.653Z"/><path fill="#F5C7AB" fill-opacity="0.81568629" transform="scale(0.25 0.25)" d="M811.932 685.527C813.483 684.252 813.079 684.18 814.74 684.009C816.809 685.717 815.852 688.276 814.355 690.008L813.874 690.573L811.932 685.527Z"/><path fill="#F5C7AB" fill-opacity="0.92156863" transform="scale(0.25 0.25)" d="M699.826 412.932C701.28 411.195 700.758 411.234 702.408 411.066C704.308 413.255 703.819 415.52 701.671 417.341L699.826 412.932Z"/><path fill="#F5C7AB" fill-opacity="0.9137255" transform="scale(0.25 0.25)" d="M771.661 586.667C773.239 585.33 772.842 585.218 774.47 585.15C775.931 587.133 774.792 589.368 773.522 591.166L771.661 586.667Z"/><path fill="#F5C7AB" fill-opacity="0.90980393" transform="scale(0.25 0.25)" d="M767.72 576.984C769.338 575.39 768.453 575.682 770.244 575.464C771.695 577.557 771.095 579.472 769.595 581.448L767.72 576.984Z"/><path fill="#F5C7AB" fill-opacity="0.38039216" transform="scale(0.25 0.25)" d="M387.809 720.541C388.163 718.684 388.109 718.037 389.44 716.693L390.542 716.603C391.603 718.027 391.342 717.229 391.199 719.124C390.187 720.306 389.845 720.654 388.052 721.021L387.809 720.541Z"/></svg>