<?xml version="1.0" encoding="utf-8" ?><svg xmlns="http://www.w3.org/2000/svg" xmlns:xlink="http://www.w3.org/1999/xlink" width="256" height="256" viewBox="0 0 256 256"><path transform="scale(0.25 0.25)" d="M365.986 81.6724C369.911 81.8045 372.621 82.8229 376.127 84.4796C384.224 88.3056 433.393 114.234 437.138 118.387C442.17 123.967 450.917 144.164 453.656 151.877C473.392 162.367 493.076 173.719 512.636 184.604C540.689 199.897 568.648 215.363 596.51 231L749.414 315.248C778.611 331.498 807.903 347.579 837.286 363.49L869.084 380.692C875.049 383.974 882.006 388.22 888.029 391.055C897.657 385.92 902.743 376.828 915.746 383.85C924.32 388.481 933.301 393.278 941.673 398.314C953.576 405.474 967.119 411.088 977.717 420.035C984.028 425.641 988.644 435.465 991.44 443.136C989.493 447.388 987.626 451.676 985.841 455.998C986.786 457.249 988.458 459.864 989.162 461.249C1006.45 495.292 1013.22 539.492 1001.77 576.265C993.261 603.604 981.227 629.527 969.239 655.144C953.118 689.702 935.933 723.753 917.707 757.249C904.205 781.922 888.029 809.112 873.71 833.44C866.223 846.268 858.552 858.988 850.699 871.596C845.19 880.632 840.032 890.197 833.307 898.37C791.43 949.266 718.717 956.564 669.286 912.281C665.713 909.079 662.272 902.614 660.073 898.539C650.857 879.446 650.564 869.623 648.708 849.177L644.229 794.003C643.284 782.787 643.829 762.59 633.33 755.995C628.264 752.812 621.644 749.484 616.296 746.589C607.041 741.533 597.815 736.425 588.617 731.265L491.25 676.632L315.096 577.962L252.236 542.874C233.518 532.349 213.948 521.079 195.005 511.027C174.882 546.043 124.293 565.118 85.3449 559.18C69.5476 556.771 55.1996 551.396 42.1679 542.21C-0.723134 511.978 5.53759 449.286 27 407.808C39.9347 382.81 56.6823 358.798 72.2989 334.992C106.572 282.748 142.781 231.081 182.283 182.579C198.874 162.437 214.846 142.677 237.189 128.623C253.483 118.375 269.53 110.888 287.55 104.218C290.53 102.711 293.441 100.678 296.297 98.9776C304.82 93.902 314.088 91.748 323.797 90.1602C333.719 88.5374 341.568 89.0395 351.442 90.648C356.717 85.2985 358.439 82.349 365.986 81.6724ZM899.33 393.891L899.016 394.986C900.43 396.59 906.859 399.436 909.02 399.606L909.177 398.278C907.511 396.944 901.462 393.835 899.33 393.891ZM441.787 144.893C438.705 138.114 435.698 128.77 430.643 123.353C427.474 119.958 388.791 100.089 381.122 96.2818C379.037 94.4683 370.151 89.5957 367.103 89.5299C364.333 89.4701 363.875 89.9296 361.884 91.5553C359.302 94.0279 354.518 98.3486 352.363 100.932C353.554 101.755 353.505 101.695 354.922 102.058C372.926 106.354 392.041 118.014 408.202 126.771C419.378 132.827 430.715 138.655 441.787 144.893ZM340.827 99.3317L342.75 97.8149L342.607 97.2593C340.756 96.4726 334.921 97.111 332.596 97.2484L330.911 97.7794L330.988 98.3763C333.487 99.1521 337.913 99.0665 340.827 99.3317Z"/><path fill="#BCBBBB" transform="scale(0.25 0.25)" d="M405.202 167.975L712.933 338.051L795.507 383.911C809.32 391.506 821.71 399.11 836.098 405.694C832.647 412.749 824.732 422.451 819.825 429.172L791.638 467.876L702.616 590.68C700.196 591.12 697.398 591.646 695.042 592.278C681.133 596.086 669.3 605.253 662.138 617.77C656.184 628.201 655.591 636.754 658.68 648.084C655.13 654.37 649.901 661.186 645.696 667.154C637.304 679.105 628.797 690.975 620.174 702.76L618.802 704.702C618.469 704.741 618.135 704.78 617.801 704.819C598.965 694.291 567.904 676.934 550.503 667.085L282.099 516.71C251.55 499.632 219.962 483.053 189.719 465.606C195.401 457.087 203.007 447.28 209.203 438.81L241.347 394.677L349.372 245.749L384.773 196.635C391.414 187.432 399.043 177.374 405.202 167.975Z"/><path transform="scale(0.25 0.25)" d="M410.413 194.754C414.424 195.495 437.07 208.362 442.139 211.134L525.977 257.623L687.958 346.976L774.303 395.104C785.09 401.195 796.544 407.088 807.12 413.426C782.394 448.324 755.507 483.185 730.218 518.024C691.985 571.641 653.204 624.865 613.88 677.687L613.43 678.101C611.535 678.392 601.707 672.424 599.099 670.98L554.742 646.438L340.617 526.563L259.093 481.409L233.498 467.275C228.793 464.675 222.678 461.518 218.394 458.583C221.459 453.291 229.614 442.793 233.48 437.556L263.144 397.383L370.692 250.287L395.473 216.623C400.42 209.87 406.546 201.997 410.413 194.754Z"/><path fill="#565555" transform="scale(0.25 0.25)" d="M412.748 200.388C451.088 220.135 491.398 243.328 529.184 264.247L717.698 368.199L761.624 392.689C775.081 400.369 786.937 407.53 800.897 414.559L664.535 600.364C647.361 623.731 629.921 649.517 612.43 672.388C610.333 672.631 585.307 658.439 581.548 656.383L504.458 613.307L224.366 457.197C232.1 448.222 242.469 432.974 249.681 423.006L287.371 371.564L412.748 200.388Z"/><path fill="#BCBBBB" transform="scale(0.25 0.25)" d="M840.14 408.395C856.143 416.93 872.113 426.915 887.783 436.124C906.359 447.042 917.335 463.01 922.286 483.953C927.414 505.645 924.057 532.84 916.053 553.552C910.565 567.752 900.792 581.62 892.37 594.37C884.426 606.357 876.577 618.405 868.824 630.516L753.063 812.266C738.31 835.559 725.46 852.79 700.469 866.101C689.452 871.97 684.213 874.678 671.799 877.471C669.332 860.447 668.215 842.166 666.855 824.906C665.433 809.534 664.152 794.15 663.01 778.754C662.049 765.489 662.002 736.493 652.335 726.332C646.989 720.713 630.024 711.759 622.341 707.333C634.607 691.54 645.604 674.015 657.423 658.413C659.866 678.646 665.564 690.107 686.887 695.484C728.074 705.872 782.213 648.747 756.386 610.313C750.511 601.609 741.057 595.982 730.605 594.967C727.055 594.609 721.332 594.683 718.176 594.161C715.241 593.675 712.088 591.948 708.047 591.177C734.285 555.435 759.705 518.602 785.925 482.985C797.992 466.892 809.937 450.708 821.759 434.434C826.776 427.563 836.122 415.276 840.14 408.395Z"/><path transform="scale(0.25 0.25)" d="M875.711 461.672C880.659 461.458 888.394 463.435 892.074 466.586C913.622 485.033 899.076 517.089 873.698 520.979C860.119 520.412 848.504 513.18 846.407 498.773C845.174 490.113 847.512 481.323 852.885 474.42C858.932 466.59 866.073 462.924 875.711 461.672Z"/><path transform="scale(0.25 0.25)" d="M865.021 469.573C875.92 464.18 890.239 465.289 895.753 477.676C907.593 504.275 869.129 534.758 852.249 503.231C847.045 493.504 853.149 479.583 861.13 472.266C862.062 471.51 863.96 470.295 865.021 469.573Z"/><path fill="#A3A2A2" transform="scale(0.25 0.25)" d="M865.021 469.573C875.92 464.18 890.239 465.289 895.753 477.676C907.593 504.275 869.129 534.758 852.249 503.231C847.045 493.504 853.149 479.583 861.13 472.266L861.684 473.163C850.624 483.611 845.541 504.473 863.019 512.328C875.94 516.7 888.127 505.536 891.872 494.369C898.251 475.348 884.195 461.221 865.162 470.687L865.021 469.573Z"/><path fill="#717171" transform="scale(0.25 0.25)" d="M865.021 469.573L865.162 470.687L861.684 473.163L861.13 472.266C862.062 471.51 863.96 470.295 865.021 469.573Z"/><path fill="#717171" transform="scale(0.25 0.25)" d="M873.801 471.597C897.793 470.117 892.312 503.459 871.129 508.967C849.094 510.191 850.843 479.211 873.801 471.597Z"/><path transform="scale(0.25 0.25)" d="M880.254 522.6C885.186 522.257 890.578 522.943 894.612 525.91C911.335 538.212 907.522 564.1 893.089 576.565C888.117 580.86 883.887 582.046 877.828 582.993C843.116 583.609 840.478 530.501 880.254 522.6Z"/><path transform="scale(0.25 0.25)" d="M878.766 527.394C884.249 526.54 888.376 526.987 892.92 530.269C910.076 542.661 897.584 577.878 877.518 578.332C853.741 578.869 849.591 550.283 864.246 535.54C865.157 534.61 866.112 533.725 867.109 532.888C870.829 530.057 874.112 528.206 878.766 527.394Z"/><path fill="#A3A2A2" transform="scale(0.25 0.25)" d="M878.766 527.394C884.249 526.54 888.376 526.987 892.92 530.269C910.076 542.661 897.584 577.878 877.518 578.332C853.741 578.869 849.591 550.283 864.246 535.54C865.157 534.61 866.112 533.725 867.109 532.888L867.966 533.545C855.535 543.958 850.462 567.732 869.416 573.826C887.571 579.662 907.069 549.699 894.851 534.694C891.488 530.564 888.2 529.019 882.942 528.388L882.444 527.573L878.766 527.394Z"/><path fill="#A3A2A2" transform="scale(0.25 0.25)" d="M867.109 532.888C870.829 530.057 874.112 528.206 878.766 527.394L882.444 527.573L882.942 528.388C876.765 528.647 873.068 529.972 867.966 533.545L867.109 532.888Z"/><path fill="#717171" transform="scale(0.25 0.25)" d="M880.138 532.161C903.947 532.635 896.502 565.781 875.206 570.461C853.873 571.365 855.945 536.454 880.138 532.161Z"/><path transform="scale(0.25 0.25)" d="M879.493 540.317C884.083 541.129 884.73 550.116 885.63 553.872C887.52 561.758 886.718 563.698 878.821 565.813C866.227 564.292 870.804 546.597 879.493 540.317Z"/><path fill="#DFDFE0" transform="scale(0.25 0.25)" d="M878.988 543.26C879.718 543.465 880.825 543.687 880.914 544.563C881.282 548.175 885.311 557.252 884.164 560.089C882.379 561.548 880.387 561.9 878.135 562.57C877.919 562.77 877.703 562.97 877.487 563.17C875.517 561.967 874.352 559.451 873.962 557.219C872.967 551.511 876 547.752 878.988 543.26Z"/><path transform="scale(0.25 0.25)" d="M807.921 554.599C846.94 551.228 845.992 602.452 812.78 611.408C806.602 612.249 801.636 611.851 796.049 608.786C790.278 605.55 786.06 600.117 784.355 593.724C779.528 576.303 791.083 559.478 807.921 554.599Z"/><path fill="#A3A2A2" transform="scale(0.25 0.25)" d="M812.814 558.675C839.877 559.914 837.146 596.209 817.047 604.998C814.121 606.277 811.636 606.624 808.541 607.132C797.55 606.896 789.732 600.496 788.196 589.437C787.224 582.02 789.342 574.529 794.055 568.72C799.19 562.318 804.781 559.493 812.814 558.675Z"/><path transform="scale(0.25 0.25)" d="M812.126 560.169C837.754 560.192 833.83 598.642 806.539 603.858C797.311 603.843 790.776 598.598 789.444 589.358C788.47 582.412 790.355 575.368 794.668 569.837C799.382 563.789 804.734 561.087 812.126 560.169Z"/><path fill="#717171" transform="scale(0.25 0.25)" d="M810.24 564.14C832.446 562.147 829.081 591.777 808.559 598.961C786.441 602.7 788.054 570.484 810.24 564.14Z"/><path transform="scale(0.25 0.25)" d="M811.437 570.712C833.921 575.11 819.079 587.445 811.188 597.136C810.592 596.582 809.281 594.166 809.107 593.391C807.624 586.813 801.26 589.459 799.265 584.77C798.906 579.019 807.072 576.334 810.979 571.308L811.437 570.712Z"/><path fill="#BCBBBB" transform="scale(0.25 0.25)" d="M812.873 574.472C817.998 577.425 818.349 575.562 820.984 576.733C822.615 581.08 814.411 589.784 811.74 592.661C810.474 591.464 809.835 588.817 808.66 587.66C806.867 585.894 803.685 585.732 802.538 583.395C803.654 580.509 809.884 578.475 812.873 574.472Z"/><path transform="scale(0.25 0.25)" d="M803.796 490.144C808.806 489.596 815.434 491.187 819.45 494.175C837.311 507.464 829.784 536.604 811.36 545.394C808.028 546.984 805.711 547.364 802.183 547.928C767.933 549.476 766.255 495.942 803.796 490.144Z"/><path fill="#A3A2A2" transform="scale(0.25 0.25)" d="M803.884 494.623C831.725 492.687 832.651 538.146 801.558 543.285C774.329 544.127 772.57 501.118 803.884 494.623Z"/><path transform="scale(0.25 0.25)" d="M802.943 496.109C829.101 494.099 828.133 532.289 801.717 539.001C772.928 540.309 777.34 501.893 802.943 496.109Z"/><path fill="#717171" transform="scale(0.25 0.25)" d="M804.87 499.657C825.463 500.842 821.399 531.966 799.377 535.683C777.329 533.74 783.202 503.38 804.87 499.657Z"/><path transform="scale(0.25 0.25)" d="M805.004 505.622C809.833 505.257 813.795 505.02 816.001 509.908C815.029 514.806 811.619 519.577 810.504 524.528C809.963 526.93 809.886 527.383 808.148 528.976C804.595 529.359 800.02 529.509 797.511 526.543C797.42 524.416 804.093 507.043 805.004 505.622Z"/><path fill="#BCBBBB" transform="scale(0.25 0.25)" d="M801.205 522.179C802.322 520.137 803.2 518.403 804.176 516.291C805.656 513.089 805.073 509.401 808.288 507.794C810.718 507.735 812.768 509.064 814.899 510.323C810.349 515.836 809.254 518.543 807.275 525.626C805.308 527.174 802.818 526.841 800.994 525.184C800.372 523.408 800.487 524.365 801.205 522.179Z"/><path fill="#DFDFE0" transform="scale(0.25 0.25)" d="M801.205 522.179C803.17 522.252 804.169 522.081 805.787 523.179C806.512 524.258 806.695 524.467 807.275 525.626C805.308 527.174 802.818 526.841 800.994 525.184C800.372 523.408 800.487 524.365 801.205 522.179Z"/><path transform="scale(0.25 0.25)" d="M802.199 644.584C826.606 642.075 831.747 675.412 807.602 682.407C784.508 686.235 777.052 653.371 802.199 644.584Z"/><path fill="#A3A2A2" transform="scale(0.25 0.25)" d="M802.518 649.126C809.931 647.998 815.796 651.113 818.055 658.516C819.293 662.589 818.813 666.991 816.726 670.702C814.322 674.931 811.125 676.692 806.632 677.95C788.111 679.005 784.883 657.084 802.518 649.126Z"/><path transform="scale(0.25 0.25)" d="M804.299 652.622C818.163 653.786 817.354 669.494 804.444 673.679C789.927 673.285 789.465 656.159 804.299 652.622Z"/><path fill="#717171" transform="scale(0.25 0.25)" d="M803.647 655.517C814.555 655.982 812.093 666.779 804.333 670.472C794.805 670.834 793.232 659.827 803.647 655.517Z"/><path transform="scale(0.25 0.25)" d="M767.345 702.56C775.926 702.032 783.194 705.223 786.524 713.603C788.499 718.442 788.386 723.882 786.21 728.634C783.094 735.3 778.402 737.894 771.907 740.132C763.066 741.325 755.183 737.946 752.092 729.141C750.348 724.11 750.75 718.584 753.204 713.859C756.317 707.751 761.036 704.556 767.345 702.56Z"/><path fill="#A3A2A2" transform="scale(0.25 0.25)" d="M767.052 707.56C770.048 707.291 771.943 707.051 774.834 708.146C778.091 709.349 780.717 711.828 782.106 715.011C783.687 718.571 783.758 722.62 782.303 726.233C780.196 731.445 776.597 733.452 771.776 735.374C753.113 736.999 749.328 715.545 767.052 707.56Z"/><path transform="scale(0.25 0.25)" d="M767.897 710.617C773.574 710.098 778.625 714.211 779.268 719.876C779.911 725.54 775.909 730.68 770.26 731.446C766.494 731.957 762.747 730.39 760.466 727.35C758.185 724.311 757.727 720.275 759.27 716.802C760.812 713.329 764.113 710.963 767.897 710.617Z"/><path fill="#717171" transform="scale(0.25 0.25)" d="M766.929 713.564C777.097 712.335 779.905 722.667 770.983 727.952C760.308 728.707 757.82 719.38 766.929 713.564Z"/><path transform="scale(0.25 0.25)" d="M845.984 427.476C852.249 427.743 863.714 434.746 866.136 440.727C867.399 443.931 867.317 447.509 865.911 450.653C864.021 454.979 860.451 457.216 856.251 458.858C855.413 458.557 854.584 458.232 853.764 457.884C850.037 456.343 846.599 454.571 843.095 452.611C829.969 445.267 832.281 432.327 845.984 427.476Z"/><path fill="#A3A2A2" transform="scale(0.25 0.25)" d="M846.369 432.412C856.206 433.098 871.696 446.255 856.047 454.49C853.058 453.503 849.055 451.059 846.268 449.411C836.89 443.867 836.068 437.37 846.369 432.412Z"/><path transform="scale(0.25 0.25)" d="M846.036 437.809C848.821 439.443 856.957 444.02 858.207 446.917C858.494 447.582 857.879 448.594 857.553 449.41C853.531 447.58 847.598 444.548 845.059 441.002C844.718 439.1 844.661 439.861 846.036 437.809Z"/><path fill="#BCBBBB" transform="scale(0.25 0.25)" d="M302.868 130.7C304.734 130.372 310.604 130.303 312.605 130.343C336.745 130.822 353.931 139.934 374.319 150.9C383.413 155.715 392.408 160.717 401.297 165.901C392.755 178.437 383.235 191.166 374.293 203.492L334.827 258.165L185.818 463.33C177.077 458.536 168.736 453.279 158.916 451.321C142.068 447.961 127.987 455.771 113.868 463.771C108.143 467.015 102.123 470.208 96.2943 473.396L44.686 501.137C41.865 493.153 40.9415 487.456 40.1089 479.122C37.826 439.573 53.0032 413.28 72.9221 381.616C86.5154 360.037 100.684 338.826 115.412 318.005C148.345 270.522 182.217 221.801 218.015 176.485C217.253 182.55 216.158 189.035 214.268 194.842C204.107 226.054 231.294 255.326 263.286 249.181C295.695 242.957 324.941 212.853 318.016 178.125C315.859 167.273 309.457 157.731 300.233 151.621C295.851 148.78 284.632 143.57 279.267 144.794C275.992 145.541 269.493 142.453 264.587 141.449C279.112 135.144 286.968 132.399 302.868 130.7Z"/><path transform="scale(0.25 0.25)" d="M216.44 267.602C222.244 267.35 227.205 268.05 232.421 270.609C249.508 278.994 250.842 281.388 257.413 298.074C253.308 304.472 245.435 313.4 242.547 319.785C244.126 326.552 260.285 322.9 261.84 345.131C258.785 350.012 243.753 371.433 240.589 375.172C232.145 373.603 219.469 365.678 211.287 361.34C207.726 366.121 194.449 385.34 190.819 387.925C188.742 388.207 188.299 387.978 186.196 387.484L170.013 378.451C158.976 372.298 153.989 369.644 149.443 356.787C153.808 352.098 161.33 341.074 164.873 335.586C158.652 331.546 151.841 328.48 145.907 323.924C142.886 322.278 139.303 311.552 141.236 309.102C149.14 299.086 157.803 286.1 166.54 276.978C175.727 281.336 184.723 287.446 194.217 292.013C194.929 290.709 195.693 289.434 196.506 288.191C201.149 280.974 207.634 269.528 216.44 267.602Z"/><path fill="#717171" transform="scale(0.25 0.25)" d="M214.335 272.541C226.588 270.742 236.146 277.34 245.813 283.791C242.056 289.328 238.341 294.932 234.4 300.34C231.903 303.767 228.682 307.16 226.763 310.926C226.208 312.016 225.84 313.27 226.098 314.498C227.118 319.352 246.887 328.475 251.803 331.596C245.868 340.185 239.067 349.113 232.922 357.684C223.32 353.55 213.505 347.149 203.866 343.008C202.173 342.281 201.63 342.436 200.396 343.075C199.367 344.903 199.78 344.773 200.406 347.458C194.269 355.301 188.865 362.182 182.897 370.243L182.383 370.681C180.483 370.632 158.708 358.105 155.461 356.293C162.206 347.466 168.632 338.399 174.725 329.109C168.759 323.305 154.177 315.136 146.273 309.849C153.552 300.929 160.091 291.727 167.216 282.799C176.337 286.674 186.154 293.826 195.463 297.458C197.237 298.15 198.593 298.021 200.178 297.141C200.728 295.254 200.333 295.348 199.596 293.053C200.424 288.71 210.683 275.967 214.335 272.541Z"/><path transform="scale(0.25 0.25)" d="M198.964 302.731C204.116 302.063 206.431 302.013 210.804 305.097C213.779 307.195 217.071 311.46 214.166 314.802C210.822 307.604 210.158 305.481 201.525 304.976C200.217 304.899 199.34 305.028 198.24 304.356L198.189 303.57L198.964 302.731Z"/><path transform="scale(0.25 0.25)" d="M189.347 313.375C190.93 314.946 188.533 320.301 188.93 322.47C189.192 323.897 191.177 327.363 191.957 328.77L191.547 329.45C184.704 325.794 185.283 319.078 189.347 313.375Z"/><path transform="scale(0.25 0.25)" d="M210.119 327.548L210.782 327.955C208.26 331.84 205.36 332.309 200.999 332.754C200.409 332.395 200.719 332.661 200.23 331.801C201.489 330.304 206.685 329.666 210.119 327.548Z"/><path fill="#565555" transform="scale(0.25 0.25)" d="M247.971 288.356C249.305 289.284 251.44 295.419 252.215 297.379C248.769 302.71 242.675 312.533 238.21 317.235C237.736 317.734 237.206 317.323 236.306 317.036L230.174 313.885C234.366 307.32 243.272 294.785 247.971 288.356Z"/><path fill="#717171" transform="scale(0.25 0.25)" d="M203.219 351.364C204.181 352.758 206.143 356.691 207.028 358.369C202.983 365.314 194.509 376.451 189.59 383.176C187.656 380.373 186.85 377.567 185.77 374.37C189.58 367.455 197.99 357.44 203.219 351.364Z"/><path fill="#565555" transform="scale(0.25 0.25)" d="M254.24 335.311C256.071 337.154 256.756 341.02 257.429 343.631C255.272 346.857 242.799 366.108 240.988 366.866C239.175 364.714 238.279 363.333 236.781 361.013C238.781 356.535 250.824 340.13 254.24 335.311Z"/><path fill="#565555" transform="scale(0.25 0.25)" d="M208.248 350.456C216.729 354.914 223.38 358.386 232.302 361.894C234.491 365.08 235.249 366.238 236.842 369.726C231.037 367.474 216.58 359.443 211.421 355.345C210.508 354.62 208.891 351.631 208.248 350.456Z"/><path fill="#565555" transform="scale(0.25 0.25)" d="M157.551 363.313C162.626 365.121 176.655 373.191 181.978 376.182C183.024 376.77 183.181 379.477 183.349 380.81C178.653 378.916 163.97 370.192 159.569 366.783C158.825 366.207 157.951 364.247 157.551 363.313Z"/><path fill="#565555" transform="scale(0.25 0.25)" d="M145.982 314.725C152.969 319.898 160.156 323.225 166.956 328.371C168.554 329.58 168.226 329.385 168.345 331.005L167.192 331.397C166.02 331.271 164.309 330.489 163.316 329.809C157.065 325.532 148.258 322.402 145.982 314.725Z"/><path transform="scale(0.25 0.25)" d="M351.056 155.096C356.832 154.404 360.843 156.726 365.729 159.543C369.786 161.882 375.28 164.942 377.352 169.324C380.61 176.211 375.171 183.384 368.976 186.185C362.574 187.264 357.05 182.451 351.62 180.055C338.911 174.447 338.869 162.052 351.056 155.096Z"/><path fill="#BCBBBB" transform="scale(0.25 0.25)" d="M357.276 159.712C358.21 160.088 359.765 160.859 360.487 161.53C363.826 164.636 363.97 177.446 363.911 182.059C358.588 179.705 358.932 166.36 357.469 160.468L357.276 159.712Z"/><path fill="#BCBBBB" transform="scale(0.25 0.25)" d="M364.648 163.62C365.411 163.925 367.374 164.686 367.826 165.245C370.895 169.038 369.948 177.789 369.42 182.1C367.702 182.764 368.287 182.935 367.108 182.482C366.052 177.889 365.216 168.612 364.648 163.62Z"/><path fill="#BCBBBB" transform="scale(0.25 0.25)" d="M352.454 159.047C353.691 159.324 353.43 159.258 354.58 159.785C356.61 163.292 357.259 173.642 357.666 178.039L353.648 175.607C353.095 169.85 352.633 164.835 352.454 159.047Z"/><path fill="#BCBBBB" transform="scale(0.25 0.25)" d="M349.619 161.278C350.423 162.915 351.167 172.311 350.693 174.147L349.679 173.917C344.392 169.496 346.215 166.215 349.619 161.278Z"/><path fill="#A3A2A2" transform="scale(0.25 0.25)" d="M371.338 167.765C375.321 170.822 374.647 172.196 373.066 176.53L372.792 176.932L372.246 177.005C371.639 174.209 371.533 170.674 371.338 167.765Z"/><path fill="#A3A2A2" transform="scale(0.25 0.25)" d="M314.518 107.704C358.44 104.003 382.043 122.214 418.906 141.625C413.82 148.23 409.289 155.473 404.051 162.259C394.642 157.049 385.205 151.89 375.74 146.784C354.176 135.118 335.77 125.508 310.387 125.813C288.906 126.071 276.271 131.121 257.475 140.329C247.057 145.432 236.79 147.2 228.485 157.042C224.733 161.488 221.001 165.923 217.356 170.386C209.353 180.036 201.621 189.909 194.169 199.992C177.873 221.605 161.955 243.5 146.424 265.668C124.071 296.889 102.247 328.484 80.9611 360.442C70.151 376.869 55.6639 398.364 47.7129 416.134C39.0615 435.069 34.8649 455.734 35.4456 476.543C35.6398 482.995 37.9498 501.673 42.6936 506.116C46.9423 506.477 121.677 463.719 133.246 458.61C143.52 454.126 155.152 453.895 165.596 457.966C172.281 460.624 181.096 465.826 187.59 469.443L219.207 487.011C255.704 507.017 292.079 527.244 328.331 547.691C404.665 589.926 480.773 632.568 556.652 675.617C585.508 692.037 614.692 707.682 643.178 724.762C656.739 732.893 655.775 751.242 657.224 765.067C657.981 772.289 658.381 779.739 658.932 786.965C660.513 807.469 662.257 827.96 664.163 848.437C664.768 855.496 666.512 876.582 668.975 882.385C671.915 882.081 674.825 881.536 677.675 880.753C696.315 875.805 718.96 861.977 732.11 847.946C746.695 832.385 758.882 811.237 770.439 793.098L813.703 725.682L876.107 628.02C887.754 609.934 900.921 590.292 911.931 572.171C927.023 547.332 934.308 508.235 926.155 480.022C917.128 448.788 901.624 438.583 875.262 423.654C863.757 416.717 852.156 409.94 840.464 403.322C845.399 396.276 850.444 389.307 855.596 382.417C870.977 390.138 886.046 398.465 900.768 407.377C907.083 411.222 912.331 414.43 918.41 418.655C940.482 433.998 946.869 459.408 950.673 484.671C954.166 507.872 952.328 533.489 943.755 555.56C935.689 576.329 923.236 592.663 911.332 611.444L857.171 696.502L788.905 803.581C778.936 819.116 767.098 838.965 756.602 853.503C745.494 868.887 718.263 890.05 700.795 897.146C691.156 901.062 683.34 903.069 673.034 904.51C658.096 887.223 657.345 861.367 655.653 839.849L651.6 790.007C650.747 779.86 650.53 769.144 646.794 759.571C642.929 749.668 633.97 746.644 625.29 741.947L598.893 727.577C577.762 716.044 556.482 703.739 535.407 691.906L307.384 564.33L206.561 507.994L174.504 489.701C141.381 470.828 144.963 474.608 112.87 493.185L69.8282 517.72C61.7174 522.315 50.667 528.956 42.4055 532.614C26.9226 518.409 20.9357 505.026 18.8766 484.008C13.5201 429.331 49.1178 384.974 77.0601 341.905C113.251 286.121 151.898 231.96 194.041 180.545C203.181 169.395 213.663 157.665 224.312 147.809C249.565 127.316 282.16 110.74 314.518 107.704Z"/><path fill="#A3A2A2" transform="scale(0.25 0.25)" d="M950.883 549.345C965.826 555.358 981.387 559.701 997.283 562.297C989.607 593.624 973.669 627.282 959.883 656.494C929.982 719.175 897.093 780.386 861.33 839.918L842.834 870.68C839.578 876.049 835.164 883.7 831.458 888.621C823.79 898.926 814.496 907.915 803.941 915.236C779.843 931.897 753.427 937.417 724.809 932.103C705.806 927.602 692.047 920.267 676.572 908.508C714.029 904.029 750.852 872.982 770.174 841.471C775.41 832.932 781.112 824.509 786.52 816.06C803.258 790.03 819.862 763.913 836.329 737.711L902.993 633.321C913.473 616.891 923.663 600.472 934.499 584.256C941.222 574.196 946.903 560.733 950.883 549.345Z"/><path fill="#A3A2A2" transform="scale(0.25 0.25)" d="M422.828 143.95C441.9 153.824 460.879 164.806 479.69 175.186L614.143 249.687L784.919 343.928C806.615 355.978 830.332 367.891 851.564 380.389C849.697 383.312 847.071 386.796 845.017 389.673C845.489 382.932 843.876 376.658 836.064 375.611C833.071 375.197 830.038 376.007 827.651 377.859C822.358 381.981 823.133 387.57 827.085 392.294C834.002 397.269 838.08 395.558 844.518 391.164C840.665 394.909 839.716 395.982 836.992 400.54C826.366 396.77 811.709 387.771 801.355 382.118L719.475 336.438L407.732 164.306C412.719 157.52 417.632 150.564 422.828 143.95Z"/><path fill="#A3A2A2" transform="scale(0.25 0.25)" d="M143.994 482.104C148.64 482.33 158.741 489.075 163.09 491.615L188.689 506.488C171.595 536.98 126.856 555.767 92.877 552.234C76.1678 550.905 60.11 545.168 46.3409 535.609C63.6794 526.713 80.4988 516.566 97.2888 507.133C105.875 502.309 135.904 483.723 143.994 482.104Z"/><path transform="scale(0.25 0.25)" d="M664.67 649.637C646.831 616.216 702.68 577.215 722.44 604.682C727.952 613.466 729.35 620.626 727.066 630.861C724.862 641.181 718.525 650.146 709.533 655.667C694.452 664.998 675.896 665.221 664.67 649.637Z"/><path fill="#A3A2A2" transform="scale(0.25 0.25)" d="M721.936 605.586L722.44 604.682C727.952 613.466 729.35 620.626 727.066 630.861C724.862 641.181 718.525 650.146 709.533 655.667C694.452 664.998 675.896 665.221 664.67 649.637L665.175 648.477C667.155 651.243 671.266 653.887 674.464 654.983C698.967 663.376 733.67 629.479 721.936 605.586Z"/><path fill="#565555" transform="scale(0.25 0.25)" d="M664.67 649.637C646.831 616.216 702.68 577.215 722.44 604.682L721.936 605.586C702.35 579.02 649.181 616.197 665.175 648.477L664.67 649.637Z"/><path fill="#BCBBBB" transform="scale(0.25 0.25)" d="M700.28 600.606C735.209 598.405 719.094 644.319 686.977 651.463C651.009 654.723 665.821 607.33 700.28 600.606Z"/><path fill="#BCBBBB" transform="scale(0.25 0.25)" d="M724.646 598.973C744.603 599.849 756.725 609.888 758.198 630.716C760.929 669.347 702.15 712.46 670.598 681.938C663.652 673.677 662.616 665.835 661.958 655.406C663.543 658.019 665.104 660.255 667.236 662.449C674.336 669.717 684.078 673.797 694.238 673.758C717.206 673.786 745.199 654.056 741.668 628.719C740.269 618.683 731.737 605.921 724.646 598.973Z"/><path fill="#A3A2A2" transform="scale(0.25 0.25)" d="M951.529 463.721C953.236 463.552 953.401 463.509 955.183 463.704C960.763 475.832 961.692 491.087 970.66 502.449C974.629 507.478 981.055 512.523 987.531 508.183C991.17 505.745 991.621 496.174 992.09 491.954C997.574 503.781 999.872 530.634 999.284 544.131C998.946 548.836 998.604 553.073 998.03 557.772C984.065 556.154 965.16 550.181 952.135 544.969C959.354 511.772 957.931 496.406 951.529 463.721Z"/><path fill="#BCBBBB" transform="scale(0.25 0.25)" d="M256.713 150.076C293.495 147.037 283.776 188.29 250.34 198.764C213.803 205.314 222.6 157.232 256.713 150.076Z"/><path fill="#BCBBBB" transform="scale(0.25 0.25)" d="M284.189 149.468C296.348 151.976 307.635 160.517 311.691 172.37C321.776 201.838 303.708 226.816 278.309 239.517C274.288 241.216 271.568 242.231 267.403 243.523C267.497 236.162 268.025 230.564 268.576 223.199C275.008 221.563 281.009 218.554 286.166 214.378C310.449 194.702 301.158 170.159 284.189 149.468Z"/><path fill="#A3A2A2" transform="scale(0.25 0.25)" d="M906.164 388.65C915.023 391.213 930.299 400.736 938.944 405.716L964.72 420.23C964.853 431.727 963.546 444.37 957.347 454.439L956.491 454.218C938.41 421.694 928.425 413.211 895.692 395.593C899.117 393.181 902.609 390.866 906.164 388.65ZM909.02 399.606L909.177 398.278C907.511 396.944 901.462 393.835 899.33 393.891L899.016 394.986C900.43 396.59 906.859 399.436 909.02 399.606Z"/><path fill="#A3A2A2" fill-opacity="0.43137255" transform="scale(0.25 0.25)" d="M899.33 393.891C901.462 393.835 907.511 396.944 909.177 398.278L909.02 399.606C906.859 399.436 900.43 396.59 899.016 394.986L899.33 393.891Z"/><path fill="#A3A2A2" fill-opacity="0.95686275" transform="scale(0.25 0.25)" d="M362.423 102.232C363.535 103.846 369.01 105.413 370.111 101.85L369.688 101.328L367.891 101.484L367.493 100.848C367.809 97.6662 371.071 94.3155 374.386 94.6675L374.398 95.5123L373.18 96.5428L374.047 97.0538C378.103 96.4152 376.588 97.1025 379.628 97.3743L380.482 97.4438C381.524 98.4346 381.287 97.831 381.414 99.1953C380.079 100.002 379.891 100.094 378.758 101.143C378.865 102.326 378.689 102.502 378.08 103.511L378.615 104.107L379.572 103.702C380.746 101.747 380.941 101.581 382.618 99.9468L383.059 99.5224C382.712 97.5493 382.659 98.0803 381.122 96.2818C388.791 100.089 427.474 119.958 430.643 123.353C435.698 128.77 438.705 138.114 441.787 144.893C430.715 138.655 419.378 132.827 408.202 126.771C392.041 118.014 372.926 106.354 354.922 102.058C358.047 101.677 359.347 101.515 362.423 102.232Z"/><path fill="#A3A2A2" transform="scale(0.25 0.25)" d="M966.455 458.702C973.036 457.933 976.056 460.262 981.488 463.723C985.494 471.883 989.854 495.401 984.633 504.417C983.98 505.544 982.321 505.569 981.116 505.72C968.498 497.858 963.142 473.459 959.279 459.594C961.415 459.164 964.239 458.941 966.455 458.702Z"/><defs><linearGradient id="gradient_0" gradientUnits="userSpaceOnUse" x1="277.54678" y1="205.00348" x2="251.85672" y2="178.45081"><stop offset="0" stop-color="#777676"/><stop offset="1" stop-color="#8F8E8F"/></linearGradient></defs><path fill="url(#gradient_0)" transform="scale(0.25 0.25)" d="M284.931 161.292C286.575 163.65 287.943 171.57 288.63 174.735C292.934 194.555 278.636 212.095 259.186 215.125C248.34 216.815 241.199 214.719 232.271 208.357C229.499 206.015 228.295 204.464 226.252 201.577C243.431 214.468 264.115 203.102 276.397 188.753C283.312 180.672 286.03 171.933 284.931 161.292Z"/><path fill="#BCBBBB" transform="scale(0.25 0.25)" d="M218.234 196.337C219.926 198.179 221.697 205.324 225.138 209.485C232.59 218.499 238.604 222.975 250.109 224.735C248.898 234.873 249.966 236.004 250.26 244.661L250.282 245.506C248.952 245.305 247.628 245.067 246.311 244.791C223.19 239.948 213.366 218.263 218.234 196.337Z"/><path fill="#A3A2A2" transform="scale(0.25 0.25)" d="M732.355 616.247C733.776 618.144 734.745 620.303 735.584 622.497C744.546 645.934 721.77 665.721 700.317 668.468C695.712 669.058 692.108 668.804 687.535 668.397C685.055 667.789 684.082 667.186 681.86 666.048C714.112 668.227 732.883 647.848 732.355 616.247Z"/><path fill="#A3A2A2" transform="scale(0.25 0.25)" d="M969.53 423.332C975.23 427.344 980.942 436.105 983.009 442.808C982.295 444.86 978.368 454.104 976.971 455.123C971.975 454.065 967.932 454.18 962.868 454.349C967.699 442.312 969.347 436.436 969.53 423.332Z"/><path fill="#BCBBBB" transform="scale(0.25 0.25)" d="M262.57 223.707C262.842 223.686 263.548 223.83 263.854 223.88C264.336 225.307 263.332 241.262 263.309 244.451C260.877 244.878 258.126 245.225 255.659 245.586C252.597 241.739 253.861 229.298 254.294 224.503C256.834 224.13 259.971 223.938 262.57 223.707Z"/><path fill="#A3A2A2" transform="scale(0.25 0.25)" d="M291.618 167.931C295.943 174.941 298.034 185.382 295.718 193.289C290.788 210.119 276 217.416 260.333 220.279L260.142 219.143C282.32 215.165 297.128 197.06 293.072 174.298C292.697 172.152 292.212 170.027 291.618 167.931Z"/><path fill="#BCBBBB" fill-opacity="0.85490197" transform="scale(0.25 0.25)" d="M361.884 91.5553C363.875 89.9296 364.333 89.4701 367.103 89.5299C370.151 89.5957 379.037 94.4683 381.122 96.2818C382.659 98.0803 382.712 97.5493 383.059 99.5224L382.618 99.9468C380.941 101.581 380.746 101.747 379.572 103.702L378.615 104.107L378.08 103.511C378.689 102.502 378.865 102.326 378.758 101.143C379.891 100.094 380.079 100.002 381.414 99.1953C381.287 97.831 381.524 98.4346 380.482 97.4438L379.628 97.3743C376.588 97.1025 378.103 96.4152 374.047 97.0538L373.18 96.5428L374.398 95.5123L374.386 94.6675C371.071 94.3155 367.809 97.6662 367.493 100.848L367.891 101.484L369.688 101.328L370.111 101.85C369.01 105.413 363.535 103.846 362.423 102.232C362.532 101.954 362.658 101.177 362.722 100.849C361.425 100.077 361.406 100.19 360.744 98.8656C360.971 96.3559 362.485 96.6437 363.591 93.7597C363.082 91.958 363.573 92.7101 361.884 91.5553Z"/><path fill="#A3A2A2" transform="scale(0.25 0.25)" d="M832.077 379.569C840.332 378.667 844.156 386.014 837.126 390.482C829.007 390.854 824.478 385.212 832.077 379.569Z"/><path fill="#BCBBBB" fill-opacity="0.29803923" transform="scale(0.25 0.25)" d="M361.884 91.5553C363.573 92.7101 363.082 91.958 363.591 93.7597C362.485 96.6437 360.971 96.3559 360.744 98.8656C361.406 100.19 361.425 100.077 362.722 100.849C362.658 101.177 362.532 101.954 362.423 102.232C359.347 101.515 358.047 101.677 354.922 102.058C353.505 101.695 353.554 101.755 352.363 100.932C354.518 98.3486 359.302 94.0279 361.884 91.5553Z"/><path fill="#DFDFE0" fill-opacity="0.050980393" transform="scale(0.25 0.25)" d="M332.596 97.2484C334.921 97.111 340.756 96.4726 342.607 97.2593L342.75 97.8149L340.827 99.3317C337.913 99.0665 333.487 99.1521 330.988 98.3763L330.911 97.7794L332.596 97.2484Z"/><path fill="#717171" transform="scale(0.25 0.25)" d="M260.333 220.279C256.986 220.818 245.836 221.281 243.301 218.958C245.159 218.325 251.091 219.58 253.541 219.554C255.854 219.529 257.837 219.354 260.142 219.143L260.333 220.279Z"/><path fill="#A3A2A2" transform="scale(0.25 0.25)" d="M948.49 451.379C950.248 453.1 952.574 456.778 953.192 459.249C951.998 459.42 952.05 459.492 950.961 459.019C949.425 456.799 949.093 454.081 948.49 451.379Z"/><path fill="#2C2D2E" transform="scale(0.25 0.25)" d="M221.971 182.308C222.911 183.109 224.098 190.291 225.107 193.188C222.578 190.718 222.004 185.674 221.971 182.308Z"/><path fill="#2C2D2E" transform="scale(0.25 0.25)" d="M233.061 201.526C235.867 201.78 240.312 202.83 243.117 203.449C238.514 203.913 237.18 203.554 233.061 201.526Z"/><path fill="#2C2D2E" transform="scale(0.25 0.25)" d="M267.118 146.864L267.878 146.554C270.339 146.884 271.153 147.443 273.384 148.54C271.811 148.39 268.143 147.884 267.118 146.864Z"/></svg>