<?xml version="1.0" encoding="utf-8" ?><svg xmlns="http://www.w3.org/2000/svg" xmlns:xlink="http://www.w3.org/1999/xlink" width="256" height="256" viewBox="0 0 256 256"><path fill="#020202" transform="scale(0.25 0.25)" d="M629.478 576.041C630.445 564.787 630.326 549.339 630.557 537.801C631.102 510 631.456 482.196 631.619 454.39L635.851 235.323L636.999 165.75C637.143 154.867 636.843 142.989 637.713 132.148C638.064 127.762 640.828 123.114 644.294 120.292C648.202 117.083 653.264 115.637 658.277 116.298C663.024 116.959 667.309 119.492 670.177 123.332C672.426 126.386 674.183 131.043 674.292 134.809C674.692 148.564 674.611 162.507 674.882 176.271L676.686 275.234L682.514 577.816C702.98 578.23 723.44 578.88 743.891 579.767C773.276 580.815 805.629 580.957 833.979 589.394C841.695 591.69 847.404 595.314 854.072 599.588C854.823 589.485 854.707 576.91 854.981 566.501L856.692 491.719L862.304 257.013C862.907 236.602 863.341 216.187 863.605 195.769C863.748 182.748 863.749 168.928 864.614 156.009C866.184 132.53 902.443 132.38 903.08 158.156C903.484 174.517 903.646 190.996 903.773 207.367L904.777 293.561L907.397 485.48C907.859 539.827 907.78 596.067 909.306 650.309C926.505 666.241 943.305 682.599 959.69 699.366C963.459 703.19 967.776 706.927 971.094 711.137C972.942 713.613 973.311 718.642 973.348 721.677C973.675 748.578 973.539 775.504 973.538 802.407C973.538 810.299 972.034 812.792 968.023 819.34C961.22 830.448 950.805 834.191 938.552 836.243C936.461 840.641 935.502 842.594 932.258 846.373C942.849 846.201 992.35 853.963 987.268 867.314C983.287 877.777 935.071 883.825 925.229 885.364C897.868 889.642 871.396 891.733 844.256 894.072C699.978 905.122 555.227 908.729 410.578 904.881C355.831 904.251 301.111 902.17 246.474 898.641C201.761 895.992 157.236 892.882 112.773 886.459C106.097 885.495 33.6134 877.373 42.103 862.9C48.2395 852.439 80.1209 849.13 93.4519 846.382L94.0518 846.254C91.053 842.26 90.0762 840.466 87.6821 836.145C75.6538 834.022 64.5388 829.289 57.4197 818.801C50.8126 809.067 51.9035 805.658 51.8882 794.266L51.8885 769.525L51.9135 735.237C51.9166 731.029 51.3093 713.761 53.7759 711.376C74.2586 691.571 95.1179 668.427 116.46 649.837C115.325 623.071 116.794 590.728 117.089 563.755L118.953 395.805L121.167 234.458L121.9 179.588C122.166 164.545 118.33 139.27 140.786 139.132C146.034 139.095 151.05 141.292 154.581 145.175C160.58 151.657 159.706 158.066 159.688 166.226C159.673 173.427 159.84 180.649 160.017 187.848L161.724 270.004L165.632 486.905L166.518 554.363C166.578 569.183 166.081 588.04 166.917 602.656C180.561 594.88 193.993 588.169 209.735 585.833C228.574 583.038 248.161 582.821 267.182 581.858C292.196 580.591 317.381 579.049 342.417 578.923C342.607 481.105 343.84 383.291 346.118 285.499L347.83 192.644L348.346 157.063C348.438 149.338 348.336 141.443 349.044 133.867C349.959 124.072 358.426 116.026 368.41 116.199C376.719 116.344 385.454 122.977 386.398 131.626C387.027 141.589 386.815 151.838 387.101 161.895L388.894 246.217L393.682 468.473C394.045 493.874 394.63 519.271 395.437 544.662C395.668 554.838 395.465 566.001 395.919 576.034C450.554 574.958 505.2 574.542 559.845 574.788C582.18 574.828 608.01 576.809 629.478 576.041ZM639.589 512.755C646.894 517.093 652.456 519.005 661.145 517.919C665.396 517.124 667.845 515.735 671.535 513.664C671.565 500.604 670.951 486.763 670.692 473.64C670.318 445.73 669.739 417.822 668.956 389.921L666.618 241.189C666.451 214.487 666.1 187.786 665.565 161.089C665.422 151.911 665.662 140.47 664.669 131.342C664.459 129.411 661.865 127.563 660.214 126.608C655.461 125.864 653.109 125.2 649.077 128.36C648.218 129.716 647.102 131.388 647.115 133.008C647.177 140.203 647.352 147.425 647.281 154.619C646.998 176.959 646.846 199.3 646.827 221.642C646.372 288.647 645.198 355.644 643.305 422.624L641.459 480.834C641.089 490.197 640.81 503.692 639.589 512.755ZM122.387 597.954C122.358 604.241 122.383 610.621 122.268 616.898C130.238 617.658 142.883 618.059 150.835 617.063C152.65 615.349 154.751 613.459 156.43 611.648L161.447 606.38L161.478 598.361C148.319 599.961 135.535 600.501 122.387 597.954ZM887.178 439.085C888.013 424.127 887.455 401.436 887.498 386.109C887.737 352.357 887.769 318.605 887.595 284.853C887.483 249.415 888.494 214.173 888.574 178.756C888.596 168.968 889.128 159.242 889.075 149.382C883.235 147.841 875.53 149.463 874.649 156.388C872.898 170.161 873.737 185.08 873.606 199.065L872.362 287.461L870.28 385.921C869.817 403.193 868.733 423.87 868.921 440.895C868.205 445.053 867.962 467.836 867.792 473.344C867.146 498.358 866.256 523.365 865.121 548.362C870.354 554.916 876.603 554.459 884.428 554.581C886.031 554.052 886.193 554.022 887.723 553.136C888.791 549.058 887.942 506.072 887.596 499.876L887.483 478.028C887.823 475.609 887.61 467.661 887.585 464.984C887.56 456.35 887.424 447.716 887.178 439.085ZM228.996 603.617C229.418 603.324 231.573 600.838 232.054 600.299C228.811 600.836 226.267 600.943 223.373 602.429L223.493 603.034C225.891 603.964 226.33 603.785 228.996 603.617ZM122.647 577.843L122.491 594.294L127.886 594.941C139.078 595.987 150.349 595.871 161.517 594.593C161.361 591.265 161.542 580.095 160.311 577.793C159.106 577.355 159.006 577.506 157.699 577.702C143.968 579.236 136.164 578.665 122.647 577.843ZM864.116 570.024C878.828 573.032 887.153 572.882 902.079 570.319C901.976 565.352 902.144 561.186 902.379 556.253C889.489 558.564 876.186 561.328 864.551 553.725C864.482 559.187 864.459 564.568 864.116 570.024ZM876.563 620.414C882.705 625.532 887.786 631.369 893.549 636.729C897.403 640.225 901.229 643.751 905.026 647.307C904.561 643.041 903.975 622.231 903.24 620.244C901.253 619.796 900.511 620.031 898.438 620.294C890.644 620.808 884.317 620.656 876.563 620.414ZM365.736 516.402C372.048 516.702 378.403 516.267 384.721 515.966C381.952 432.58 379.92 349.171 378.626 265.75C378.362 234.232 377.83 202.717 377.031 171.209L376.55 146.001C376.496 140.371 377.902 132.183 373.781 127.855C372.302 126.279 370.235 125.386 368.074 125.389C365.234 125.374 361.62 127.59 359.719 129.817C357.806 135.631 358.476 146.228 358.472 152.745L358.434 185.443L358.386 214.652C358.374 218.421 358.122 225.781 358.366 229.284C357.037 261.888 357.271 296.431 356.828 329.219L353.88 516.2C357.749 516.308 361.893 516.5 365.736 516.402ZM132.449 161.896C131.212 198.685 132.098 238.722 131.706 275.902L128.98 456.5L127.272 554.478C130.987 555.402 150.188 554.808 155.508 554.891C153.833 496.874 155.174 437.525 152.92 379.657C153.12 374.959 152.791 367.694 152.725 362.794L152.296 331.155C152.001 306.552 151.553 281.951 150.953 257.353C151.388 251.299 150.907 229.675 150.524 223.139C150.614 205.669 149.76 188.18 150.097 170.676C150.265 161.981 152.267 153.733 143.729 148.998C137.188 147.506 132.729 151.728 132.416 158.17L132.449 161.896ZM371.363 251.204C371.442 242.81 371.726 234.418 372.212 226.038C374.004 256.789 372.639 290.557 373.562 321.614L373.161 322.332C372.75 317.78 373.197 309.944 372.794 306.591C372.514 308.174 372.311 310.482 371.384 311.642C369.902 309.433 370.525 296.44 370.507 292.57C371.709 280.99 371.389 263.026 371.363 251.204ZM120.92 646.529C125.272 642.464 129.812 638.332 134.092 634.215C137.512 631.004 144.033 624.238 147.246 621.659C139.627 621.64 129.179 621.462 121.582 620.589C121.246 629.233 121.025 637.88 120.92 646.529ZM863.896 573.668C863.438 579.651 863.21 587.07 863.202 593.125C877.559 597.15 888.081 595.845 902.791 593.772C902.968 587.676 902.682 580.998 902.524 574.865C888.701 577.113 877.464 577.592 863.896 573.668ZM862.88 596.697L862.23 606.145C866.048 609.854 869.94 613.486 873.904 617.038C881.93 617.083 895.42 616.8 903.481 615.937C903.198 609.713 903.04 603.483 903.009 597.253C889.615 600.548 876.146 600.695 862.88 596.697Z"/><path fill="#636463" transform="scale(0.25 0.25)" d="M94.0518 846.254C112.938 865.351 133.918 873.201 160.738 873.381L664.869 872.864L810.585 873.021L853.982 872.881C881.905 872.709 905.736 872.985 927.072 851.781C928.844 850.02 930.573 848.217 932.258 846.373C942.849 846.201 992.35 853.963 987.268 867.314C983.287 877.777 935.071 883.825 925.229 885.364C897.868 889.642 871.396 891.733 844.256 894.072C699.978 905.122 555.227 908.729 410.578 904.881C355.831 904.251 301.111 902.17 246.474 898.641C201.761 895.992 157.236 892.882 112.773 886.459C106.097 885.495 33.6134 877.373 42.103 862.9C48.2395 852.439 80.1209 849.13 93.4519 846.382L94.0518 846.254Z"/><path fill="#777894" transform="scale(0.25 0.25)" d="M230.51 598.76C232.894 598.274 252.436 597.825 255.738 597.707L314.788 595.397C429.81 590.471 544.975 589.804 660.047 593.396C688.447 594.042 716.839 594.981 745.219 596.214C758.182 596.722 776.618 596.976 789.111 598.348C838.578 600.487 848.397 613.397 882.257 645.843L923.389 686.012C934.548 697.035 945.291 706.765 956.38 717.423C939.492 734.342 906.778 736.735 883.709 736.808L728.773 736.275L671.1 736.424C664.472 736.43 650.289 736.876 644.121 736.349L130.811 736.097C109.98 735.911 85.0151 734.327 69.1157 718.817C69.7764 717.924 70.4659 717.053 71.1832 716.204C82.344 702.949 102.399 684.932 115.002 672.771C126.231 661.87 137.534 651.045 148.91 640.297C178.593 612.094 188.298 602.249 230.51 598.76ZM228.996 603.617C229.418 603.324 231.573 600.838 232.054 600.299C228.811 600.836 226.267 600.943 223.373 602.429L223.493 603.034C225.891 603.964 226.33 603.785 228.996 603.617Z"/><path fill="#A6A8C5" fill-opacity="0.92156863" transform="scale(0.25 0.25)" d="M232.054 600.299C231.573 600.838 229.418 603.324 228.996 603.617C226.33 603.785 225.891 603.964 223.493 603.034L223.373 602.429C226.267 600.943 228.811 600.836 232.054 600.299Z"/><path fill="#545667" transform="scale(0.25 0.25)" d="M789.111 598.348C838.578 600.487 848.397 613.397 882.257 645.843L923.389 686.012C934.548 697.035 945.291 706.765 956.38 717.423C939.492 734.342 906.778 736.735 883.709 736.808L728.773 736.275L671.1 736.424C664.472 736.43 650.289 736.876 644.121 736.349C644.932 735.819 851.275 735.451 870.073 736.218C864.12 713.032 846.858 695.388 833.98 675.295C817.947 650.278 801.201 625.651 789.111 598.348Z"/><path fill="#A6A8C5" transform="scale(0.25 0.25)" d="M69.1157 718.817C69.7764 717.924 70.4659 717.053 71.1832 716.204C82.344 702.949 102.399 684.932 115.002 672.771C126.231 661.87 137.534 651.045 148.91 640.297C178.593 612.094 188.298 602.249 230.51 598.76L232.442 599.229C232.228 600.164 232.434 599.846 232.054 600.299C228.811 600.836 226.267 600.943 223.373 602.429L223.493 603.034C225.891 603.964 226.33 603.785 228.996 603.617C223.234 611.25 216.038 619.272 209.755 626.693C197.177 641.613 184.446 656.404 171.565 671.064C157.512 687.133 131.482 714.274 130.811 736.097C109.98 735.911 85.0151 734.327 69.1157 718.817Z"/><path fill="#020202" transform="scale(0.25 0.25)" d="M488.048 644.726C556.194 643.268 624.36 646.526 692.057 654.477C697.021 655.094 710.083 656.225 714.647 658.461C715.146 658.706 715.051 659.451 715.109 660.122C712.952 662.123 708.312 661.115 705.48 660.729C647.303 652.424 588.588 648.467 529.824 648.889C469.111 648.229 408.405 650.785 347.963 656.548C333.304 657.912 318.619 659.275 304.027 661.261C303.652 661.054 303.277 660.848 302.902 660.642C302.413 658.851 302.362 659.707 303.061 657.985C308.068 653.717 419.486 647.01 432.192 646.422C450.802 645.605 469.422 645.039 488.048 644.726Z"/><path fill="#020202" transform="scale(0.25 0.25)" d="M496.336 661.241C554.587 660.305 613.859 663.071 671.888 668.083C675.243 668.373 686.942 669.344 689.232 670.46C690.088 672.054 690.012 671.25 689.528 672.946C687.23 674.59 666.12 671.694 661.693 671.205C616.093 666.169 570.809 666.603 525.125 665.259C481.921 665.323 435.557 665.302 392.459 667.832C378.551 668.733 364.658 669.865 350.787 671.227C346.57 671.675 334.905 674.9 332.047 672.361C332.023 670.854 331.761 671.497 332.618 670.32C338.706 668.274 355.32 667.048 362.262 666.372C406.613 662.049 451.785 661.701 496.336 661.241Z"/><path fill="#545667" transform="scale(0.25 0.25)" d="M67.7391 723.812C73.8731 728.342 77.1642 730.054 84.1216 733.176C100.79 739.11 112.389 740.469 130.088 740.509C161.415 740.68 192.743 740.681 224.07 740.512C293.655 740.871 363.241 740.871 432.826 740.514L871.1 740.505C870.933 769.848 870.944 799.19 871.132 828.532C850.317 829.534 828.539 829.109 807.639 829.072L714.639 828.992L419.236 828.951L224.346 829.023L161.368 828.918C152.967 828.916 137.344 829.551 129.648 828.742C120.437 827.738 95.5042 823.171 86.633 820.341C77.4927 817.572 73.4834 814.213 68.2562 806.562C67.5399 799.106 67.9443 784.757 67.9507 776.819C68.0089 759.15 67.9384 741.48 67.7391 723.812Z"/><path fill="#777894" transform="scale(0.25 0.25)" d="M67.7391 723.812C73.8731 728.342 77.1642 730.054 84.1216 733.176C100.79 739.11 112.389 740.469 130.088 740.509C129.945 759.616 129.941 778.725 130.076 797.832C130.116 802.378 130.99 826.972 129.648 828.742C120.437 827.738 95.5042 823.171 86.633 820.341C77.4927 817.572 73.4834 814.213 68.2562 806.562C67.5399 799.106 67.9443 784.757 67.9507 776.819C68.0089 759.15 67.9384 741.48 67.7391 723.812Z"/><path fill="#A6A8C5" transform="scale(0.25 0.25)" d="M67.7391 723.812C73.8731 728.342 77.1642 730.054 84.1216 733.176C83.1488 758.384 83.5585 784.623 83.5012 809.907C83.493 813.535 86.2535 816.95 87.1516 819.913L86.633 820.341C77.4927 817.572 73.4834 814.213 68.2562 806.562C67.5399 799.106 67.9443 784.757 67.9507 776.819C68.0089 759.15 67.9384 741.48 67.7391 723.812Z"/><path fill="#020202" transform="scale(0.25 0.25)" d="M199.656 755.067C207.95 754.525 238.309 753.893 244.558 756.835C247.853 758.386 251.218 761.952 252.411 765.408C254.39 771.138 254.404 810.095 251.779 815.53C249.763 819.703 245.587 821.807 241.455 823.346C234.503 824.451 202.574 825.132 196.83 822.899C193.48 821.598 190.236 818.075 188.87 814.789C186.974 810.23 187.155 768.11 189.332 763.535C191.358 759.275 195.301 756.549 199.656 755.067Z"/><path fill="#69BDF6" transform="scale(0.25 0.25)" d="M201.146 759.077C209.262 758.668 234.568 758.041 241.2 760.182C244.272 761.173 246.604 763.469 247.92 766.402C250.05 771.149 250.041 806.994 247.978 811.993C246.464 815.664 243.754 817.544 240.153 818.92C235.497 819.681 204.523 819.433 199.125 819.027C195.875 817.033 194.716 815.869 192.559 812.739C192.388 803.985 190.862 769.698 194.221 763.879C195.799 761.144 198.207 759.916 201.146 759.077Z"/><path fill="#020202" transform="scale(0.25 0.25)" d="M226.101 763.26C230.301 763.313 234.5 763.422 238.696 763.589C242.883 766.141 244.392 766.861 244.425 772.067C244.496 783.431 244.955 794.986 244.419 806.334C244.324 808.355 243.363 810.765 242.006 812.276C237.743 814.057 219.649 813.545 214.25 813.589C206.669 813.768 199.561 815.356 194.863 808.269L194.897 785.842C194.848 773.982 192.544 762.908 208.507 763.195C214.252 763.298 220.338 763.24 226.101 763.26Z"/><path fill="#FEDAAE" transform="scale(0.25 0.25)" d="M238.201 805.098L239.32 805.307C240.188 807.092 240.197 806.27 239.753 807.832C236.505 809.931 206.585 809.326 201.526 808.838C200.224 807.976 199.964 807.884 199.771 806.543C202.232 806.12 206.325 806.421 209.021 806.373C219.341 806.192 228.043 807.388 238.201 805.098Z"/><path fill="#FA3D05" transform="scale(0.25 0.25)" d="M206.969 789.992C209.884 790.001 216.421 789.161 218.13 790.604C218.668 793.34 217.774 795.265 218.028 798.363C214.842 799.163 210.357 799.129 207.018 799.195L206.969 789.992Z"/><path fill="#DFD93B" transform="scale(0.25 0.25)" d="M234.367 789.245C235.586 788.933 235.153 788.93 236.338 789.253C237.365 791.125 236.931 796.145 236.859 798.507L229.375 798.565C228.111 798.646 228.108 798.746 226.978 798.24C225.943 795.963 226.362 792.369 226.423 789.69C229.072 789.566 231.72 789.418 234.367 789.245Z"/><path fill="#020202" transform="scale(0.25 0.25)" d="M470.066 769.661C480.088 768.452 489.208 775.557 490.487 785.57C491.766 795.584 484.725 804.752 474.721 806.101C464.617 807.463 455.338 800.337 454.046 790.225C452.755 780.112 459.945 770.882 470.066 769.661Z"/><path fill="#DFD93B" transform="scale(0.25 0.25)" d="M468.812 774.349C476.048 772.399 483.497 776.676 485.46 783.909C487.423 791.142 483.16 798.598 475.93 800.575C468.683 802.556 461.203 798.279 459.235 791.028C457.266 783.776 461.557 776.304 468.812 774.349Z"/><path fill="#020202" transform="scale(0.25 0.25)" d="M546.732 769.783C556.629 767.632 566.399 773.899 568.571 783.792C570.743 793.684 564.497 803.468 554.609 805.661C544.692 807.861 534.872 801.592 532.694 791.669C530.515 781.747 536.805 771.941 546.732 769.783Z"/><path fill="#DFD93B" transform="scale(0.25 0.25)" d="M547.783 774.265C552.533 773.3 557.435 774.967 560.611 778.628C563.788 782.289 564.748 787.377 563.123 791.944C561.498 796.51 557.541 799.849 552.765 800.68C545.524 801.942 538.612 797.153 537.249 789.929C535.887 782.706 540.579 775.728 547.783 774.265Z"/><path fill="#020202" transform="scale(0.25 0.25)" d="M625.059 769.977C634.898 767.538 644.847 773.557 647.255 783.404C649.664 793.251 643.615 803.182 633.76 805.56C623.948 807.927 614.07 801.91 611.673 792.105C609.275 782.301 615.261 772.405 625.059 769.977Z"/><path fill="#DFD93B" transform="scale(0.25 0.25)" d="M625.958 774.443C630.651 773.263 635.616 774.693 638.961 778.19C642.306 781.687 643.516 786.711 642.129 791.347C640.742 795.983 636.972 799.517 632.256 800.602C625.066 802.257 617.886 797.813 616.159 790.64C614.432 783.467 618.803 776.242 625.958 774.443Z"/><path fill="#020202" transform="scale(0.25 0.25)" d="M387.844 769.331C397.708 767.308 407.343 773.668 409.36 783.533C411.377 793.397 405.011 803.029 395.145 805.039C385.287 807.048 375.667 800.689 373.652 790.833C371.637 780.977 377.989 771.353 387.844 769.331Z"/><path fill="#DFD93B" transform="scale(0.25 0.25)" d="M388.004 773.813C395.258 771.988 402.61 776.422 404.38 783.689C406.15 790.956 401.661 798.275 394.38 799.99C387.177 801.686 379.954 797.255 378.202 790.065C376.451 782.875 380.827 775.619 388.004 773.813Z"/><path fill="#020202" transform="scale(0.25 0.25)" d="M704.537 769.561C714.439 768.671 723.187 775.978 724.073 785.881C724.959 795.783 717.648 804.528 707.746 805.41C697.848 806.292 689.109 798.986 688.223 789.089C687.337 779.192 694.64 770.45 704.537 769.561Z"/><path fill="#DFD93B" transform="scale(0.25 0.25)" d="M705.073 774.095C712.271 773.322 718.754 778.478 719.622 785.665C720.489 792.853 715.42 799.403 708.245 800.366C703.518 801.001 698.816 799.042 695.936 795.24C693.057 791.439 692.446 786.381 694.338 782.003C696.23 777.625 700.331 774.604 705.073 774.095Z"/><path fill="#020202" transform="scale(0.25 0.25)" d="M312.004 769.669C321.726 767.922 331.038 774.339 332.867 784.045C334.696 793.752 328.358 803.118 318.667 805.029C308.86 806.963 299.356 800.532 297.505 790.709C295.654 780.885 302.166 771.437 312.004 769.669Z"/><path fill="#DFD93B" transform="scale(0.25 0.25)" d="M313.527 773.5C320.871 772.671 327.507 777.925 328.385 785.263C329.263 792.6 324.055 799.272 316.723 800.199C309.321 801.136 302.572 795.866 301.686 788.458C300.799 781.05 306.114 774.337 313.527 773.5Z"/><path fill="#363840" transform="scale(0.25 0.25)" d="M108.098 840.376C114.229 841.05 120.615 841.471 126.784 841.959L630.419 842.059L786.206 841.986C810.808 841.988 837.792 841.463 862.23 842.01C858.108 845.194 854.206 848.462 850.024 851.648C846.58 854.273 842.042 857.078 838.922 859.608C833.738 859.258 824.51 859.479 819.068 859.472L780.217 859.442L661.178 859.428L288.687 859.49L194.636 859.703C181.34 859.702 149.391 860.628 138.29 857.687C125.413 855.192 117.637 848.805 108.098 840.376Z"/><path fill="#545667" transform="scale(0.25 0.25)" d="M108.098 840.376C114.229 841.05 120.615 841.471 126.784 841.959C129.701 848.01 132.507 851.817 137.468 856.466C138.163 857.118 137.954 856.843 138.29 857.687C125.413 855.192 117.637 848.805 108.098 840.376Z"/><path fill="#363840" transform="scale(0.25 0.25)" d="M871.1 740.505C900.187 740.705 934.255 741.006 957.537 721.571L957.68 777.08C957.697 785.551 959.536 810.061 951.62 814.264C930.626 825.411 894.111 828.099 871.132 828.532C870.944 799.19 870.933 769.848 871.1 740.505Z"/><defs><linearGradient id="gradient_0" gradientUnits="userSpaceOnUse" x1="631.99811" y1="321.42014" x2="677.90063" y2="325.67264"><stop offset="0" stop-color="#898D99" stop-opacity="0.83529413"/><stop offset="1" stop-color="#869096"/></linearGradient></defs><path fill="url(#gradient_0)" transform="scale(0.25 0.25)" d="M649.077 128.36C651.168 128.168 651.709 127.65 653.151 129.566C654.777 131.726 657.667 131.37 660.104 131.396C659.919 145.322 660.328 159.592 660.475 173.561L661.921 274.822C662.426 315.231 661.693 355.845 661.983 396.432L662.018 470.031C662.008 483.286 662.485 505.011 661.145 517.919C652.456 519.005 646.894 517.093 639.589 512.755C640.81 503.692 641.089 490.197 641.459 480.834L643.305 422.624C645.198 355.644 646.372 288.647 646.827 221.642C646.846 199.3 646.998 176.959 647.281 154.619C647.352 147.425 647.177 140.203 647.115 133.008C647.102 131.388 648.218 129.716 649.077 128.36Z"/><defs><linearGradient id="gradient_1" gradientUnits="userSpaceOnUse" x1="112.64114" y1="358.87894" x2="168.04895" y2="364.94971"><stop offset="0" stop-color="#888B97" stop-opacity="0.59215689"/><stop offset="1" stop-color="#859097" stop-opacity="0.87843138"/></linearGradient></defs><path fill="url(#gradient_1)" transform="scale(0.25 0.25)" d="M147.277 153.957C147.437 156.629 147.482 158.723 147.475 161.389C147.11 169.36 146.659 177.014 146.528 185.012C146.288 199.763 147.432 215.031 146.698 229.698C146.502 225.445 146.669 216.017 143.776 213.339L143.885 213.46C142.165 213.111 143.008 213.028 141.303 213.959C137.79 219.377 137.59 265.712 139.391 274.017C140.678 279.95 145.06 276.381 144.498 283.552L144.954 283.498C146.145 281.591 146.146 281.342 146.701 279.111C147.133 284.332 147.318 289.052 147.484 294.272C146.672 333.459 148.233 374.359 148.203 413.706L148.347 517.369C148.266 527.155 148.932 539.881 148.464 549.195C148.459 550.775 148.417 552.397 148.528 553.969C144.837 555.049 131.954 554.266 127.272 554.478L128.98 456.5L131.706 275.902C132.098 238.722 131.212 198.685 132.449 161.896C132.575 162.431 132.736 163.225 132.888 163.741C135.01 170.966 133.409 174.475 136.136 181.928C137.069 182.069 136.92 180.204 137.63 179.036C138.39 177.786 140.238 179.021 141.201 178.259C145.079 175.188 146.509 166.204 147.023 161.628C146.992 159.237 147.181 156.383 147.277 153.957Z"/><defs><linearGradient id="gradient_2" gradientUnits="userSpaceOnUse" x1="332.9017" y1="364.23169" x2="403.70786" y2="379.10645"><stop offset="0" stop-color="#92949E" stop-opacity="0.72156864"/><stop offset="1" stop-color="#849097" stop-opacity="0.98039216"/></linearGradient></defs><path fill="url(#gradient_2)" transform="scale(0.25 0.25)" d="M371.795 225.149L372.212 226.038C371.726 234.418 371.442 242.81 371.363 251.204C370.7 253.991 370.827 258.262 370.593 261.17C370.144 266.756 365.936 288.579 369.434 292.783C370.373 292.686 370.042 292.838 370.507 292.57C370.525 296.44 369.902 309.433 371.384 311.642C372.311 310.482 372.514 308.174 372.794 306.591C373.197 309.944 372.75 317.78 373.161 322.332L373.562 321.614C374.092 324.264 374.013 335.507 374.064 339.07L374.666 375.934C375.84 422.587 376.671 469.249 377.16 515.915C374.122 515.972 368.505 515.925 365.736 516.402C361.893 516.5 357.749 516.308 353.88 516.2L356.828 329.219C357.271 296.431 357.037 261.888 358.366 229.284C358.676 235.814 358.53 241.997 358.663 248.487L359.079 248.547C359.318 246.514 358.944 243.807 359.086 242.794C359.42 240.401 359.947 241.843 360.007 238.222L360.207 238.001C360.187 242.238 360.848 247.307 361.169 251.602C362.552 246.34 362.164 240.918 362.825 238.602L363.017 238.774L363.806 238.603L369.5 229.158C369.455 231.7 369.441 233.32 369.665 235.879L370.064 235.769C371.166 231.526 371.378 229.561 371.795 225.149Z"/><path fill="#8B929C" fill-opacity="0.98039216" transform="scale(0.25 0.25)" d="M868.921 440.895C868.733 423.87 869.817 403.193 870.28 385.921L872.362 287.461L873.606 199.065C873.737 185.08 872.898 170.161 874.649 156.388C875.53 149.463 883.235 147.841 889.075 149.382C889.128 159.242 888.596 168.968 888.574 178.756C888.494 214.173 887.483 249.415 887.595 284.853C887.769 318.605 887.737 352.357 887.498 386.109C887.455 401.436 888.013 424.127 887.178 439.085C884.885 432.668 888.819 398.974 883.307 397.359C883.044 397.282 882.758 397.358 882.485 397.342C880.987 397.259 880.033 396.657 879.076 395.549C875.615 391.537 875.69 381.669 875.589 376.617C874.01 382.192 872.511 390.84 871.805 396.508C871.017 402.841 870.22 438.289 869.153 441.106L868.921 440.895Z"/><path fill="#545667" transform="scale(0.25 0.25)" d="M889.075 149.382C892.959 152.986 893.571 153.242 893.643 158.561C893.772 168.048 893.541 177.556 893.565 187.049C893.633 206.846 893.804 226.644 894.077 246.439L897.052 552.454C892.344 553.927 889.41 554.529 884.428 554.581C886.031 554.052 886.193 554.022 887.723 553.136C888.791 549.058 887.942 506.072 887.596 499.876L887.483 478.028C887.823 475.609 887.61 467.661 887.585 464.984C887.56 456.35 887.424 447.716 887.178 439.085C888.013 424.127 887.455 401.436 887.498 386.109C887.737 352.357 887.769 318.605 887.595 284.853C887.483 249.415 888.494 214.173 888.574 178.756C888.596 168.968 889.128 159.242 889.075 149.382Z"/><path fill="#777894" fill-opacity="0.75686276" transform="scale(0.25 0.25)" d="M875.589 376.617C875.69 381.669 875.615 391.537 879.076 395.549C880.033 396.657 880.987 397.259 882.485 397.342C882.758 397.358 883.044 397.282 883.307 397.359C888.819 398.974 884.885 432.668 887.178 439.085C887.424 447.716 887.56 456.35 887.585 464.984C887.61 467.661 887.823 475.609 887.483 478.028C884.605 483.499 887.669 495.442 885.988 503.39L884.499 503.355C884.513 501.573 884.896 498.531 884.198 497.232C883.291 498.113 883.401 498.175 883.087 499.434C883.135 497.55 883.472 496.994 882.699 495.581C878.336 496.802 879.086 526.383 882.651 531.222C883.71 527.417 881.564 522.18 884.296 520.07C885.039 520.345 886.074 520.746 886.167 521.726C886.605 526.363 885.803 537.888 887.31 542.05C887.477 529.34 886.871 511.857 887.596 499.876C887.942 506.072 888.791 549.058 887.723 553.136C886.193 554.022 886.031 554.052 884.428 554.581C876.603 554.459 870.354 554.916 865.121 548.362C866.256 523.365 867.146 498.358 867.792 473.344C867.962 467.836 868.205 445.053 868.921 440.895L869.153 441.106C870.22 438.289 871.017 402.841 871.805 396.508C872.511 390.84 874.01 382.192 875.589 376.617Z"/><defs><linearGradient id="gradient_3" gradientUnits="userSpaceOnUse" x1="646.55103" y1="323.4664" x2="678.99573" y2="320.86978"><stop offset="0" stop-color="#5F656D" stop-opacity="0.96470588"/><stop offset="1" stop-color="#575F62"/></linearGradient></defs><path fill="url(#gradient_3)" transform="scale(0.25 0.25)" d="M660.214 126.608C661.865 127.563 664.459 129.411 664.669 131.342C665.662 140.47 665.422 151.911 665.565 161.089C666.1 187.786 666.451 214.487 666.618 241.189L668.956 389.921C669.739 417.822 670.318 445.73 670.692 473.64C670.951 486.763 671.565 500.604 671.535 513.664C667.845 515.735 665.396 517.124 661.145 517.919C662.485 505.011 662.008 483.286 662.018 470.031L661.983 396.432C661.693 355.845 662.426 315.231 661.921 274.822L660.475 173.561C660.328 159.592 659.919 145.322 660.104 131.396L660.214 126.608Z"/><defs><linearGradient id="gradient_4" gradientUnits="userSpaceOnUse" x1="369.55914" y1="321.40967" x2="386.4321" y2="321.66623"><stop offset="0" stop-color="#60656C" stop-opacity="0.96862745"/><stop offset="1" stop-color="#5C666A"/></linearGradient></defs><path fill="url(#gradient_4)" transform="scale(0.25 0.25)" d="M359.719 129.817C361.62 127.59 365.234 125.374 368.074 125.389C370.235 125.386 372.302 126.279 373.781 127.855C377.902 132.183 376.496 140.371 376.55 146.001L377.031 171.209C377.83 202.717 378.362 234.232 378.626 265.75C379.92 349.171 381.952 432.58 384.721 515.966C378.403 516.267 372.048 516.702 365.736 516.402C368.505 515.925 374.122 515.972 377.16 515.915C376.671 469.249 375.84 422.587 374.666 375.934L374.064 339.07C374.013 335.507 374.092 324.264 373.562 321.614C372.639 290.557 374.004 256.789 372.212 226.038L371.795 225.149C372.536 205.318 371.69 185.126 371.93 165.261C372.006 158.967 372.163 152.226 371.481 146.01L371.32 147.487C370.799 142.214 371.896 139.171 372.044 133.991C372.024 132.661 371.957 132.477 371.657 131.166C370.103 130.912 367.192 130.108 365.654 129.614L364.849 129.349C362.165 128.481 362.32 128.499 359.719 129.817Z"/><path fill="#8B929C" fill-opacity="0.48235294" transform="scale(0.25 0.25)" d="M362.825 238.602C362.402 233.996 360.698 228.711 360.524 224.488C360.514 220.441 360.882 216.448 360.75 212.389C360.512 200.116 359.694 187.802 359.706 175.531C359.713 168.549 361.9 160.193 361.619 152.879C361.493 149.622 363.21 145.415 362.268 141.995C361.926 140.752 361.867 138.599 362.023 137.315C362.859 133.066 367.142 136.266 371.204 133.304L372.044 133.991C371.896 139.171 370.799 142.214 371.32 147.487L371.481 146.01C372.163 152.226 372.006 158.967 371.93 165.261C371.69 185.126 372.536 205.318 371.795 225.149C371.378 229.561 371.166 231.526 370.064 235.769L369.665 235.879C369.441 233.32 369.455 231.7 369.5 229.158L363.806 238.603L363.017 238.774L362.825 238.602Z"/><path fill="#212227" transform="scale(0.25 0.25)" d="M862.23 842.01C879.163 841.996 901.7 841.902 918.328 838.715C903.051 855.579 890.012 859.52 867.136 859.619C857.858 859.66 848.168 860.057 838.922 859.608C842.042 857.078 846.58 854.273 850.024 851.648C854.206 848.462 858.108 845.194 862.23 842.01Z"/><path fill="#636463" fill-opacity="0.95686275" transform="scale(0.25 0.25)" d="M148.203 413.706C149.016 411.541 148.823 407.519 149.704 405.201C152.77 397.13 150.73 387.696 152.082 380.069L152.92 379.657C155.174 437.525 153.833 496.874 155.508 554.891C150.188 554.808 130.987 555.402 127.272 554.478C131.954 554.266 144.837 555.049 148.528 553.969C150.009 553.584 151.167 554.09 153 553.71C154.722 551.84 155.219 549.356 153.77 547.201L152.58 547.168C150.9 548.382 150.475 548.774 148.464 549.195C148.932 539.881 148.266 527.155 148.347 517.369L148.203 413.706Z"/><path fill="#363840" transform="scale(0.25 0.25)" d="M638.536 556.652C639.753 557.31 642.209 558.737 643.377 559.223C657.543 565.046 662.462 565.076 676.459 559.293C676.518 567.128 676.589 574.554 677.002 582.372C662.339 584.549 653.96 582.761 640.008 581.206C639.323 575.602 638.355 562.011 638.536 556.652Z"/><path fill="#363840" transform="scale(0.25 0.25)" d="M637.856 535.328C651.842 541.789 661.441 544.373 675.666 536.238C675.871 542.689 676.148 549.138 676.498 555.584C665.76 561.878 655.381 563.281 643.739 558.28L643.377 559.223C642.209 558.737 639.753 557.31 638.536 556.652L638.527 555.908C637.819 551.016 637.95 540.733 637.856 535.328Z"/><path fill="#212227" transform="scale(0.25 0.25)" d="M638.527 555.908C640.105 556.591 642.281 557.455 643.739 558.28L643.377 559.223C642.209 558.737 639.753 557.31 638.536 556.652L638.527 555.908Z"/><path fill="#363840" fill-opacity="0.98431373" transform="scale(0.25 0.25)" d="M863.896 573.668C877.464 577.592 888.701 577.113 902.524 574.865C902.682 580.998 902.968 587.676 902.791 593.772C888.081 595.845 877.559 597.15 863.202 593.125C863.21 587.07 863.438 579.651 863.896 573.668Z"/><path fill="#363840" transform="scale(0.25 0.25)" d="M347.568 520.147C360.603 520.738 372.327 520.626 385.333 520.353C385.465 523.33 386.682 537.292 385.853 538.885C375.727 540.29 357.632 540.269 347.472 538.85L347.568 520.147Z"/><path fill="#363840" transform="scale(0.25 0.25)" d="M347.592 542.353C360.256 544.295 373.772 544.957 386.38 542.607C386.407 546.624 386.788 556.857 386.376 560.384C380.142 563.535 355.971 562.037 347.604 561.982L347.592 542.353Z"/><path fill="#363840" transform="scale(0.25 0.25)" d="M385.04 564.697C385.805 564.56 385.674 564.649 386.505 564.841C387.35 566.99 387.423 578.64 387.496 581.815C374.948 583.61 362.232 583.907 349.615 582.7L348.172 582.251C346.598 580.059 347.576 568.552 347.707 564.976C360.632 566.216 372.12 566.6 385.04 564.697Z"/><path fill="#363840" fill-opacity="0.98431373" transform="scale(0.25 0.25)" d="M862.88 596.697C876.146 600.695 889.615 600.548 903.009 597.253C903.04 603.483 903.198 609.713 903.481 615.937C895.42 616.8 881.93 617.083 873.904 617.038C869.94 613.486 866.048 609.854 862.23 606.145L862.88 596.697Z"/><path fill="#363840" fill-opacity="0.96862745" transform="scale(0.25 0.25)" d="M122.387 597.954C135.535 600.501 148.319 599.961 161.478 598.361L161.447 606.38L156.43 611.648C154.751 613.459 152.65 615.349 150.835 617.063C142.883 618.059 130.238 617.658 122.268 616.898C122.383 610.621 122.358 604.241 122.387 597.954Z"/><defs><linearGradient id="gradient_5" gradientUnits="userSpaceOnUse" x1="122.49683" y1="588.05725" x2="160.57828" y2="584.1806"><stop offset="0" stop-color="#444951" stop-opacity="0.96470588"/><stop offset="1" stop-color="#2F3438" stop-opacity="0.98823529"/></linearGradient></defs><path fill="url(#gradient_5)" transform="scale(0.25 0.25)" d="M157.699 577.702C159.006 577.506 159.106 577.355 160.311 577.793C161.542 580.095 161.361 591.265 161.517 594.593C150.349 595.871 139.078 595.987 127.886 594.941L122.491 594.294L122.647 577.843C136.164 578.665 143.968 579.236 157.699 577.702Z"/><path fill="#363840" transform="scale(0.25 0.25)" d="M638.069 516.573C653.829 523.801 659.521 525.397 675.518 516.551C675.672 522.198 675.781 527.846 675.845 533.494C663.777 541.651 650.038 539.569 637.789 533.353C637.799 527.828 637.972 522.113 638.069 516.573Z"/><path fill="#363840" transform="scale(0.25 0.25)" d="M123.266 558.002C137.512 558.656 146.533 558.784 160.659 558.016C160.736 560.972 161.371 571.456 160.249 573.199C146.644 575.292 136.565 575.51 122.96 574.232C122.918 568.82 123.021 563.409 123.266 558.002Z"/><defs><linearGradient id="gradient_6" gradientUnits="userSpaceOnUse" x1="144.99594" y1="340.69266" x2="152.87874" y2="341.33801"><stop offset="0" stop-color="#686B74" stop-opacity="0.75686276"/><stop offset="1" stop-color="#626D73" stop-opacity="0.90980393"/></linearGradient></defs><path fill="url(#gradient_6)" transform="scale(0.25 0.25)" d="M150.953 257.353C151.553 281.951 152.001 306.552 152.296 331.155L152.725 362.794C152.791 367.694 153.12 374.959 152.92 379.657L152.082 380.069C150.73 387.696 152.77 397.13 149.704 405.201C148.823 407.519 149.016 411.541 148.203 413.706C148.233 374.359 146.672 333.459 147.484 294.272C150.235 291.127 149.644 264.462 150.953 257.353Z"/><defs><linearGradient id="gradient_7" gradientUnits="userSpaceOnUse" x1="864.44989" y1="565.25317" x2="901.34308" y2="559.83679"><stop offset="0" stop-color="#464953" stop-opacity="0.97254902"/><stop offset="1" stop-color="#2F3437"/></linearGradient></defs><path fill="url(#gradient_7)" transform="scale(0.25 0.25)" d="M864.551 553.725C876.186 561.328 889.489 558.564 902.379 556.253C902.144 561.186 901.976 565.352 902.079 570.319C887.153 572.882 878.828 573.032 864.116 570.024C864.459 564.568 864.482 559.187 864.551 553.725Z"/><path fill="#777894" fill-opacity="0.49803922" transform="scale(0.25 0.25)" d="M144.954 283.498L144.498 283.552C145.06 276.381 140.678 279.95 139.391 274.017C137.59 265.712 137.79 219.377 141.303 213.959C143.008 213.028 142.165 213.111 143.885 213.46L143.776 213.339C146.669 216.017 146.502 225.445 146.698 229.698C147.298 242.605 147.819 255.532 147.146 268.475C146.848 274.182 145.653 278.28 144.954 283.498Z"/><path fill="#363840" fill-opacity="0.95686275" transform="scale(0.25 0.25)" d="M898.438 620.294C900.511 620.031 901.253 619.796 903.24 620.244C903.975 622.231 904.561 643.041 905.026 647.307C901.229 643.751 897.403 640.225 893.549 636.729C887.786 631.369 882.705 625.532 876.563 620.414C884.317 620.656 890.644 620.808 898.438 620.294Z"/><path fill="#8B929C" fill-opacity="0.56078434" transform="scale(0.25 0.25)" d="M359.719 129.817C362.32 128.499 362.165 128.481 364.849 129.349L365.654 129.614C367.192 130.108 370.103 130.912 371.657 131.166C371.957 132.477 372.024 132.661 372.044 133.991L371.204 133.304C367.142 136.266 362.859 133.066 362.023 137.315C361.867 138.599 361.926 140.752 362.268 141.995C363.21 145.415 361.493 149.622 361.619 152.879C361.9 160.193 359.713 168.549 359.706 175.531C359.694 187.802 360.512 200.116 360.75 212.389C360.882 216.448 360.514 220.441 360.524 224.488C360.698 228.711 362.402 233.996 362.825 238.602C362.164 240.918 362.552 246.34 361.169 251.602C360.848 247.307 360.187 242.238 360.207 238.001L360.007 238.222C359.947 241.843 359.42 240.401 359.086 242.794C358.944 243.807 359.318 246.514 359.079 248.547L358.663 248.487C358.53 241.997 358.676 235.814 358.366 229.284C358.122 225.781 358.374 218.421 358.386 214.652L358.434 185.443L358.472 152.745C358.476 146.228 357.806 135.631 359.719 129.817Z"/><path fill="#636463" fill-opacity="0.73725492" transform="scale(0.25 0.25)" d="M147.475 161.389C149.761 165.945 147.219 176.465 147.234 182.053C147.256 190.327 148.18 197.856 149.218 206.047C149.776 211.265 149.268 218.349 150.524 223.139C150.907 229.675 151.388 251.299 150.953 257.353C149.644 264.462 150.235 291.127 147.484 294.272C147.318 289.052 147.133 284.332 146.701 279.111C146.146 281.342 146.145 281.591 144.954 283.498C145.653 278.28 146.848 274.182 147.146 268.475C147.819 255.532 147.298 242.605 146.698 229.698C147.432 215.031 146.288 199.763 146.528 185.012C146.659 177.014 147.11 169.36 147.475 161.389Z"/><path fill="#363840" fill-opacity="0.94509804" transform="scale(0.25 0.25)" d="M121.582 620.589C129.179 621.462 139.627 621.64 147.246 621.659C144.033 624.238 137.512 631.004 134.092 634.215C129.812 638.332 125.272 642.464 120.92 646.529C121.025 637.88 121.246 629.233 121.582 620.589Z"/><path fill="#777894" fill-opacity="0.53333336" transform="scale(0.25 0.25)" d="M887.483 478.028L887.596 499.876C886.871 511.857 887.477 529.34 887.31 542.05C885.803 537.888 886.605 526.363 886.167 521.726C886.074 520.746 885.039 520.345 884.296 520.07C881.564 522.18 883.71 527.417 882.651 531.222C879.086 526.383 878.336 496.802 882.699 495.581C883.472 496.994 883.135 497.55 883.087 499.434C883.401 498.175 883.291 498.113 884.198 497.232C884.896 498.531 884.513 501.573 884.499 503.355L885.988 503.39C887.669 495.442 884.605 483.499 887.483 478.028Z"/><path fill="#777894" fill-opacity="0.48627451" transform="scale(0.25 0.25)" d="M132.416 158.17C132.654 159.048 132.826 159.558 132.849 160.47L133.517 160.887C134.278 159.556 133.916 159.084 133.806 157.235C135.189 157.547 135.46 157.91 136.598 158.768L137.347 158.614L138.415 155.978L139.286 155.683L139.649 156.19C138.586 157.57 138.486 157.662 138.36 159.514C139.323 161.467 139.384 161.715 140.858 163.255C143.659 163.763 144.758 162.167 147.023 161.628C146.509 166.204 145.079 175.188 141.201 178.259C140.238 179.021 138.39 177.786 137.63 179.036C136.92 180.204 137.069 182.069 136.136 181.928C133.409 174.475 135.01 170.966 132.888 163.741C132.736 163.225 132.575 162.431 132.449 161.896L132.416 158.17Z"/><path fill="#8B929C" transform="scale(0.25 0.25)" d="M372.212 226.038C374.004 256.789 372.639 290.557 373.562 321.614L373.161 322.332C372.75 317.78 373.197 309.944 372.794 306.591C372.514 308.174 372.311 310.482 371.384 311.642C369.902 309.433 370.525 296.44 370.507 292.57C371.709 280.99 371.389 263.026 371.363 251.204C371.442 242.81 371.726 234.418 372.212 226.038Z"/><path fill="#777894" fill-opacity="0.3137255" transform="scale(0.25 0.25)" d="M132.416 158.17C132.729 151.728 137.188 147.506 143.729 148.998C144.928 151.404 145.47 151.879 147.277 153.957C147.181 156.383 146.992 159.237 147.023 161.628C144.758 162.167 143.659 163.763 140.858 163.255C139.384 161.715 139.323 161.467 138.36 159.514C138.486 157.662 138.586 157.57 139.649 156.19L139.286 155.683L138.415 155.978L137.347 158.614L136.598 158.768C135.46 157.91 135.189 157.547 133.806 157.235C133.916 159.084 134.278 159.556 133.517 160.887L132.849 160.47C132.826 159.558 132.654 159.048 132.416 158.17Z"/><path fill="#545667" fill-opacity="0.98039216" transform="scale(0.25 0.25)" d="M143.729 148.998C152.267 153.733 150.265 161.981 150.097 170.676C149.76 188.18 150.614 205.669 150.524 223.139C149.268 218.349 149.776 211.265 149.218 206.047C148.18 197.856 147.256 190.327 147.234 182.053C147.219 176.465 149.761 165.945 147.475 161.389C147.482 158.723 147.437 156.629 147.277 153.957C145.47 151.879 144.928 151.404 143.729 148.998Z"/><path fill="#8B929C" fill-opacity="0.7764706" transform="scale(0.25 0.25)" d="M370.507 292.57C370.042 292.838 370.373 292.686 369.434 292.783C365.936 288.579 370.144 266.756 370.593 261.17C370.827 258.262 370.7 253.991 371.363 251.204C371.389 263.026 371.709 280.99 370.507 292.57Z"/><path fill="#8B929C" fill-opacity="0.90196079" transform="scale(0.25 0.25)" d="M649.077 128.36C653.109 125.2 655.461 125.864 660.214 126.608L660.104 131.396C657.667 131.37 654.777 131.726 653.151 129.566C651.709 127.65 651.168 128.168 649.077 128.36Z"/><path fill="#636463" fill-opacity="0.86666667" transform="scale(0.25 0.25)" d="M148.464 549.195C150.475 548.774 150.9 548.382 152.58 547.168L153.77 547.201C155.219 549.356 154.722 551.84 153 553.71C151.167 554.09 150.009 553.584 148.528 553.969C148.417 552.397 148.459 550.775 148.464 549.195Z"/></svg>